<svg xmlns="http://www.w3.org/2000/svg" viewBox="0 0 650.42 133.52"><defs><style>.cls-1{fill:#e8e8e8;}</style></defs><title>img__hacemos--Recurso 93</title><g id="Capa_2" data-name="Capa 2"><g id="Capa_13" data-name="Capa 13"><path class="cls-1" d="M94.73,37.65a9.08,9.08,0,0,0-2.52.35A14.76,14.76,0,0,0,63,37.69a9.43,9.43,0,0,0,1,18.81H94.73a9.43,9.43,0,1,0,0-18.85Z"/><path class="cls-1" d="M190.46,16.69a5.15,5.15,0,0,0-1.37.19,8,8,0,0,0-15.93-.17A5.14,5.14,0,0,0,173.68,27h16.78a5.14,5.14,0,1,0,0-10.27Z"/><path class="cls-1" d="M7.33,104a7.48,7.48,0,0,1,2,.27A11.47,11.47,0,0,1,32,104a7.33,7.33,0,0,1-.74,14.63h-24a7.33,7.33,0,0,1,0-14.66Z"/><path class="cls-1" d="M619.14,118.86a7,7,0,0,1,2,.28,11.47,11.47,0,0,1,22.73-.24,7.33,7.33,0,0,1-.73,14.62h-24a7.33,7.33,0,0,1,0-14.66Z"/><path class="cls-1" d="M591,65.68a10,10,0,0,0,.09-1.24,9.57,9.57,0,0,0-9.56-9.57,9.27,9.27,0,0,0-2.9.46,14.73,14.73,0,0,0-24,9.19,9.43,9.43,0,0,0,.94,18.82h30.81A9.43,9.43,0,0,0,591,65.68Z"/><path class="cls-1" d="M520.65,9.76a7,7,0,0,0-1.95.27,11.47,11.47,0,0,0-19.49-6.67,5,5,0,0,0-6.44,7.54,7.33,7.33,0,0,0,3.93,13.52h23.95a7.33,7.33,0,1,0,0-14.66Z"/><path class="cls-1" d="M327.66,53.07a4.78,4.78,0,0,0-4.57-6.31,4.73,4.73,0,0,0-2.18.55,11.46,11.46,0,0,0-20.39,5.37,7.33,7.33,0,0,0,.73,14.62H325.2a7.33,7.33,0,0,0,2.46-14.23Z"/></g></g></svg>