<?xml version="1.0" encoding="utf-8"?>
<!-- Generator: Adobe Illustrator 22.1.0, SVG Export Plug-In . SVG Version: 6.00 Build 0)  -->
<svg version="1.1" id="Capa_1" xmlns="http://www.w3.org/2000/svg" xmlns:xlink="http://www.w3.org/1999/xlink" x="0px" y="0px"
	 viewBox="0 0 146 180" style="enable-background:new 0 0 146 180;" xml:space="preserve">
<style type="text/css">
	.st0{fill:#959595;}
	.st1{fill:#BEBEBE;}
	.st2{fill:#9D9D9D;}
	.st3{fill:#FF8430;}
	.st4{fill:#0F0F0F;}
	.st5{fill:#C3C3C3;}
	.st6{fill:#A1A1A1;}
	.st7{fill:#C8C8C8;}
	.st8{fill:#808080;}
	.st9{fill:#121212;}
	.st10{opacity:0.1;fill:#FFFFFF;enable-background:new    ;}
	.st11{opacity:0.15;fill:#FFFFFF;enable-background:new    ;}
	.st12{opacity:0.2;fill:#FFFFFF;enable-background:new    ;}
	.st13{fill:#C7C7C7;}
	.st14{fill:#BABABA;}
	.st15{fill:#CFCFCF;}
</style>
<title>img__hacemos--Recurso 88</title>
<g>
	<g id="Capa_2_1_">
		<g id="Capa_13">
			
				<image style="overflow:visible;opacity:0.5;enable-background:new    ;" width="146" height="180" xlink:href="32B04D9F3D295973.png" >
			</image>
			<polygon class="st0" points="5.3,62.3 54.3,34 75.4,46.1 26.3,74.5 			"/>
			<polygon class="st1" points="5.3,62.3 5.3,119 26.2,131.1 26.3,74.5 			"/>
			<polygon class="st2" points="65.4,40.4 65.4,97.1 16.3,125.4 16.3,68.8 			"/>
			<polygon class="st3" points="24.5,78.2 18.2,74.5 18.2,78.2 24.5,81.8 			"/>
			<polygon class="st4" points="18.9,74.9 18.9,77.8 24.5,81.1 24.5,81.8 18.2,78.2 18.2,74.5 			"/>
			<polygon class="st3" points="13.3,71.7 7,68 7,71.7 13.3,75.3 			"/>
			<polygon class="st4" points="7.7,68.4 7.7,71.3 13.3,74.6 13.3,75.3 7,71.7 7,68 			"/>
			<polygon class="st3" points="24.5,88.3 18.2,84.6 18.2,88.3 24.5,91.9 			"/>
			<polygon class="st4" points="18.9,85 18.9,88 24.5,91.2 24.5,91.9 18.2,88.3 18.2,84.6 			"/>
			<polygon class="st3" points="13.3,81.8 7,78.1 7,81.8 13.3,85.4 			"/>
			<polygon class="st4" points="7.7,78.5 7.7,81.5 13.3,84.7 13.3,85.4 7,81.8 7,78.1 			"/>
			<polygon class="st3" points="24.5,98.3 18.2,94.7 18.2,98.3 24.5,102 			"/>
			<polygon class="st4" points="18.9,95 18.9,98 24.5,101.2 24.5,102 18.2,98.3 18.2,94.7 			"/>
			<polygon class="st3" points="13.3,91.8 7,88.2 7,91.8 13.3,95.5 			"/>
			<polygon class="st4" points="7.7,88.6 7.7,91.5 13.3,94.8 13.3,95.5 7,91.8 7,88.2 			"/>
			<polygon class="st3" points="24.5,108.5 18.2,104.8 18.2,108.5 24.5,112.1 			"/>
			<polygon class="st4" points="18.9,105.2 18.9,108.1 24.5,111.4 24.5,112.1 18.2,108.5 18.2,104.8 			"/>
			<polygon class="st3" points="13.3,102 7,98.3 7,102 13.3,105.6 			"/>
			<polygon class="st4" points="7.7,98.7 7.7,101.7 13.3,104.9 13.3,105.6 7,102 7,98.3 			"/>
			<polygon class="st3" points="24.5,118.6 18.2,114.9 18.2,118.6 24.5,122.2 			"/>
			<polygon class="st4" points="18.9,115.3 18.9,118.3 24.5,121.5 24.5,122.2 18.2,118.6 18.2,114.9 			"/>
			<polygon class="st3" points="13.3,112.1 7,108.4 7,112.1 13.3,115.7 			"/>
			<polygon class="st4" points="7.7,108.8 7.7,111.8 13.3,115 13.3,115.7 7,112.1 7,108.4 			"/>
			<polygon class="st5" points="46.5,154.4 16.2,137 16.2,63 46.5,80.4 			"/>
			<polygon class="st6" points="46.5,80.4 115.5,40.6 115.5,114.5 46.5,154.4 			"/>
			<polygon class="st7" points="16.2,63 85.3,23.1 115.5,40.6 46.5,80.4 			"/>
			<polygon class="st0" points="56.7,92 105.7,63.7 126.8,75.8 77.7,104.2 			"/>
			<polygon class="st1" points="56.7,92 56.7,148.7 77.7,160.8 77.7,104.2 			"/>
			<polygon class="st2" points="126.8,75.8 126.8,132.6 77.7,160.8 77.7,104.2 			"/>
			<polygon class="st0" points="85.5,27.5 107.9,40.4 46.5,75.9 23.9,62.9 			"/>
			<polygon class="st8" points="85.5,27.5 85.5,30.5 105.3,41.8 107.9,40.4 			"/>
			<polygon class="st9" points="85.5,27.5 23.9,62.9 26.4,64.4 85.5,30.5 			"/>
			<polygon class="st3" points="75.6,107.7 69.3,104 69.3,107.7 75.6,111.3 			"/>
			<polygon class="st4" points="70,104.4 70,107.3 75.6,110.6 75.6,111.3 69.3,107.7 69.3,104 			"/>
			<polygon class="st3" points="64.4,101.2 58.1,97.5 58.1,101.2 64.4,104.8 			"/>
			<polygon class="st4" points="58.8,97.9 58.8,100.8 64.4,104.1 64.4,104.8 58.1,101.2 58.1,97.5 			"/>
			<polygon class="st3" points="75.6,117.8 69.3,114.1 69.3,117.8 75.6,121.4 			"/>
			<polygon class="st4" points="70,114.5 70,117.5 75.6,120.7 75.6,121.4 69.3,117.8 69.3,114.1 			"/>
			<polygon class="st3" points="64.4,111.3 58.1,107.6 58.1,111.3 64.4,114.9 			"/>
			<polygon class="st4" points="58.8,108 58.8,111 64.4,114.2 64.4,114.9 58.1,111.3 58.1,107.6 			"/>
			<polygon class="st3" points="75.6,127.8 69.3,124.2 69.3,127.8 75.6,131.5 			"/>
			<polygon class="st4" points="70,124.5 70,127.5 75.6,130.7 75.6,131.5 69.3,127.8 69.3,124.2 			"/>
			<polygon class="st3" points="64.4,121.3 58.1,117.7 58.1,121.3 64.4,125 			"/>
			<polygon class="st4" points="58.8,118.1 58.8,121 64.4,124.2 64.4,125 58.1,121.3 58.1,117.7 			"/>
			<polygon class="st3" points="75.6,138 69.3,134.3 69.3,138 75.6,141.6 			"/>
			<polygon class="st4" points="70,134.7 70,137.6 75.6,140.9 75.6,141.6 69.3,138 69.3,134.3 			"/>
			<polygon class="st3" points="64.4,131.5 58.1,127.8 58.1,131.5 64.4,135.1 			"/>
			<polygon class="st4" points="58.8,128.2 58.8,131.2 64.4,134.4 64.4,135.1 58.1,131.5 58.1,127.8 			"/>
			<polygon class="st3" points="75.6,148.1 69.3,144.4 69.3,148.1 75.6,151.7 			"/>
			<polygon class="st4" points="70,144.8 70,147.8 75.6,151 75.6,151.7 69.3,148.1 69.3,144.4 			"/>
			<polygon class="st3" points="64.4,141.6 58.1,137.9 58.1,141.6 64.4,145.2 			"/>
			<polygon class="st4" points="58.8,138.3 58.8,141.3 64.4,144.5 64.4,145.2 58.1,141.6 58.1,137.9 			"/>
			<polygon class="st3" points="83.3,105.5 89.6,101.8 89.6,105.5 83.3,109.2 			"/>
			<polygon class="st4" points="89,102.2 89,105.2 83.3,108.4 83.3,109.2 89.6,105.5 89.6,101.8 			"/>
			<polygon class="st3" points="94.5,99 100.8,95.4 100.8,99 94.5,102.7 			"/>
			<polygon class="st4" points="100.1,95.8 100.1,98.7 94.5,102 94.5,102.7 100.8,99 100.8,95.4 			"/>
			<polygon class="st3" points="83.3,115.7 89.6,112 89.6,115.7 83.3,119.3 			"/>
			<polygon class="st4" points="89,112.4 89,115.3 83.3,118.6 83.3,119.3 89.6,115.7 89.6,112 			"/>
			<polygon class="st3" points="94.5,109.2 100.8,105.5 100.8,109.2 94.5,112.8 			"/>
			<polygon class="st4" points="100.1,105.9 100.1,108.8 94.5,112.1 94.5,112.8 100.8,109.2 100.8,105.5 			"/>
			<polygon class="st3" points="83.3,125.7 89.6,122 89.6,125.7 83.3,129.3 			"/>
			<polygon class="st4" points="89,122.4 89,125.4 83.3,128.6 83.3,129.3 89.6,125.7 89.6,122 			"/>
			<polygon class="st3" points="94.5,119.2 100.8,115.5 100.8,119.2 94.5,122.8 			"/>
			<polygon class="st4" points="100.1,115.9 100.1,118.9 94.5,122.1 94.5,122.8 100.8,119.2 100.8,115.5 			"/>
			<polygon class="st3" points="83.3,135.8 89.6,132.2 89.6,135.8 83.3,139.5 			"/>
			<polygon class="st4" points="89,132.5 89,135.5 83.3,138.8 83.3,139.5 89.6,135.8 89.6,132.2 			"/>
			<polygon class="st3" points="94.5,129.3 100.8,125.7 100.8,129.3 94.5,133 			"/>
			<polygon class="st4" points="100.1,126.1 100.1,129 94.5,132.3 94.5,133 100.8,129.3 100.8,125.7 			"/>
			<polygon class="st3" points="83.3,146 89.6,142.3 89.6,146 83.3,149.6 			"/>
			<polygon class="st4" points="89,142.7 89,145.6 83.3,148.9 83.3,149.6 89.6,146 89.6,142.3 			"/>
			<polygon class="st3" points="94.5,139.5 100.8,135.8 100.8,139.5 94.5,143.1 			"/>
			<polygon class="st4" points="100.1,136.2 100.1,139.2 94.5,142.4 94.5,143.1 100.8,139.5 100.8,135.8 			"/>
			<polygon class="st3" points="105.7,92.6 112,88.9 112,92.6 105.7,96.2 			"/>
			<polygon class="st4" points="111.3,89.3 111.3,92.2 105.7,95.5 105.7,96.2 112,92.6 112,88.9 			"/>
			<polygon class="st3" points="116.8,86.1 123.1,82.4 123.1,86.1 116.8,89.7 			"/>
			<polygon class="st4" points="122.5,82.8 122.5,85.7 116.8,89 116.8,89.7 123.1,86.1 123.1,82.4 			"/>
			<polygon class="st3" points="50.4,86 56.7,82.3 56.7,86 50.4,89.6 			"/>
			<polygon class="st4" points="56.1,82.7 56.1,85.7 50.4,88.9 50.4,89.6 56.7,86 56.7,82.3 			"/>
			<polygon class="st3" points="61.6,79.5 67.9,75.8 67.9,79.5 61.6,83.1 			"/>
			<polygon class="st4" points="67.3,76.2 67.3,79.2 61.6,82.4 61.6,83.1 67.9,79.5 67.9,75.8 			"/>
			<polygon class="st3" points="72.8,73 79.1,69.3 79.1,73 72.8,76.6 			"/>
			<polygon class="st4" points="78.4,69.7 78.4,72.7 72.8,75.9 72.8,76.6 79.1,73 79.1,69.3 			"/>
			<polygon class="st3" points="84,66.5 90.3,62.8 90.3,66.5 84,70.2 			"/>
			<polygon class="st4" points="89.6,63.2 89.6,66.2 84,69.4 84,70.2 90.3,66.5 90.3,62.8 			"/>
			<polygon class="st3" points="95.2,60.1 101.5,56.4 101.5,60.1 95.2,63.7 			"/>
			<polygon class="st4" points="100.8,56.8 100.8,59.7 95.2,63 95.2,63.7 101.5,60.1 101.5,56.4 			"/>
			<polygon class="st3" points="106.3,53.6 112.6,49.9 112.6,53.6 106.3,57.2 			"/>
			<polygon class="st4" points="112,50.3 112,53.2 106.3,56.5 106.3,57.2 112.6,53.6 112.6,49.9 			"/>
			<polygon class="st3" points="105.7,102.7 112,99 112,102.7 105.7,106.3 			"/>
			<polygon class="st4" points="111.3,99.4 111.3,102.4 105.7,105.6 105.7,106.3 112,102.7 112,99 			"/>
			<polygon class="st3" points="116.8,96.2 123.1,92.5 123.1,96.2 116.8,99.8 			"/>
			<polygon class="st4" points="122.5,92.9 122.5,95.9 116.8,99.1 116.8,99.8 123.1,96.2 123.1,92.5 			"/>
			<polygon class="st3" points="105.7,112.7 112,109 112,112.7 105.7,116.3 			"/>
			<polygon class="st4" points="111.3,109.4 111.3,112.4 105.7,115.6 105.7,116.3 112,112.7 112,109 			"/>
			<polygon class="st3" points="116.8,106.2 123.1,102.6 123.1,106.2 116.8,109.9 			"/>
			<polygon class="st4" points="122.5,103 122.5,105.9 116.8,109.2 116.8,109.9 123.1,106.2 123.1,102.6 			"/>
			<polygon class="st3" points="105.7,122.9 112,119.2 112,122.9 105.7,126.5 			"/>
			<polygon class="st4" points="111.3,119.6 111.3,122.5 105.7,125.8 105.7,126.5 112,122.9 112,119.2 			"/>
			<polygon class="st3" points="116.8,116.4 123.1,112.7 123.1,116.4 116.8,120 			"/>
			<polygon class="st4" points="122.5,113.1 122.5,116.1 116.8,119.3 116.8,120 123.1,116.4 123.1,112.7 			"/>
			<polygon class="st3" points="105.7,133 112,129.3 112,133 105.7,136.6 			"/>
			<polygon class="st4" points="111.3,129.7 111.3,132.7 105.7,135.9 105.7,136.6 112,133 112,129.3 			"/>
			<polygon class="st3" points="116.8,126.5 123.1,122.8 123.1,126.5 116.8,130.1 			"/>
			<polygon class="st4" points="122.5,123.2 122.5,126.2 116.8,129.4 116.8,130.1 123.1,126.5 123.1,122.8 			"/>
			<polygon class="st3" points="40.4,85 34.1,81.3 34.1,85 40.4,88.6 			"/>
			<polygon class="st4" points="34.8,81.7 34.8,84.7 40.4,87.9 40.4,88.6 34.1,85 34.1,81.3 			"/>
			<polygon class="st3" points="29.3,78.5 23,74.8 23,78.5 29.3,82.1 			"/>
			<polygon class="st4" points="23.6,75.2 23.6,78.2 29.3,81.4 29.3,82.1 23,78.5 23,74.8 			"/>
			<polygon class="st3" points="40.4,95.1 34.1,91.5 34.1,95.1 40.4,98.8 			"/>
			<polygon class="st4" points="34.8,91.8 34.8,94.8 40.4,98 40.4,98.8 34.1,95.1 34.1,91.5 			"/>
			<polygon class="st3" points="29.3,88.7 23,85 23,88.7 29.3,92.3 			"/>
			<polygon class="st4" points="23.6,85.3 23.6,88.3 29.3,91.6 29.3,92.3 23,88.7 23,85 			"/>
			<polygon class="st3" points="40.4,105.2 34.1,101.5 34.1,105.2 40.4,108.8 			"/>
			<polygon class="st4" points="34.8,101.9 34.8,104.8 40.4,108.1 40.4,108.8 34.1,105.2 34.1,101.5 			"/>
			<polygon class="st3" points="29.3,98.7 23,95 23,98.7 29.3,102.3 			"/>
			<polygon class="st4" points="23.6,95.4 23.6,98.4 29.3,101.6 29.3,102.3 23,98.7 23,95 			"/>
			<polygon class="st3" points="40.4,115.3 34.1,111.6 34.1,115.3 40.4,118.9 			"/>
			<polygon class="st4" points="34.8,112 34.8,115 40.4,118.2 40.4,118.9 34.1,115.3 34.1,111.6 			"/>
			<polygon class="st3" points="29.3,108.8 23,105.1 23,108.8 29.3,112.4 			"/>
			<polygon class="st4" points="23.6,105.5 23.6,108.5 29.3,111.7 29.3,112.4 23,108.8 23,105.1 			"/>
			<polygon class="st3" points="40.4,125.4 34.1,121.8 34.1,125.4 40.4,129.1 			"/>
			<polygon class="st4" points="34.8,122.1 34.8,125.1 40.4,128.3 40.4,129.1 34.1,125.4 34.1,121.8 			"/>
			<polygon class="st3" points="29.3,119 23,115.3 23,119 29.3,122.6 			"/>
			<polygon class="st4" points="23.6,115.7 23.6,118.6 29.3,121.9 29.3,122.6 23,119 23,115.3 			"/>
			<polygon class="st3" points="40.4,135.6 34.1,131.9 34.1,135.6 40.4,139.2 			"/>
			<polygon class="st4" points="34.8,132.3 34.8,135.2 40.4,138.5 40.4,139.2 34.1,135.6 34.1,131.9 			"/>
			<polygon class="st3" points="29.3,129.1 23,125.4 23,129.1 29.3,132.7 			"/>
			<polygon class="st4" points="23.6,125.8 23.6,128.8 29.3,132 29.3,132.7 23,129.1 23,125.4 			"/>
			<polygon class="st3" points="34.1,147.3 34.1,137.9 29.3,135.1 29.3,144.5 			"/>
			<path class="st10" d="M60.1,14c0,3.2,2.6,5.8,5.8,5.8s5.8-2.6,5.8-5.8c0-3.2-2.6-5.8-5.8-5.8S60.1,10.8,60.1,14L60.1,14z"/>
			<path class="st11" d="M57.4,14c0,4.7,3.8,8.5,8.4,8.5s8.4-3.8,8.4-8.4c0-4.7-3.8-8.5-8.4-8.5l0,0C61.2,5.6,57.4,9.3,57.4,14z"/>
			<path class="st12" d="M62.7,14c0,1.8,1.4,3.2,3.2,3.2c1.8,0,3.2-1.4,3.2-3.2s-1.4-3.2-3.2-3.2c0,0,0,0,0,0
				C64.1,10.8,62.7,12.2,62.7,14z"/>
			<polygon class="st13" points="65.9,52.2 65.1,51.7 65.1,27.9 65.9,28.3 			"/>
			<polygon class="st14" points="65.9,52.2 66.7,51.8 66.7,27.8 65.9,28.3 			"/>
			<polygon class="st13" points="65.9,58.1 65.1,57.6 65.1,33.8 65.9,34.2 			"/>
			<polygon class="st14" points="65.9,58.1 66.7,57.6 66.7,33.7 65.9,34.2 			"/>
			<polygon class="st13" points="71,55.2 70.1,54.7 70.1,30.8 71,31.3 			"/>
			<polygon class="st14" points="71,55.2 71.8,54.7 71.8,30.8 71,31.3 			"/>
			<polygon class="st13" points="60.7,55.1 59.9,54.6 59.9,30.8 60.7,31.2 			"/>
			<polygon class="st14" points="60.7,55.1 61.6,54.7 61.6,30.8 60.7,31.2 			"/>
			<polygon class="st14" points="71.8,29.4 65.9,32.8 65.9,34.3 71.8,30.8 			"/>
			<polygon class="st13" points="59.9,30.8 59.9,29.3 65.9,32.8 65.9,34.2 			"/>
			<path class="st15" d="M59.9,29.3l6,3.4l5.9-3.4L66,25.9L59.9,29.3z M61.7,29.3l4.2-2.5l4.3,2.5l-4.3,2.5L61.7,29.3z"/>
			<polygon class="st14" points="65.9,26.9 65.9,28.3 62.9,30.1 61.6,29.3 			"/>
			<polygon class="st14" points="65.9,28.3 68.9,30.1 70.1,29.3 65.9,26.9 			"/>
			<polygon class="st15" points="70.1,37.7 71,38.2 66.7,40.6 66.7,39.6 			"/>
			<polygon class="st14" points="66.7,40.6 66.7,41.6 71,39.2 71,38.2 			"/>
			<polygon class="st15" points="61.6,37.7 60.7,38.2 65.1,40.7 65.1,39.7 			"/>
			<polygon class="st14" points="65.1,40.7 65.1,41.7 60.7,39.2 60.7,38.2 			"/>
			<polygon class="st15" points="70.1,36.7 66.7,34.7 66.7,35.7 70.1,37.7 			"/>
			<polygon class="st14" points="70.1,37.7 69.3,38.2 66.7,36.7 66.7,35.7 			"/>
			<polygon class="st14" points="61.6,37.7 65,35.7 65,36.7 62.5,38.2 			"/>
			<polygon class="st15" points="65,35.7 65,34.7 61.6,36.7 61.6,37.7 			"/>
			<polygon class="st15" points="70.1,46 71,46.5 66.7,49 66.7,48 			"/>
			<polygon class="st14" points="66.7,49 66.7,50 71,47.5 71,46.5 			"/>
			<polygon class="st15" points="61.6,46 60.7,46.5 65.1,49 65.1,48 			"/>
			<polygon class="st14" points="65.1,49 65.1,50 60.7,47.5 60.7,46.5 			"/>
			<polygon class="st15" points="70.1,45 66.7,43.1 66.7,44 70.1,46 			"/>
			<polygon class="st14" points="70.1,46 69.3,46.5 66.7,45 66.7,44 			"/>
			<polygon class="st14" points="61.6,46 65,44 65,45 62.5,46.5 			"/>
			<polygon class="st15" points="65,44 65,43 61.6,45 61.6,46 			"/>
			<polygon class="st14" points="65.9,32.8 65.9,15.2 66.7,32.3 			"/>
			<polygon class="st13" points="65.9,32.8 65.1,32.3 65.9,15.2 			"/>
			<polygon class="st14" points="71.8,29.4 65.9,15.2 71,29.8 			"/>
			<polygon class="st13" points="65.9,15.2 59.9,29.3 60.7,29.8 			"/>
			<polygon class="st13" points="71,29.8 70.1,29.3 65.9,15.2 			"/>
			<polygon class="st14" points="65.9,15.2 60.7,29.8 61.6,29.3 			"/>
			<path class="st13" d="M64.6,14c0,0.7,0.6,1.2,1.2,1.2s1.2-0.6,1.2-1.2s-0.6-1.2-1.2-1.2l0,0C65.2,12.8,64.6,13.3,64.6,14z"/>
		</g>
	</g>
</g>
</svg>
