<?xml version="1.0" encoding="utf-8"?>
<!-- Generator: Adobe Illustrator 22.1.0, SVG Export Plug-In . SVG Version: 6.00 Build 0)  -->
<svg version="1.1" id="Capa_1" xmlns="http://www.w3.org/2000/svg" xmlns:xlink="http://www.w3.org/1999/xlink" x="0px" y="0px"
	 viewBox="0 0 204 333" style="enable-background:new 0 0 204 333;" xml:space="preserve">
<style type="text/css">
	.st0{fill:#CFCFCF;}
	.st1{fill:#BABABA;}
	.st2{fill:#8C8C8C;}
	.st3{fill:#C7C7C7;}
	.st4{fill:#FFA877;}
	.st5{opacity:0.1;enable-background:new    ;}
	.st6{fill:#FF9654;}
	.st7{opacity:0.1;fill:#FFFFFF;enable-background:new    ;}
	.st8{opacity:0.15;fill:#FFFFFF;enable-background:new    ;}
	.st9{opacity:0.2;fill:#FFFFFF;enable-background:new    ;}
	.st10{fill:#808080;}
	.st11{fill:#FFFFFF;}
	.st12{fill:#1B1B1B;}
	.st13{fill:#E47330;}
	.st14{fill:#E68057;}
	.st15{fill:#212121;}
	.st16{fill:#E5804F;}
	.st17{fill:#B1B1B1;}
	.st18{fill:#949494;}
	.st19{fill:#989898;}
	.st20{fill:#A7A7A7;}
	.st21{fill:#9D9D9D;}
	.st22{fill:#0D0D0D;}
	.st23{fill:#FFA16B;}
	.st24{fill:#FFAD7F;}
	.st25{fill:#FFA46E;}
	.st26{fill:#C1C1C1;}
	.st27{fill:#D6D6D6;}
	.st28{fill:#D1D1D1;}
	.st29{fill:#FFC298;}
</style>
<title>img__hacemos--Recurso 91</title>
<g>
	<g id="Capa_2_1_">
		<g id="Capa_13">
			
				<image style="overflow:visible;opacity:0.5;enable-background:new    ;" width="200" height="333" xlink:href="B4E35CE32EA0B60.png"  transform="matrix(1 0 0 1 4 0)">
			</image>
			<polygon class="st0" points="27.1,248.2 90.9,285 184.2,231.2 120.3,194.3 			"/>
			<polygon class="st1" points="90.9,285 90.9,306.8 184.2,252.9 184.2,231.2 			"/>
			<polygon class="st2" points="90.9,285 90.9,306.8 27.1,269.9 27.1,248.2 			"/>
			<polygon class="st3" points="179.2,231.2 90.9,282.1 32.2,248.2 120.4,197.2 			"/>
			<polygon class="st2" points="16,259.6 14.2,258.5 120.4,197.2 179.2,231.2 177.4,232.2 120.4,199.3 			"/>
			<polygon class="st2" points="70.8,82.4 112.7,106.5 112.7,263 70.8,238.8 			"/>
			<polygon class="st1" points="112.7,106.5 164.3,76.7 164.3,233.2 112.7,263 			"/>
			<polygon class="st0" points="70.8,82.4 122.4,52.5 164.3,76.7 112.7,106.5 			"/>
			<polygon class="st4" points="115.9,113.5 161,87.5 161,231.3 115.9,257.4 			"/>
			<polygon class="st5" points="147.9,238.9 156.7,233.8 156.7,90 147.9,95 			"/>
			<polygon class="st5" points="122.5,253.6 142,242.3 142,98.4 122.5,109.7 			"/>
			<polygon class="st1" points="115.9,123.7 161.9,97.1 161.9,98.9 115.3,125.9 			"/>
			<polygon class="st1" points="115.9,135.8 161.9,109.2 161.9,111.1 115.3,138 			"/>
			<polygon class="st1" points="115.9,148 161.9,121.4 161.9,123.2 115.3,150.2 			"/>
			<polygon class="st1" points="115.9,160.1 161.9,133.5 161.9,135.4 115.3,162.3 			"/>
			<polygon class="st1" points="115.9,172.3 161.9,145.7 161.9,147.5 115.3,174.5 			"/>
			<polygon class="st1" points="115.9,184.4 161.9,157.8 161.9,159.7 115.3,186.6 			"/>
			<polygon class="st1" points="115.9,196.6 161.9,170 161.9,171.8 115.3,198.8 			"/>
			<polygon class="st1" points="115.9,208.7 161.9,182.1 161.9,184 115.3,210.9 			"/>
			<polygon class="st1" points="115.9,220.9 161.9,194.3 161.9,196.1 115.3,223.1 			"/>
			<polygon class="st1" points="115.9,233 161.9,206.4 161.9,208.3 115.3,235.2 			"/>
			<polygon class="st1" points="115.9,233 161.9,206.4 161.9,208.3 115.3,235.2 			"/>
			<polygon class="st1" points="115.9,245.2 161.9,218.6 161.9,220.4 115.3,247.4 			"/>
			<polygon class="st4" points="74.1,92.8 109.5,113.3 109.5,257.3 74.1,236.9 			"/>
			<polygon class="st5" points="90.6,246.4 90.6,102.4 77.8,95 77.8,239.1 			"/>
			<polygon class="st5" points="96.7,105.9 94.1,104.4 94.1,248.4 96.7,250 			"/>
			<polygon class="st5" points="107.1,111.9 100.5,108.1 100.5,252.2 107.1,256 			"/>
			<polygon class="st2" points="111.1,124.7 72.4,102.3 72.4,104.1 111.1,126.5 			"/>
			<polygon class="st2" points="111.1,136.8 72.4,114.4 72.4,116.2 111.1,138.6 			"/>
			<polygon class="st2" points="111.1,148.8 72.4,126.5 72.4,128.3 111.1,150.6 			"/>
			<polygon class="st2" points="111.1,160.9 72.4,138.6 72.4,140.3 111.1,162.7 			"/>
			<polygon class="st2" points="111.1,173.1 72.4,150.7 72.4,152.5 111.1,174.9 			"/>
			<polygon class="st2" points="111.1,185.1 72.4,162.8 72.4,164.6 111.1,186.9 			"/>
			<polygon class="st2" points="111.1,197.1 72.4,174.8 72.4,176.6 111.1,198.9 			"/>
			<polygon class="st2" points="111.1,209.2 72.4,186.9 72.4,188.6 111.1,211 			"/>
			<polygon class="st2" points="111.1,221.3 72.4,198.9 72.4,200.7 111.1,223.1 			"/>
			<polygon class="st2" points="111.1,233.3 72.4,211 72.4,212.8 111.1,235.2 			"/>
			<polygon class="st2" points="111.1,245.6 72.4,223.2 72.4,225.5 111.1,247.8 			"/>
			<polygon class="st6" points="161,87.5 160.4,87.8 160.4,97.3 115.9,122.9 115.9,123.7 161,97.7 			"/>
			<polygon class="st6" points="161,99.6 160.4,99.9 160.4,109.4 115.9,135 115.9,135.8 161,109.8 			"/>
			<polygon class="st6" points="161,111.7 160.4,112.1 160.4,121.5 115.9,147.2 115.9,147.9 161,121.9 			"/>
			<polygon class="st6" points="161,123.9 160.4,124.2 160.4,133.7 115.9,159.3 115.9,160.1 161,134.1 			"/>
			<polygon class="st6" points="161,136 160.4,136.3 160.4,145.8 115.9,171.4 115.9,172.2 161,146.1 			"/>
			<polygon class="st6" points="161,148.1 160.4,148.5 160.4,157.9 115.9,183.6 115.9,184.3 161,158.3 			"/>
			<polygon class="st6" points="161,160.3 160.4,160.7 160.4,170.1 115.9,195.8 115.9,196.5 161,170.5 			"/>
			<polygon class="st6" points="161,172.4 160.4,172.8 160.4,182.2 115.9,207.9 115.9,208.6 161,182.6 			"/>
			<polygon class="st6" points="161,184.6 160.4,185 160.4,194.4 115.9,220.1 115.9,220.8 161,194.8 			"/>
			<polygon class="st6" points="161,196.8 160.4,197.2 160.4,206.6 115.9,232.2 115.9,233 161,207 			"/>
			<polygon class="st6" points="161,208.8 160.4,209.2 160.4,218.7 115.9,244.3 115.9,245.1 161,219 			"/>
			<polygon class="st6" points="161,221.1 160.4,221.4 160.4,230.9 115.9,256.5 115.9,257.3 161,231.3 			"/>
			<polygon class="st6" points="74.8,93.2 74.1,92.8 74.1,103.3 109.5,123.7 109.5,122.9 74.8,102.9 			"/>
			<polygon class="st6" points="74.8,105.4 74.1,105 74.1,115.5 109.5,135.9 109.5,135.1 74.8,115.1 			"/>
			<polygon class="st6" points="74.8,117.6 74.1,117.2 74.1,127.7 109.5,148.1 109.5,147.3 74.8,127.3 			"/>
			<polygon class="st6" points="74.8,129.7 74.1,129.2 74.1,139.7 109.5,160.1 109.5,159.3 74.8,139.3 			"/>
			<polygon class="st6" points="74.8,141.7 74.1,141.3 74.1,151.8 109.5,172.2 109.5,171.4 74.8,151.4 			"/>
			<polygon class="st6" points="74.8,153.9 74.1,153.5 74.1,164 109.5,184.4 109.5,183.6 74.8,163.5 			"/>
			<polygon class="st6" points="74.8,166 74.1,165.6 74.1,176 109.5,196.5 109.5,195.7 74.8,175.6 			"/>
			<polygon class="st6" points="74.8,178 74.1,177.5 74.1,188 109.5,208.4 109.5,207.7 74.8,187.6 			"/>
			<polygon class="st6" points="74.8,190 74.1,189.6 74.1,200.1 109.5,220.5 109.5,219.7 74.8,199.7 			"/>
			<polygon class="st6" points="74.8,202.1 74.1,201.7 74.1,212.1 109.5,232.6 109.5,231.8 74.8,211.7 			"/>
			<polygon class="st6" points="74.8,214.1 74.1,213.7 74.1,224.2 109.5,244.6 109.5,243.8 74.8,223.8 			"/>
			<polygon class="st6" points="74.8,226.8 74.1,226.4 74.1,236.9 109.5,257.3 109.5,256.5 74.8,236.5 			"/>
			<polygon class="st3" points="77.2,82.4 122.6,56.2 158,76.7 112.7,102.9 			"/>
			<polygon class="st2" points="77.2,82.4 79.6,83.7 122.5,58.9 155.6,78.1 158,76.7 122.6,56.2 			"/>
			<polygon class="st0" points="88.3,65.1 122.1,45.6 145.2,58.9 111.3,78.4 			"/>
			<polygon class="st2" points="88.3,65.1 88.3,83.9 111.3,97.3 111.3,78.4 			"/>
			<polygon class="st1" points="145.2,58.9 145.2,77.7 111.3,97.3 111.3,78.4 			"/>
			<polygon class="st4" points="112.7,81.8 112.7,92.1 143.5,74.3 143.5,64 			"/>
			<polygon class="st6" points="142.6,64.5 142.6,73.8 112.7,91.2 112.7,92.1 143.5,74.3 143.5,64 			"/>
			<polygon class="st4" points="109.6,81.6 109.6,91.8 89.5,80.3 89.5,70 			"/>
			<polygon class="st6" points="90.2,79.7 90.2,70.4 89.5,70 89.5,80.3 109.6,91.8 109.6,90.8 			"/>
			<polygon class="st5" points="106,79.5 103.2,77.9 103.2,88.1 106,89.8 			"/>
			<polygon class="st5" points="92.5,82 99.5,86.1 99.5,75.8 92.5,71.7 			"/>
			<polygon class="st5" points="141,65.5 135.8,68.4 135.8,78.7 141,75.8 			"/>
			<polygon class="st5" points="115.9,90.2 132.6,80.6 132.6,70.3 115.9,79.9 			"/>
			<circle class="st7" cx="114.6" cy="15.3" r="6.4"/>
			<circle class="st8" cx="114.6" cy="15.3" r="9.4"/>
			<circle class="st9" cx="114.6" cy="15.3" r="3.6"/>
			<polygon class="st3" points="114.5,57.9 115.5,57.3 115.5,30.8 114.5,31.3 			"/>
			<polygon class="st1" points="114.5,57.9 113.6,57.3 113.6,30.8 114.5,31.3 			"/>
			<polygon class="st3" points="114.5,64.4 115.5,63.9 115.5,37.3 114.5,37.8 			"/>
			<polygon class="st1" points="114.5,64.4 113.6,63.9 113.6,37.3 114.5,37.8 			"/>
			<polygon class="st3" points="108.9,61.2 109.8,60.6 109.8,34.1 108.9,34.6 			"/>
			<polygon class="st1" points="108.9,61.2 108,60.6 108,34 108.9,34.6 			"/>
			<polygon class="st3" points="120.3,61.1 121.2,60.5 121.2,34 120.3,34.5 			"/>
			<polygon class="st1" points="120.3,61.1 119.3,60.6 119.3,34 120.3,34.5 			"/>
			<polygon class="st1" points="108,32.4 114.6,36.2 114.6,37.9 108,34 			"/>
			<polygon class="st3" points="121.2,34 121.2,32.4 114.6,36.2 114.6,37.8 			"/>
			<path class="st0" d="M114.6,28.6l-6.6,3.8l6.6,3.8l6.6-3.8L114.6,28.6z M114.6,35.2l-4.7-2.8l4.8-2.8l4.7,2.7L114.6,35.2z"/>
			<polygon class="st1" points="114.6,29.6 114.6,31.3 117.9,33.2 119.3,32.4 			"/>
			<polygon class="st1" points="114.6,31.3 111.2,33.2 109.8,32.4 114.6,29.6 			"/>
			<polygon class="st0" points="109.8,41.7 108.9,42.2 113.6,45 113.6,43.9 			"/>
			<polygon class="st1" points="113.6,45 113.6,46.1 108.9,43.4 108.9,42.2 			"/>
			<polygon class="st0" points="119.3,41.7 120.3,42.2 115.5,45 115.5,43.9 			"/>
			<polygon class="st1" points="115.5,45 115.5,46.1 120.3,43.4 120.3,42.2 			"/>
			<polygon class="st0" points="109.8,40.6 113.6,38.4 113.6,39.5 109.8,41.7 			"/>
			<polygon class="st1" points="109.8,41.7 110.8,42.2 113.6,40.6 113.6,39.5 			"/>
			<polygon class="st1" points="119.3,41.7 115.5,39.5 115.5,40.6 118.3,42.2 			"/>
			<polygon class="st0" points="115.5,39.5 115.5,38.3 119.3,40.6 119.3,41.7 			"/>
			<polygon class="st0" points="109.8,50.9 108.9,51.5 113.6,54.2 113.6,53.1 			"/>
			<polygon class="st1" points="113.6,54.2 113.6,55.4 108.9,52.6 108.9,51.5 			"/>
			<polygon class="st0" points="119.3,50.9 120.3,51.5 115.5,54.3 115.5,53.2 			"/>
			<polygon class="st1" points="115.5,54.3 115.5,55.4 120.3,52.6 120.3,51.5 			"/>
			<polygon class="st0" points="109.8,49.9 113.6,47.7 113.6,48.7 109.8,50.9 			"/>
			<polygon class="st1" points="109.8,50.9 110.8,51.5 113.6,49.8 113.6,48.7 			"/>
			<polygon class="st1" points="119.3,50.9 115.5,48.8 115.5,49.9 118.3,51.5 			"/>
			<polygon class="st0" points="115.5,48.8 115.5,47.6 119.3,49.8 119.3,50.9 			"/>
			<polygon class="st1" points="114.6,36.2 114.6,16.7 113.6,35.7 			"/>
			<polygon class="st3" points="114.6,36.2 115.5,35.7 114.6,16.7 			"/>
			<polygon class="st1" points="108,32.4 114.6,16.7 108.9,33 			"/>
			<polygon class="st3" points="114.6,16.7 121.2,32.4 120.3,32.9 			"/>
			<polygon class="st3" points="108.9,33 109.8,32.4 114.6,16.7 			"/>
			<polygon class="st1" points="114.6,16.7 120.3,32.9 119.3,32.4 			"/>
			<path class="st3" d="M115.9,15.3c0,0.8-0.6,1.4-1.4,1.4c-0.8,0-1.4-0.6-1.4-1.4s0.6-1.4,1.4-1.4c0,0,0,0,0,0
				C115.3,14,115.9,14.6,115.9,15.3z"/>
			<polygon class="st10" points="112.7,294.2 112.7,279.1 96.7,288.3 96.7,303.4 			"/>
			<polygon class="st2" points="110.4,280.4 110.4,293.3 96.7,301.2 96.7,303.4 112.7,294.2 112.7,279.1 			"/>
			<polygon class="st10" points="112.7,294.2 99.6,286.6 96.7,288.3 96.7,303.4 			"/>
			<polygon class="st10" points="179.2,255.8 179.2,240.7 163.2,249.9 163.2,265 			"/>
			<polygon class="st2" points="176.9,242 176.9,254.9 163.2,262.8 163.2,265 179.2,255.8 179.2,240.7 			"/>
			<polygon class="st10" points="179.2,255.8 166.1,248.2 163.2,249.9 163.2,265 			"/>
			<polygon class="st4" points="115.7,277.5 115.7,287.8 161,261.6 161,251.2 			"/>
			<polygon class="st6" points="160.4,251.5 160.4,261.3 115.7,287.2 115.7,287.8 161,261.6 161,251.2 			"/>
			<polygon class="st3" points="45.4,253.5 24.2,265.7 16.3,259.4 36.1,248 			"/>
			<polygon class="st2" points="9.7,258.2 9.7,273.2 79.4,313.4 12.2,259.7 			"/>
			<polygon class="st1" points="82,311.9 90.9,306.8 32.7,260.8 24.2,265.7 			"/>
			<polygon class="st1" points="82,311.9 90.9,306.8 32.7,260.8 24.2,265.7 			"/>
			<polygon class="st0" points="43.9,254.9 35.4,250 32.8,251.5 43.9,257.9 			"/>
			<polygon class="st2" points="32.7,260.8 32.8,251.5 44.6,258.3 			"/>
			<polygon class="st11" points="67.2,240.8 68.1,240.3 110.1,264.5 109.2,265.1 			"/>
			<polygon class="st11" points="51.1,250.1 52,249.5 94.1,273.8 93.1,274.3 			"/>
			<polygon class="st11" points="86.8,305.7 83.9,304.5 85,306.5 85.5,306.2 87.7,308.1 88.5,307.6 86.4,305.9 			"/>
			<polygon class="st11" points="80.7,309.2 83.6,310.4 82.5,308.5 82,308.7 79.7,306.9 79,307.4 81.1,309.1 			"/>
			<polygon class="st5" points="103.6,261.2 95.4,266 92.1,264.1 100.4,259.3 			"/>
			<path class="st12" d="M101.4,260.6c-0.5,0-0.9,0.3-1,0.8c-0.1,0.3,0,0.5,0.2,0.7l0,0l0.4,0.2v-0.2c0.4-0.1,0.8-0.3,0.9-0.8
				c0.1-0.3,0-0.6-0.3-0.7C101.5,260.6,101.4,260.6,101.4,260.6z"/>
			<path class="st12" d="M96.3,263.4c-0.5,0-0.9,0.3-1,0.8c-0.1,0.3,0,0.5,0.2,0.7l0,0l0.4,0.2v-0.2c0.4,0,0.8-0.3,0.9-0.8
				c0.1-0.3-0.1-0.6-0.4-0.7C96.4,263.4,96.4,263.4,96.3,263.4z"/>
			<path class="st13" d="M103.2,259.4v1c0,0.1,0,0.2-0.1,0.2l-7.9,4.6v-0.9l3-4l3.5-1.2L103.2,259.4z"/>
			<polygon class="st14" points="95.4,259.8 98.7,257.9 101.5,259.5 98.2,261.4 			"/>
			<polygon class="st15" points="95.4,259.8 94.6,261.2 97.4,262.9 98.2,261.4 			"/>
			<polygon class="st14" points="95.4,259.8 94.6,261.2 94.8,261.3 95.5,259.9 			"/>
			<polygon class="st14" points="98.2,261.4 97.4,262.9 97.3,262.8 98.1,261.3 			"/>
			<polygon class="st14" points="94.6,261.2 92.4,262.7 95.2,264.3 97.4,262.9 			"/>
			<polygon class="st16" points="99.4,258.3 100.4,257.8 103.2,259.4 102.2,260 101.4,259.5 			"/>
			<polygon class="st15" points="92.4,262.8 92.4,263.6 95.2,265.2 95.2,264.4 			"/>
			<polygon class="st15" points="98.2,261.5 97.8,262.5 102,260.1 101.4,259.7 			"/>
			<polygon class="st16" points="92.4,263.6 92.4,263.6 92.4,262.7 95.2,264.3 95.2,265.2 95.1,265.1 95.1,264.3 92.4,262.8 			"/>
			<polygon class="st1" points="92.4,263.3 92.3,263.4 95.2,265.1 95.4,264.9 95.3,264.8 95.2,265 92.4,263.4 			"/>
			<polygon class="st3" points="92.3,263.4 92.3,263.7 95.2,265.4 95.2,265.1 			"/>
			<polygon class="st1" points="95.2,265.4 95.4,265.3 95.4,264.9 95.2,265.1 			"/>
			<polygon class="st11" points="93,263.2 92.6,263 92.6,263.5 93,263.7 			"/>
			<polygon class="st17" points="92.6,263 92.5,262.9 92.5,263.4 92.6,263.5 			"/>
			<polygon class="st11" points="94.6,264.6 94.9,264.8 94.9,264.3 94.6,264.1 			"/>
			<polygon class="st17" points="94.9,264.8 95,264.9 95,264.4 94.9,264.3 			"/>
			<polygon class="st12" points="93,263.2 93,263.3 94.5,264.2 94.5,264.1 			"/>
			<polygon class="st12" points="93,263.4 93,263.5 94.5,264.3 94.5,264.2 			"/>
			<polygon class="st12" points="93,263.6 93,263.7 94.5,264.5 94.5,264.4 			"/>
			<rect x="99.7" y="260.5" class="st13" width="0.2" height="1"/>
			<path class="st15" d="M97.3,264.4c-0.1,0.4-0.5,0.7-1,0.8c-0.3,0-0.6-0.2-0.6-0.5c0-0.1,0-0.2,0-0.2c0.1-0.4,0.5-0.8,1-0.8
				c0.3,0,0.6,0.2,0.6,0.5C97.3,264.3,97.3,264.3,97.3,264.4z"/>
			<path class="st3" d="M96.9,264.4c-0.1,0.2-0.3,0.4-0.6,0.4c-0.2,0-0.3-0.1-0.3-0.3c0,0,0-0.1,0-0.1c0.1-0.2,0.3-0.4,0.6-0.4
				c0.2,0,0.3,0.1,0.3,0.3C97,264.3,97,264.4,96.9,264.4z"/>
			<path class="st18" d="M96.9,264.4c-0.1,0.2-0.2,0.4-0.5,0.4c-0.1,0-0.3-0.1-0.3-0.2c0,0,0-0.1,0-0.1c0.1-0.2,0.2-0.4,0.5-0.4
				c0.1,0,0.3,0.1,0.3,0.2C96.9,264.3,96.9,264.4,96.9,264.4z"/>
			<path class="st1" d="M96.8,264.3c0-0.1,0-0.2,0-0.2c0,0-0.1,0-0.1,0c-0.2,0-0.4,0.2-0.5,0.4c0,0.1,0,0.2,0,0.2c0,0,0.1,0,0.1,0
				C96.5,264.7,96.7,264.5,96.8,264.3z"/>
			<path class="st18" d="M96.7,264.4c0,0.1-0.1,0.2-0.2,0.2c-0.1,0-0.1,0-0.1-0.1c0,0,0,0,0,0c0-0.1,0.1-0.2,0.2-0.2
				C96.6,264.2,96.7,264.3,96.7,264.4C96.7,264.4,96.7,264.4,96.7,264.4z"/>
			<path class="st15" d="M102.3,261.6c-0.1,0.4-0.5,0.7-1,0.8c-0.3,0-0.6-0.2-0.6-0.5c0-0.1,0-0.2,0-0.2c0.1-0.4,0.5-0.8,1-0.8
				c0.3,0,0.6,0.2,0.6,0.6C102.3,261.4,102.3,261.5,102.3,261.6z"/>
			<path class="st3" d="M101.9,261.6c-0.1,0.2-0.3,0.4-0.6,0.4c-0.2,0-0.3-0.1-0.3-0.3c0,0,0-0.1,0-0.1c0.1-0.2,0.3-0.4,0.5-0.4
				c0.2,0,0.3,0.1,0.3,0.3C102,261.5,102,261.5,101.9,261.6z"/>
			<path class="st18" d="M101.9,261.6c-0.1,0.2-0.3,0.4-0.5,0.4c-0.1,0-0.3-0.1-0.3-0.2c0,0,0-0.1,0-0.1c0.1-0.2,0.2-0.4,0.5-0.4
				C101.8,261.2,102,261.3,101.9,261.6C102,261.5,102,261.5,101.9,261.6z"/>
			<path class="st1" d="M101.8,261.5c0-0.1,0-0.2,0-0.2c0,0-0.1,0-0.1,0c-0.2,0-0.4,0.2-0.5,0.4c0,0.1,0,0.2,0,0.2c0,0,0.1,0,0.1,0
				C101.6,261.8,101.8,261.7,101.8,261.5z"/>
			<path class="st18" d="M101.7,261.6c0,0.1-0.1,0.2-0.2,0.2c-0.1,0-0.1-0.1-0.1-0.1c0,0,0,0,0,0c0-0.1,0.1-0.2,0.2-0.2
				C101.7,261.4,101.7,261.5,101.7,261.6C101.7,261.5,101.7,261.6,101.7,261.6z"/>
			<polygon class="st5" points="93.4,273.8 85.2,278.6 81.9,276.7 90.2,272 			"/>
			<path class="st12" d="M91.2,273.2c-0.5,0-0.9,0.3-1,0.8c-0.1,0.3,0,0.5,0.2,0.7l0,0l0.4,0.2v-0.2c0.4-0.1,0.8-0.3,0.9-0.8
				c0.1-0.3-0.1-0.6-0.4-0.7C91.3,273.2,91.2,273.2,91.2,273.2z"/>
			<path class="st12" d="M86.1,276c-0.5,0-0.9,0.3-1,0.8c-0.1,0.3,0,0.5,0.2,0.7l0,0l0.4,0.2v-0.2c0.4-0.1,0.8-0.3,0.9-0.8
				c0.1-0.3,0-0.6-0.3-0.7C86.3,276,86.2,276,86.1,276z"/>
			<path class="st13" d="M93,272v1c0,0.1,0,0.2-0.1,0.2l-7.9,4.6v-0.9l3-4l3.5-1.2L93,272z"/>
			<polygon class="st14" points="85.2,272.4 88.5,270.5 91.3,272.1 88,274 			"/>
			<polygon class="st15" points="85.2,272.4 84.4,273.9 87.2,275.5 88,274 			"/>
			<polygon class="st14" points="85.2,272.4 84.4,273.9 84.6,274 85.3,272.5 			"/>
			<polygon class="st14" points="88,274 87.2,275.5 87.1,275.4 87.9,274 			"/>
			<polygon class="st14" points="84.4,273.9 82.2,275.3 85,276.9 87.2,275.5 			"/>
			<polygon class="st16" points="89.2,271 90.2,270.4 93,272 92,272.6 91.2,272.1 			"/>
			<polygon class="st15" points="82.2,275.4 82.2,276.2 85,277.8 85,277 			"/>
			<polygon class="st15" points="88.1,274.1 87.6,275.2 91.8,272.7 91.2,272.3 			"/>
			<polygon class="st16" points="82.2,276.2 82.2,276.2 82.2,275.3 85,276.9 85,277.8 84.9,277.8 84.9,277 82.2,275.4 			"/>
			<polygon class="st1" points="82.2,276 82.1,276 85,277.7 85.3,277.5 85.1,277.5 85,277.6 82.2,276 			"/>
			<polygon class="st3" points="82.1,276 82.1,276.3 85,278.1 85,277.7 			"/>
			<polygon class="st1" points="85,278.1 85.2,277.9 85.3,277.5 85,277.7 			"/>
			<polygon class="st11" points="82.8,275.8 82.4,275.6 82.4,276.1 82.8,276.3 			"/>
			<polygon class="st17" points="82.4,275.6 82.3,275.5 82.3,276 82.4,276.1 			"/>
			<polygon class="st11" points="84.4,277.2 84.7,277.4 84.7,276.9 84.4,276.7 			"/>
			<polygon class="st17" points="84.7,277.4 84.8,277.5 84.8,277 84.7,276.9 			"/>
			<polygon class="st12" points="82.8,275.8 82.8,276 84.3,276.8 84.3,276.7 			"/>
			<polygon class="st12" points="82.8,276 82.8,276.1 84.3,277 84.3,276.8 			"/>
			<polygon class="st12" points="82.8,276.2 82.8,276.3 84.3,277.1 84.3,277 			"/>
			<rect x="89.6" y="273.1" class="st13" width="0.2" height="1"/>
			<path class="st15" d="M87.1,277c-0.1,0.4-0.5,0.8-1,0.8c-0.3,0-0.6-0.2-0.6-0.5c0-0.1,0-0.1,0-0.2c0.1-0.4,0.5-0.8,1-0.8
				c0.3,0,0.6,0.2,0.6,0.5C87.1,276.9,87.1,277,87.1,277z"/>
			<path class="st3" d="M86.8,277c-0.1,0.2-0.3,0.4-0.6,0.4c-0.2,0-0.3-0.1-0.3-0.3c0,0,0-0.1,0-0.1c0.1-0.2,0.3-0.4,0.6-0.4
				c0.2,0,0.3,0.1,0.3,0.3C86.8,277,86.8,277,86.8,277z"/>
			<path class="st18" d="M86.7,277c-0.1,0.2-0.3,0.4-0.5,0.4c-0.1,0-0.3-0.1-0.3-0.2c0,0,0-0.1,0-0.1c0.1-0.2,0.2-0.4,0.5-0.4
				C86.6,276.7,86.7,276.8,86.7,277C86.7,277,86.7,277,86.7,277z"/>
			<path class="st1" d="M86.6,276.9c0-0.1,0-0.2,0-0.2c0,0-0.1,0-0.1,0c-0.2,0-0.4,0.2-0.5,0.4c0,0.1,0,0.2,0,0.2c0,0,0.1,0,0.1,0
				C86.3,277.3,86.5,277.1,86.6,276.9z"/>
			<path class="st18" d="M86.5,277c0,0.1-0.1,0.2-0.2,0.2c-0.1,0-0.1-0.1-0.1-0.1c0,0,0,0,0,0c0-0.1,0.1-0.2,0.2-0.2
				C86.4,276.9,86.5,276.9,86.5,277C86.5,277,86.5,277,86.5,277z"/>
			<path class="st15" d="M92.1,274.2c-0.1,0.4-0.5,0.8-1,0.8c-0.3,0-0.6-0.2-0.6-0.5c0-0.1,0-0.1,0-0.2c0.1-0.4,0.5-0.7,1-0.8
				c0.3,0,0.6,0.2,0.6,0.5C92.1,274.1,92.1,274.1,92.1,274.2z"/>
			<path class="st3" d="M91.8,274.2c-0.1,0.2-0.3,0.4-0.6,0.4c-0.2,0-0.3-0.1-0.3-0.3c0,0,0-0.1,0-0.1c0.1-0.2,0.3-0.4,0.6-0.4
				c0.2,0,0.3,0.1,0.3,0.3C91.8,274.1,91.8,274.2,91.8,274.2z"/>
			<path class="st18" d="M91.7,274.2c-0.1,0.2-0.2,0.4-0.5,0.4c-0.2,0-0.3-0.1-0.3-0.3c0,0,0-0.1,0-0.1c0.1-0.2,0.3-0.3,0.5-0.4
				c0.1,0,0.3,0.1,0.3,0.2C91.7,274.1,91.7,274.2,91.7,274.2z"/>
			<path class="st1" d="M91.6,274.1c0-0.1,0-0.2,0-0.2c0,0-0.1,0-0.1,0c-0.2,0-0.4,0.2-0.5,0.4c0,0.1,0,0.2,0,0.2c0,0,0.1,0,0.1,0
				C91.4,274.5,91.6,274.3,91.6,274.1z"/>
			<path class="st18" d="M91.5,274.2c0,0.1-0.1,0.2-0.2,0.2c-0.1,0-0.1,0-0.1-0.1c0,0,0,0,0-0.1c0-0.1,0.1-0.2,0.2-0.2
				C91.5,274,91.5,274.1,91.5,274.2C91.5,274.2,91.5,274.2,91.5,274.2z"/>
			<polygon class="st5" points="73.7,262.5 65.5,267.3 62.2,265.4 70.5,260.7 			"/>
			<path class="st12" d="M71.5,261.9c-0.5,0-0.9,0.3-1,0.8c-0.1,0.3,0,0.5,0.2,0.7l0,0l0.4,0.2v-0.2c0.4-0.1,0.8-0.4,0.9-0.8
				c0.1-0.3,0-0.6-0.3-0.7C71.6,261.9,71.5,261.9,71.5,261.9z"/>
			<path class="st12" d="M66.4,264.8c-0.5,0-0.9,0.3-1,0.8c-0.1,0.3,0,0.5,0.2,0.7l0,0l0.4,0.2v-0.2c0.4-0.1,0.8-0.3,0.9-0.8
				c0.1-0.3-0.1-0.6-0.4-0.7C66.5,264.8,66.5,264.8,66.4,264.8z"/>
			<path class="st19" d="M73.3,260.8v1c0,0.1,0,0.2-0.1,0.2l-7.9,4.6v-0.9l3-4l3.5-1.2L73.3,260.8z"/>
			<polygon class="st20" points="65.5,261.1 68.8,259.2 71.6,260.9 68.3,262.8 			"/>
			<polygon class="st15" points="65.5,261.1 64.8,262.6 67.5,264.2 68.3,262.8 			"/>
			<polygon class="st20" points="65.5,261.1 64.8,262.6 64.9,262.7 65.6,261.2 			"/>
			<polygon class="st20" points="68.3,262.8 67.5,264.2 67.4,264.1 68.2,262.7 			"/>
			<polygon class="st20" points="64.8,262.6 62.5,264 65.3,265.6 67.5,264.2 			"/>
			<polygon class="st21" points="69.5,259.7 70.5,259.1 73.3,260.7 72.3,261.3 71.6,260.8 			"/>
			<polygon class="st15" points="62.5,264.1 62.5,264.9 65.3,266.5 65.3,265.7 			"/>
			<polygon class="st15" points="68.4,262.8 67.9,263.9 72.1,261.4 71.5,261 			"/>
			<polygon class="st21" points="62.6,265 62.5,264.9 62.5,264 65.3,265.6 65.3,266.5 65.2,266.5 65.2,265.7 62.6,264.2 			"/>
			<polygon class="st1" points="62.5,264.7 62.4,264.8 65.3,266.4 65.6,266.3 65.4,266.2 65.3,266.3 62.5,264.7 			"/>
			<polygon class="st3" points="62.4,264.8 62.4,265.1 65.3,266.8 65.3,266.4 			"/>
			<polygon class="st1" points="65.3,266.8 65.5,266.6 65.6,266.3 65.3,266.4 			"/>
			<polygon class="st11" points="63.1,264.5 62.7,264.3 62.7,264.8 63.1,265 			"/>
			<polygon class="st17" points="62.7,264.3 62.6,264.2 62.6,264.8 62.7,264.8 			"/>
			<polygon class="st11" points="64.7,265.9 65,266.2 65,265.7 64.7,265.5 			"/>
			<polygon class="st17" points="65,266.2 65.1,266.2 65.1,265.7 65,265.7 			"/>
			<polygon class="st12" points="63.1,264.6 63.1,264.7 64.6,265.5 64.6,265.4 			"/>
			<polygon class="st12" points="63.1,264.8 63.1,264.8 64.6,265.7 64.6,265.6 			"/>
			<polygon class="st12" points="63.1,264.9 63.1,265 64.6,265.8 64.6,265.7 			"/>
			<rect x="69.8" y="261.9" class="st19" width="0.2" height="1"/>
			<path class="st15" d="M67.4,265.8c-0.1,0.4-0.5,0.8-1,0.8c-0.3,0-0.6-0.2-0.6-0.5c0-0.1,0-0.1,0-0.2c0.1-0.4,0.5-0.7,1-0.8
				c0.3,0,0.6,0.2,0.6,0.5C67.4,265.6,67.4,265.7,67.4,265.8z"/>
			<path class="st3" d="M67.1,265.8c-0.1,0.2-0.3,0.4-0.6,0.4c-0.2,0-0.3-0.1-0.3-0.3c0,0,0-0.1,0-0.1c0.1-0.2,0.3-0.4,0.6-0.4
				c0.2,0,0.3,0.1,0.3,0.3C67.1,265.7,67.1,265.7,67.1,265.8z"/>
			<path class="st18" d="M66.9,265.8c-0.1,0.2-0.2,0.4-0.5,0.4c-0.2,0-0.3-0.1-0.3-0.3c0,0,0-0.1,0-0.1c0.1-0.2,0.3-0.4,0.5-0.4
				c0.1,0,0.3,0.1,0.3,0.2C67,265.7,67,265.7,66.9,265.8z"/>
			<path class="st1" d="M66.9,265.6c0-0.1,0-0.2,0-0.2c0,0-0.1,0-0.1,0c-0.2,0-0.4,0.2-0.5,0.4c0,0.1,0,0.2,0,0.2c0,0,0.1,0,0.1,0
				C66.7,266,66.9,265.8,66.9,265.6z"/>
			<path class="st18" d="M66.8,265.8c0,0.1-0.1,0.2-0.2,0.2c-0.1,0-0.1,0-0.1-0.1c0,0,0,0,0-0.1c0-0.1,0.1-0.2,0.2-0.2
				C66.7,265.6,66.8,265.6,66.8,265.8C66.8,265.7,66.8,265.7,66.8,265.8z"/>
			<path class="st15" d="M72.4,262.9c-0.1,0.4-0.5,0.7-1,0.8c-0.3,0-0.6-0.2-0.6-0.5c0-0.1,0-0.2,0-0.2c0.1-0.4,0.5-0.8,1-0.8
				c0.3,0,0.6,0.2,0.6,0.6C72.5,262.8,72.4,262.9,72.4,262.9z"/>
			<path class="st3" d="M72.1,262.9c-0.1,0.2-0.3,0.4-0.6,0.4c-0.2,0-0.3-0.1-0.3-0.3c0,0,0-0.1,0-0.1c0.1-0.2,0.3-0.4,0.6-0.4
				c0.2,0,0.3,0.1,0.3,0.3C72.1,262.8,72.1,262.9,72.1,262.9z"/>
			<path class="st18" d="M72,262.9c-0.1,0.2-0.3,0.4-0.5,0.4c-0.1,0-0.3-0.1-0.3-0.2c0,0,0-0.1,0-0.1c0.1-0.2,0.2-0.4,0.5-0.4
				C71.9,262.6,72,262.7,72,262.9C72,262.9,72,262.9,72,262.9z"/>
			<path class="st1" d="M71.9,262.8c0-0.1,0-0.2,0-0.2c0,0-0.1,0-0.1,0c-0.2,0-0.4,0.2-0.5,0.4c0,0.1,0,0.2,0,0.2c0,0,0.1,0,0.1,0
				C71.7,263.2,71.9,263,71.9,262.8z"/>
			<path class="st18" d="M71.8,262.9c0,0.1-0.1,0.2-0.2,0.2c-0.1,0-0.1,0-0.1-0.1c0,0,0,0,0,0c0-0.1,0.1-0.2,0.2-0.2
				C71.8,262.8,71.8,262.8,71.8,262.9C71.8,262.9,71.8,262.9,71.8,262.9z"/>
			<polygon class="st5" points="92.6,254.8 84.4,259.6 81.1,257.7 89.3,253 			"/>
			<path class="st12" d="M90.3,254.2c-0.5,0-0.9,0.3-1,0.8c-0.1,0.3,0,0.5,0.2,0.7l0,0l0.4,0.2v-0.2c0.4,0,0.8-0.3,0.9-0.8
				c0.1-0.3-0.1-0.6-0.4-0.7C90.5,254.2,90.4,254.2,90.3,254.2z"/>
			<path class="st12" d="M85.3,257c-0.5,0-0.9,0.3-1,0.8c-0.1,0.3,0,0.5,0.2,0.7l0,0l0.4,0.2v-0.2c0.4-0.1,0.8-0.3,0.9-0.8
				c0.1-0.3-0.1-0.6-0.3-0.7C85.4,257,85.4,257,85.3,257z"/>
			<path d="M92.2,253v1c0,0.1,0,0.2-0.1,0.2l-7.9,4.6v-0.9l3-4l3.5-1.2L92.2,253z"/>
			<polygon class="st15" points="84.4,253.4 87.6,251.5 90.4,253.1 87.2,255 			"/>
			<polygon class="st12" points="84.4,253.4 83.6,254.9 86.4,256.5 87.2,255 			"/>
			<polygon class="st15" points="84.4,253.4 83.6,254.9 83.7,255 84.5,253.5 			"/>
			<polygon class="st15" points="87.2,255 86.4,256.5 86.3,256.4 87,255 			"/>
			<polygon class="st15" points="83.6,254.9 81.4,256.3 84.1,257.9 86.4,256.5 			"/>
			<polygon class="st22" points="88.4,252 89.4,251.4 92.2,253 91.2,253.6 90.4,253.1 			"/>
			<polygon class="st15" points="81.4,256.4 81.4,257.2 84.1,258.8 84.1,258 			"/>
			<polygon class="st12" points="87.2,255.1 86.7,256.2 91,253.7 90.4,253.3 			"/>
			<polygon class="st22" points="81.4,257.2 81.4,257.2 81.4,256.3 84.1,257.9 84.1,258.8 84.1,258.8 84.1,258 81.4,256.4 			"/>
			<polygon class="st1" points="81.4,257 81.2,257 84.1,258.7 84.4,258.5 84.3,258.5 84.1,258.6 81.4,257 			"/>
			<polygon class="st3" points="81.2,257 81.2,257.3 84.1,259.1 84.1,258.7 			"/>
			<polygon class="st1" points="84.1,259.1 84.4,258.9 84.4,258.5 84.1,258.7 			"/>
			<polygon class="st11" points="81.9,256.8 81.6,256.6 81.6,257.1 81.9,257.3 			"/>
			<polygon class="st17" points="81.6,256.6 81.5,256.5 81.5,257 81.6,257.1 			"/>
			<polygon class="st11" points="83.5,258.2 83.9,258.4 83.9,257.9 83.5,257.7 			"/>
			<polygon class="st17" points="83.9,258.4 84,258.5 84,258 83.9,257.9 			"/>
			<polygon class="st12" points="82,256.8 82,257 83.5,257.8 83.5,257.7 			"/>
			<polygon class="st12" points="82,257 82,257.1 83.5,258 83.5,257.8 			"/>
			<polygon class="st12" points="82,257.2 82,257.3 83.5,258.1 83.5,258 			"/>
			<rect x="88.7" y="254.1" width="0.2" height="1"/>
			<path class="st15" d="M86.3,258c-0.1,0.4-0.5,0.8-1,0.8c-0.3,0-0.6-0.2-0.6-0.5c0-0.1,0-0.1,0-0.2c0.1-0.4,0.5-0.7,1-0.8
				c0.3,0,0.6,0.2,0.6,0.5C86.3,257.9,86.3,258,86.3,258z"/>
			<path class="st3" d="M85.9,258c-0.1,0.2-0.3,0.4-0.5,0.4c-0.2,0-0.3-0.1-0.3-0.3c0,0,0-0.1,0-0.1c0.1-0.2,0.3-0.4,0.6-0.4
				c0.2,0,0.3,0.1,0.3,0.3C86,257.9,86,258,85.9,258z"/>
			<path class="st18" d="M85.9,258c-0.1,0.2-0.2,0.4-0.5,0.4c-0.2,0-0.3-0.1-0.3-0.3c0,0,0-0.1,0-0.1c0.1-0.2,0.3-0.4,0.5-0.4
				c0.1,0,0.3,0.1,0.3,0.2C85.9,258,85.9,258,85.9,258z"/>
			<path class="st1" d="M85.8,257.9c0-0.1,0-0.2,0-0.2c0,0-0.1,0-0.1,0c-0.2,0-0.4,0.2-0.5,0.4c0,0.1,0,0.2,0,0.2c0,0,0.1,0,0.1,0
				C85.5,258.3,85.7,258.1,85.8,257.9z"/>
			<path class="st18" d="M85.7,258c0,0.1-0.1,0.2-0.2,0.2c-0.1,0-0.1,0-0.1-0.1c0,0,0,0,0-0.1c0-0.1,0.1-0.2,0.2-0.2
				C85.6,257.9,85.7,257.9,85.7,258C85.7,258,85.7,258,85.7,258z"/>
			<path class="st15" d="M91.3,255.2c-0.1,0.4-0.5,0.8-1,0.8c-0.3,0-0.6-0.2-0.6-0.5c0-0.1,0-0.2,0-0.2c0.1-0.4,0.5-0.7,1-0.8
				c0.3,0,0.6,0.2,0.6,0.5C91.3,255,91.3,255.1,91.3,255.2z"/>
			<path class="st3" d="M90.9,255.2c-0.1,0.2-0.3,0.4-0.6,0.4c-0.2,0-0.3-0.1-0.3-0.3c0,0,0-0.1,0-0.1c0.1-0.2,0.3-0.4,0.6-0.4
				c0.2,0,0.3,0.1,0.3,0.3C91,255.1,91,255.2,90.9,255.2z"/>
			<path class="st18" d="M90.9,255.2c-0.1,0.2-0.3,0.4-0.5,0.4c-0.1,0-0.3-0.1-0.3-0.2c0,0,0-0.1,0-0.1c0.1-0.2,0.2-0.4,0.5-0.4
				c0.2,0,0.3,0.1,0.3,0.3C91,255.1,91,255.2,90.9,255.2z"/>
			<path class="st1" d="M90.8,255.1c0-0.1,0-0.2,0-0.2c0,0-0.1,0-0.1,0c-0.2,0-0.4,0.2-0.5,0.4c0,0.1,0,0.2,0,0.2c0,0,0.1,0,0.1,0
				C90.6,255.5,90.7,255.3,90.8,255.1z"/>
			<path class="st18" d="M90.7,255.2c0,0.1-0.1,0.2-0.2,0.2c-0.1,0-0.1,0-0.1-0.1c0,0,0,0,0-0.1c0-0.1,0.1-0.2,0.2-0.2
				C90.6,255,90.7,255.1,90.7,255.2C90.7,255.2,90.7,255.2,90.7,255.2z"/>
			<polygon class="st5" points="97.5,257.3 89.3,262.1 86,260.2 94.3,255.5 			"/>
			<path class="st12" d="M95.3,256.6c-0.5,0-0.9,0.3-1,0.8c-0.1,0.3,0,0.5,0.2,0.7l0,0l0.4,0.2v-0.2c0.4-0.1,0.8-0.3,0.9-0.8
				c0.1-0.3,0-0.6-0.3-0.7C95.4,256.7,95.3,256.6,95.3,256.6z"/>
			<path class="st12" d="M90.2,259.5c-0.5,0-0.9,0.3-1,0.8c-0.1,0.3,0,0.5,0.2,0.7l0,0l0.4,0.2V261c0.4-0.1,0.8-0.3,0.9-0.8
				c0.1-0.3,0-0.6-0.3-0.7C90.4,259.5,90.3,259.5,90.2,259.5z"/>
			<path class="st23" d="M97.1,255.5v1c0,0.1,0,0.2-0.1,0.2l-7.9,4.6v-0.9l3-4l3.5-1.2L97.1,255.5z"/>
			<polygon class="st24" points="89.3,255.9 92.6,254 95.4,255.6 92.1,257.5 			"/>
			<polygon class="st15" points="89.3,255.9 88.5,257.4 91.3,259 92.1,257.5 			"/>
			<polygon class="st24" points="89.3,255.9 88.5,257.4 88.7,257.4 89.4,256 			"/>
			<polygon class="st24" points="92.1,257.5 91.3,259 91.2,258.9 91.9,257.4 			"/>
			<polygon class="st24" points="88.5,257.4 86.3,258.8 89.1,260.4 91.3,259 			"/>
			<polygon class="st25" points="93.3,254.4 94.3,253.9 97.1,255.5 96.1,256.1 95.3,255.6 			"/>
			<polygon class="st15" points="86.3,258.9 86.3,259.7 89.1,261.3 89.1,260.5 			"/>
			<polygon class="st15" points="92.1,257.6 91.6,258.7 95.9,256.2 95.3,255.8 			"/>
			<polygon class="st25" points="86.3,259.7 86.3,259.7 86.3,258.8 89.1,260.4 89.1,261.3 89,261.2 89,260.4 86.3,258.9 			"/>
			<polygon class="st1" points="86.3,259.4 86.2,259.5 89.1,261.2 89.3,261 89.2,260.9 89.1,261.1 86.3,259.5 			"/>
			<polygon class="st3" points="86.2,259.5 86.2,259.8 89.1,261.5 89.1,261.2 			"/>
			<polygon class="st1" points="89.1,261.5 89.3,261.4 89.3,261 89.1,261.2 			"/>
			<polygon class="st11" points="86.9,259.3 86.5,259.1 86.5,259.6 86.9,259.8 			"/>
			<polygon class="st17" points="86.5,259.1 86.4,259 86.4,259.5 86.5,259.6 			"/>
			<polygon class="st11" points="88.5,260.7 88.8,260.9 88.8,260.4 88.5,260.2 			"/>
			<polygon class="st17" points="88.8,260.9 88.9,261 88.9,260.5 88.8,260.4 			"/>
			<polygon class="st12" points="86.9,259.3 86.9,259.4 88.4,260.3 88.4,260.2 			"/>
			<polygon class="st12" points="86.9,259.5 86.9,259.6 88.4,260.4 88.4,260.3 			"/>
			<polygon class="st12" points="86.9,259.7 86.9,259.8 88.4,260.6 88.4,260.5 			"/>
			<rect x="93.6" y="256.6" class="st23" width="0.2" height="1"/>
			<path class="st15" d="M91.2,260.5c-0.1,0.4-0.5,0.7-1,0.8c-0.3,0-0.6-0.2-0.6-0.5c0-0.1,0-0.2,0-0.2c0.1-0.4,0.5-0.8,1-0.8
				c0.3,0,0.6,0.2,0.6,0.6C91.2,260.4,91.2,260.4,91.2,260.5z"/>
			<path class="st3" d="M90.8,260.5c-0.1,0.2-0.3,0.4-0.6,0.4c-0.2,0-0.3-0.1-0.3-0.3c0,0,0-0.1,0-0.1c0.1-0.2,0.3-0.4,0.6-0.4
				c0.2,0,0.3,0.1,0.3,0.3C90.9,260.4,90.9,260.5,90.8,260.5z"/>
			<path class="st18" d="M90.8,260.5c-0.1,0.2-0.3,0.4-0.5,0.4c-0.1,0-0.3-0.1-0.3-0.2c0,0,0-0.1,0-0.1c0.1-0.2,0.2-0.4,0.5-0.4
				C90.7,260.1,90.8,260.3,90.8,260.5C90.8,260.4,90.8,260.5,90.8,260.5z"/>
			<path class="st1" d="M90.7,260.4c0-0.1,0-0.2,0-0.2c0,0-0.1,0-0.1,0c-0.2,0-0.4,0.2-0.5,0.4c0,0.1,0,0.2,0,0.2c0,0,0.1,0,0.1,0
				C90.4,260.8,90.6,260.6,90.7,260.4z"/>
			<path class="st18" d="M90.6,260.5c0,0.1-0.1,0.2-0.2,0.2c-0.1,0-0.1-0.1-0.1-0.1c0,0,0,0,0,0c0-0.1,0.1-0.2,0.2-0.2
				C90.5,260.3,90.6,260.4,90.6,260.5C90.6,260.5,90.6,260.5,90.6,260.5z"/>
			<path class="st15" d="M96.2,257.6c-0.1,0.4-0.5,0.8-1,0.8c-0.3,0-0.6-0.2-0.6-0.5c0-0.1,0-0.1,0-0.2c0.1-0.4,0.5-0.8,1-0.8
				c0.3,0,0.6,0.2,0.6,0.5C96.2,257.5,96.2,257.6,96.2,257.6z"/>
			<path class="st3" d="M95.9,257.6c-0.1,0.2-0.3,0.4-0.6,0.4c-0.2,0-0.3-0.1-0.3-0.3c0,0,0-0.1,0-0.1c0.1-0.2,0.3-0.4,0.6-0.4
				c0.2,0,0.3,0.1,0.3,0.3C95.9,257.6,95.9,257.6,95.9,257.6z"/>
			<path class="st18" d="M95.8,257.6c-0.1,0.2-0.2,0.4-0.5,0.4c-0.2,0-0.3-0.1-0.3-0.3c0,0,0-0.1,0-0.1c0.1-0.2,0.2-0.4,0.5-0.4
				C95.7,257.3,95.8,257.4,95.8,257.6C95.8,257.6,95.8,257.6,95.8,257.6z"/>
			<path class="st1" d="M95.7,257.6c0-0.1,0-0.2,0-0.2c0,0-0.1,0-0.1,0c-0.2,0-0.4,0.2-0.5,0.4c-0.1,0.1,0,0.2,0,0.3
				c0,0,0.1,0,0.1,0C95.5,258,95.7,257.9,95.7,257.6z"/>
			<path class="st18" d="M95.6,257.6c0,0.1-0.1,0.2-0.2,0.2c-0.1,0-0.1-0.1-0.1-0.1c0,0,0,0,0,0c0-0.1,0.1-0.2,0.2-0.2
				C95.6,257.5,95.6,257.5,95.6,257.6C95.6,257.6,95.6,257.6,95.6,257.6z"/>
			<polygon class="st5" points="81.9,248.5 73.7,253.3 70.5,251.3 78.7,246.6 			"/>
			<path class="st12" d="M79.7,247.9c-0.5,0-0.9,0.3-1,0.8c-0.1,0.3,0,0.5,0.2,0.7l0,0l0.4,0.2v-0.2c0.4-0.1,0.8-0.3,0.9-0.8
				c0.1-0.3-0.1-0.6-0.3-0.7C79.8,247.9,79.8,247.9,79.7,247.9z"/>
			<path class="st12" d="M74.7,250.7c-0.5,0-0.9,0.3-1,0.8c-0.1,0.3,0,0.5,0.2,0.7l0,0l0.4,0.2v-0.2c0.4-0.1,0.8-0.4,0.9-0.8
				c0.1-0.3,0-0.6-0.3-0.7C74.8,250.7,74.7,250.7,74.7,250.7z"/>
			<path class="st13" d="M81.5,246.7v1c0,0.1,0,0.2-0.1,0.2l-7.9,4.6v-0.9l3-4l3.5-1.2L81.5,246.7z"/>
			<polygon class="st14" points="73.7,247.1 77,245.2 79.8,246.8 76.5,248.7 			"/>
			<polygon class="st15" points="73.7,247.1 73,248.6 75.8,250.2 76.5,248.7 			"/>
			<polygon class="st14" points="73.7,247.1 73,248.6 73.1,248.6 73.8,247.2 			"/>
			<polygon class="st14" points="76.5,248.7 75.8,250.2 75.6,250.1 76.4,248.6 			"/>
			<polygon class="st14" points="73,248.6 70.7,250 73.5,251.6 75.8,250.2 			"/>
			<polygon class="st16" points="77.8,245.6 78.8,245.1 81.5,246.7 80.5,247.2 79.8,246.8 			"/>
			<polygon class="st15" points="70.7,250.1 70.7,250.9 73.5,252.5 73.5,251.7 			"/>
			<polygon class="st15" points="76.6,248.8 76.1,249.8 80.3,247.4 79.7,247 			"/>
			<polygon class="st16" points="70.8,250.9 70.7,250.9 70.7,250 73.5,251.6 73.5,252.5 73.4,252.4 73.4,251.6 70.8,250.1 			"/>
			<polygon class="st1" points="70.7,250.6 70.6,250.7 73.5,252.4 73.8,252.2 73.7,252.1 73.5,252.2 70.7,250.7 			"/>
			<polygon class="st3" points="70.6,250.7 70.6,251 73.5,252.7 73.5,252.4 			"/>
			<polygon class="st1" points="73.5,252.7 73.8,252.6 73.8,252.2 73.5,252.4 			"/>
			<polygon class="st11" points="71.3,250.5 70.9,250.3 70.9,250.8 71.3,251 			"/>
			<polygon class="st17" points="70.9,250.3 70.8,250.2 70.8,250.7 70.9,250.8 			"/>
			<polygon class="st11" points="72.9,251.9 73.3,252.1 73.3,251.6 72.9,251.4 			"/>
			<polygon class="st17" points="73.3,252.1 73.4,252.2 73.4,251.7 73.3,251.6 			"/>
			<polygon class="st12" points="71.4,250.5 71.4,250.6 72.8,251.5 72.8,251.3 			"/>
			<polygon class="st12" points="71.4,250.7 71.4,250.8 72.8,251.6 72.8,251.5 			"/>
			<polygon class="st12" points="71.4,250.9 71.4,251 72.8,251.8 72.8,251.7 			"/>
			<rect x="78.1" y="247.8" class="st13" width="0.2" height="1"/>
			<path class="st15" d="M75.6,251.7c-0.1,0.4-0.5,0.7-1,0.8c-0.3,0-0.6-0.2-0.6-0.5c0-0.1,0-0.2,0-0.2c0.1-0.4,0.5-0.8,1-0.8
				c0.3,0,0.6,0.2,0.6,0.6C75.7,251.6,75.6,251.6,75.6,251.7z"/>
			<path class="st3" d="M75.3,251.7c-0.1,0.2-0.3,0.4-0.6,0.4c-0.2,0-0.3-0.1-0.3-0.3c0,0,0-0.1,0-0.1c0.1-0.2,0.3-0.4,0.5-0.4
				c0.2,0,0.3,0.1,0.3,0.3C75.3,251.6,75.3,251.7,75.3,251.7z"/>
			<path class="st18" d="M75.2,251.7c-0.1,0.2-0.3,0.4-0.5,0.4c-0.1,0-0.3-0.1-0.3-0.2c0,0,0-0.1,0-0.1c0.1-0.2,0.2-0.4,0.5-0.4
				C75.1,251.3,75.2,251.5,75.2,251.7C75.2,251.6,75.2,251.7,75.2,251.7z"/>
			<path class="st1" d="M75.1,251.6c0-0.1,0-0.2,0-0.2c0,0-0.1,0-0.1,0c-0.2,0-0.4,0.2-0.5,0.4c0,0.1,0,0.2,0,0.2c0,0,0.1,0,0.1,0
				C74.9,252,75.1,251.9,75.1,251.6z"/>
			<path class="st18" d="M75,251.7c0,0.1-0.1,0.2-0.2,0.2c-0.1,0-0.1-0.1-0.1-0.1c0,0,0,0,0,0c0-0.1,0.1-0.2,0.2-0.2
				C75,251.5,75,251.6,75,251.7C75,251.7,75,251.7,75,251.7z"/>
			<path class="st15" d="M80.6,248.9c-0.1,0.4-0.5,0.8-1,0.8c-0.3,0-0.6-0.2-0.6-0.5c0-0.1,0-0.1,0-0.2c0.1-0.4,0.5-0.7,1-0.8
				c0.3,0,0.6,0.2,0.6,0.5C80.7,248.7,80.7,248.8,80.6,248.9z"/>
			<path class="st3" d="M80.3,248.9c-0.1,0.2-0.3,0.4-0.5,0.4c-0.2,0-0.3-0.1-0.3-0.3c0,0,0-0.1,0-0.1c0.1-0.2,0.3-0.4,0.6-0.4
				c0.2,0,0.3,0.1,0.3,0.3C80.3,248.8,80.3,248.8,80.3,248.9z"/>
			<path class="st18" d="M80.3,248.9c-0.1,0.2-0.2,0.4-0.5,0.4c-0.2,0-0.3-0.1-0.3-0.3c0,0,0-0.1,0-0.1c0.1-0.2,0.3-0.4,0.5-0.4
				c0.1,0,0.3,0.1,0.3,0.2C80.3,248.8,80.3,248.8,80.3,248.9z"/>
			<path class="st1" d="M80.2,248.8c0-0.1,0-0.2,0-0.2c0,0-0.1,0-0.1,0c-0.2,0-0.4,0.2-0.5,0.4c0,0.1,0,0.2,0,0.2c0,0,0.1,0,0.1,0
				C79.9,249.1,80.1,249,80.2,248.8z"/>
			<path class="st18" d="M80.1,248.9c0,0.1-0.1,0.2-0.2,0.2c-0.1,0-0.1-0.1-0.1-0.1c0,0,0,0,0,0c0-0.1,0.1-0.2,0.2-0.2
				C80,248.7,80.1,248.8,80.1,248.9C80.1,248.8,80.1,248.9,80.1,248.9z"/>
			<polygon class="st5" points="108.4,263.9 100.2,268.7 96.9,266.8 105.2,262.1 			"/>
			<path class="st12" d="M106.2,263.3c-0.5,0-0.9,0.3-1,0.8c-0.1,0.3,0,0.5,0.2,0.7l0,0l0.4,0.2v-0.2c0.4-0.1,0.8-0.4,0.9-0.8
				c0.1-0.3,0-0.6-0.3-0.7C106.3,263.3,106.2,263.3,106.2,263.3z"/>
			<path class="st12" d="M101.1,266.1c-0.5,0-0.9,0.3-1,0.8c-0.1,0.3,0,0.5,0.2,0.7l0,0l0.4,0.2v-0.1c0.4-0.1,0.8-0.3,0.9-0.8
				c0.1-0.3,0-0.6-0.3-0.7C101.3,266.1,101.2,266.1,101.1,266.1z"/>
			<path class="st26" d="M108,262.1v1c0,0.1,0,0.2-0.1,0.2l-7.9,4.6v-0.9l3-4l3.5-1.2L108,262.1z"/>
			<polygon class="st27" points="100.2,262.5 103.5,260.6 106.3,262.2 103,264.1 			"/>
			<polygon class="st15" points="100.2,262.5 99.5,264 102.2,265.6 103,264.1 			"/>
			<polygon class="st27" points="100.2,262.5 99.5,264 99.6,264 100.3,262.6 			"/>
			<polygon class="st27" points="103,264.1 102.2,265.6 102.1,265.5 102.9,264 			"/>
			<polygon class="st27" points="99.5,264 97.2,265.4 100,267 102.2,265.6 			"/>
			<polygon class="st28" points="104.2,261 105.2,260.5 108,262.1 107,262.7 106.3,262.2 			"/>
			<polygon class="st15" points="97.2,265.5 97.2,266.3 100,267.9 100,267.1 			"/>
			<polygon class="st15" points="103.1,264.2 102.6,265.2 106.8,262.8 106.2,262.4 			"/>
			<polygon class="st28" points="97.3,266.3 97.2,266.3 97.2,265.4 100,267 100,267.9 99.9,267.8 99.9,267 97.3,265.5 			"/>
			<polygon class="st1" points="97.2,266 97.1,266.1 100,267.8 100.3,267.6 100.2,267.5 100,267.7 97.2,266.1 			"/>
			<polygon class="st3" points="97.1,266.1 97.1,266.4 100,268.1 100,267.8 			"/>
			<polygon class="st1" points="100,268.1 100.2,268 100.3,267.6 100,267.8 			"/>
			<polygon class="st11" points="97.8,265.9 97.4,265.7 97.4,266.2 97.8,266.4 			"/>
			<polygon class="st17" points="97.4,265.7 97.3,265.6 97.3,266.1 97.4,266.2 			"/>
			<polygon class="st11" points="99.4,267.3 99.7,267.5 99.7,267 99.4,266.8 			"/>
			<polygon class="st17" points="99.7,267.5 99.9,267.6 99.9,267.1 99.7,267 			"/>
			<polygon class="st12" points="97.9,265.9 97.9,266 99.3,266.9 99.3,266.8 			"/>
			<polygon class="st12" points="97.9,266.1 97.9,266.2 99.3,267 99.3,266.9 			"/>
			<polygon class="st12" points="97.9,266.3 97.9,266.4 99.3,267.2 99.3,267.1 			"/>
			<rect x="104.6" y="263.2" class="st26" width="0.2" height="1"/>
			<path class="st15" d="M102.1,267.1c-0.1,0.4-0.5,0.8-1,0.8c-0.3,0-0.6-0.2-0.6-0.5c0-0.1,0-0.1,0-0.2c0.1-0.4,0.5-0.7,1-0.8
				c0.3,0,0.6,0.2,0.6,0.5C102.1,266.9,102.1,267,102.1,267.1z"/>
			<path class="st3" d="M101.8,267.1c-0.1,0.2-0.3,0.4-0.6,0.4c-0.2,0-0.3-0.1-0.3-0.3c0,0,0-0.1,0-0.1c0.1-0.2,0.3-0.4,0.6-0.4
				c0.2,0,0.3,0.1,0.3,0.3C101.8,267,101.8,267.1,101.8,267.1z"/>
			<path class="st18" d="M101.7,267.1c-0.1,0.2-0.2,0.4-0.5,0.4c-0.2,0-0.3-0.1-0.3-0.3c0,0,0-0.1,0-0.1c0.1-0.2,0.3-0.4,0.5-0.4
				c0.1,0,0.3,0.1,0.3,0.2C101.7,267,101.7,267.1,101.7,267.1z"/>
			<path class="st1" d="M101.6,267c0-0.1,0-0.2,0-0.2c0,0-0.1,0-0.1,0c-0.2,0-0.4,0.2-0.5,0.4c0,0.1,0,0.2,0,0.2c0,0,0.1,0,0.1,0
				C101.4,267.4,101.5,267.2,101.6,267z"/>
			<path class="st18" d="M101.5,267.1c0,0.1-0.1,0.2-0.2,0.2c-0.1,0-0.1,0-0.1-0.1c0,0,0,0,0-0.1c0-0.1,0.1-0.2,0.2-0.2
				C101.4,266.9,101.5,267,101.5,267.1C101.5,267.1,101.5,267.1,101.5,267.1z"/>
			<path class="st15" d="M107.1,264.3c-0.1,0.4-0.5,0.7-1,0.8c-0.3,0-0.6-0.2-0.6-0.5c0-0.1,0-0.2,0-0.2c0.1-0.4,0.5-0.8,1-0.8
				c0.3,0,0.6,0.2,0.6,0.6C107.2,264.1,107.2,264.2,107.1,264.3z"/>
			<path class="st3" d="M106.8,264.3c-0.1,0.2-0.3,0.4-0.6,0.4c-0.2,0-0.3-0.1-0.3-0.3c0,0,0-0.1,0-0.1c0.1-0.2,0.3-0.4,0.6-0.4
				c0.2,0,0.3,0.1,0.3,0.3C106.8,264.2,106.8,264.2,106.8,264.3z"/>
			<path class="st18" d="M106.7,264.3c-0.1,0.2-0.3,0.4-0.5,0.4c-0.1,0-0.3-0.1-0.3-0.2c0,0,0-0.1,0-0.1c0.1-0.2,0.2-0.4,0.5-0.4
				C106.6,263.9,106.8,264,106.7,264.3C106.8,264.2,106.8,264.2,106.7,264.3z"/>
			<path class="st1" d="M106.6,264.2c0-0.1,0-0.2,0-0.2c0,0-0.1,0-0.1,0c-0.2,0-0.4,0.2-0.5,0.4c0,0.1,0,0.2,0,0.2c0,0,0.1,0,0.1,0
				C106.4,264.5,106.6,264.4,106.6,264.2z"/>
			<path class="st18" d="M106.5,264.3c0,0.1-0.1,0.2-0.2,0.2c-0.1,0-0.1,0-0.1-0.1c0,0,0,0,0,0c0-0.1,0.1-0.2,0.2-0.2
				C106.5,264.1,106.5,264.2,106.5,264.3C106.5,264.2,106.5,264.3,106.5,264.3z"/>
			<polygon class="st5" points="68.4,259.4 60.2,264.2 57,262.2 65.2,257.6 			"/>
			<path class="st12" d="M66.2,258.8c-0.5,0-0.9,0.3-1,0.8c-0.1,0.3,0,0.5,0.2,0.7l0,0l0.4,0.2v-0.2c0.4-0.1,0.8-0.3,0.9-0.8
				c0.1-0.3,0-0.6-0.3-0.7C66.3,258.8,66.3,258.8,66.2,258.8z"/>
			<path class="st12" d="M61.2,261.6c-0.5,0-0.9,0.3-1,0.8c-0.1,0.3,0,0.5,0.2,0.7l0,0l0.4,0.2v-0.2c0.4-0.1,0.8-0.4,0.9-0.8
				c0.1-0.3,0-0.6-0.3-0.7C61.3,261.6,61.2,261.6,61.2,261.6z"/>
			<path class="st26" d="M68.1,257.6v1c0,0.1,0,0.2-0.1,0.2l-7.9,4.6v-0.9l3-4l3.5-1.2L68.1,257.6z"/>
			<polygon class="st27" points="60.2,258 63.5,256.1 66.3,257.7 63,259.6 			"/>
			<polygon class="st15" points="60.2,258 59.5,259.5 62.3,261.1 63,259.6 			"/>
			<polygon class="st27" points="60.2,258 59.5,259.5 59.6,259.5 60.4,258.1 			"/>
			<polygon class="st27" points="63,259.6 62.3,261.1 62.2,261 62.9,259.5 			"/>
			<polygon class="st27" points="59.5,259.5 57.2,260.9 60,262.5 62.3,261.1 			"/>
			<polygon class="st28" points="64.3,256.5 65.3,256 68.1,257.6 67,258.2 66.3,257.7 			"/>
			<polygon class="st15" points="57.2,261 57.2,261.8 60,263.4 60,262.6 			"/>
			<polygon class="st15" points="63.1,259.7 62.6,260.8 66.8,258.3 66.2,257.9 			"/>
			<polygon class="st28" points="57.3,261.8 57.2,261.8 57.2,260.9 60,262.5 60,263.4 59.9,263.3 59.9,262.5 57.3,261 			"/>
			<polygon class="st1" points="57.2,261.5 57.1,261.6 60,263.3 60.3,263.1 60.2,263 60,263.2 57.2,261.6 			"/>
			<polygon class="st3" points="57.1,261.6 57.1,261.9 60,263.6 60,263.3 			"/>
			<polygon class="st1" points="60,263.6 60.3,263.5 60.3,263.1 60,263.3 			"/>
			<polygon class="st11" points="57.8,261.4 57.4,261.2 57.4,261.7 57.8,261.9 			"/>
			<polygon class="st17" points="57.4,261.2 57.3,261.1 57.3,261.6 57.4,261.7 			"/>
			<polygon class="st11" points="59.4,262.8 59.8,263 59.8,262.5 59.4,262.3 			"/>
			<polygon class="st17" points="59.8,263 59.9,263.1 59.9,262.6 59.8,262.5 			"/>
			<polygon class="st12" points="57.9,261.4 57.9,261.5 59.3,262.4 59.3,262.2 			"/>
			<polygon class="st12" points="57.9,261.6 57.9,261.7 59.3,262.5 59.3,262.4 			"/>
			<polygon class="st12" points="57.9,261.8 57.9,261.9 59.3,262.7 59.3,262.6 			"/>
			<rect x="64.6" y="258.7" class="st26" width="0.2" height="1"/>
			<path class="st15" d="M62.1,262.6c-0.1,0.4-0.5,0.7-1,0.8c-0.3,0-0.6-0.2-0.6-0.5c0-0.1,0-0.2,0-0.2c0.1-0.4,0.5-0.8,1-0.8
				c0.3,0,0.6,0.2,0.6,0.6C62.2,262.5,62.2,262.6,62.1,262.6z"/>
			<path class="st3" d="M61.8,262.6c-0.1,0.2-0.3,0.4-0.6,0.4c-0.2,0-0.3-0.1-0.3-0.3c0,0,0-0.1,0-0.1c0.1-0.2,0.3-0.4,0.6-0.4
				c0.2,0,0.3,0.1,0.3,0.3C61.8,262.6,61.8,262.6,61.8,262.6z"/>
			<path class="st18" d="M61.7,262.6c-0.1,0.2-0.3,0.4-0.5,0.4c-0.1,0-0.3-0.1-0.3-0.2c0,0,0-0.1,0-0.1c0.1-0.2,0.2-0.4,0.5-0.4
				C61.6,262.3,61.8,262.4,61.7,262.6C61.8,262.6,61.8,262.6,61.7,262.6z"/>
			<path class="st1" d="M61.6,262.5c0-0.1,0-0.2,0-0.2c0,0-0.1,0-0.1,0c-0.2,0-0.4,0.2-0.5,0.4c0,0.1,0,0.2,0,0.2c0,0,0.1,0,0.1,0
				C61.4,262.9,61.6,262.7,61.6,262.5z"/>
			<path class="st18" d="M61.5,262.6c0,0.1-0.1,0.2-0.2,0.2c-0.1,0-0.1,0-0.1-0.1c0,0,0,0,0,0c0-0.1,0.1-0.2,0.2-0.2
				C61.5,262.5,61.5,262.5,61.5,262.6C61.5,262.6,61.5,262.6,61.5,262.6z"/>
			<path class="st15" d="M67.2,259.8c-0.1,0.4-0.5,0.8-1,0.8c-0.3,0-0.6-0.2-0.6-0.5c0-0.1,0-0.1,0-0.2c0.1-0.4,0.5-0.8,1-0.8
				c0.3,0,0.6,0.2,0.6,0.5C67.2,259.6,67.2,259.7,67.2,259.8z"/>
			<path class="st3" d="M66.8,259.8c-0.1,0.2-0.3,0.4-0.6,0.4c-0.2,0-0.3-0.1-0.3-0.3c0,0,0-0.1,0-0.1c0.1-0.2,0.3-0.4,0.6-0.4
				c0.2,0,0.3,0.1,0.3,0.3C66.9,259.7,66.8,259.7,66.8,259.8z"/>
			<path class="st18" d="M66.8,259.8c-0.1,0.2-0.3,0.4-0.5,0.4c-0.2,0-0.3-0.1-0.3-0.3c0,0,0-0.1,0-0.1c0.1-0.2,0.2-0.4,0.5-0.4
				C66.7,259.4,66.8,259.5,66.8,259.8C66.8,259.7,66.8,259.7,66.8,259.8z"/>
			<path class="st1" d="M66.7,259.6c0-0.1,0-0.2,0-0.2c0,0-0.1,0-0.1,0c-0.2,0-0.4,0.2-0.5,0.4c0,0.1,0,0.2,0,0.2c0,0,0.1,0,0.1,0
				C66.4,260,66.6,259.9,66.7,259.6z"/>
			<path class="st18" d="M66.6,259.8c0,0.1-0.1,0.2-0.2,0.2c-0.1,0-0.1-0.1-0.1-0.1c0,0,0,0,0,0c0-0.1,0.1-0.2,0.2-0.2
				C66.5,259.6,66.6,259.7,66.6,259.8C66.6,259.7,66.6,259.8,66.6,259.8z"/>
			<polygon class="st5" points="62.5,255.7 54.3,260.5 51,258.5 59.3,253.8 			"/>
			<path class="st12" d="M60.3,255c-0.5,0-0.9,0.3-1,0.8c-0.1,0.3,0,0.5,0.2,0.7l0,0l0.4,0.2v-0.2c0.4-0.1,0.8-0.3,0.9-0.8
				c0.1-0.3-0.1-0.6-0.4-0.7C60.4,255.1,60.3,255,60.3,255z"/>
			<polygon class="st29" points="56,254.2 59.3,252.2 62.1,253.9 58.8,255.8 58.1,255.3 			"/>
			<path class="st12" d="M55.2,257.9c-0.5,0-0.9,0.3-1,0.8c-0.1,0.3,0,0.5,0.2,0.7l0,0l0.4,0.2v-0.2c0.4-0.1,0.8-0.4,0.9-0.8
				c0.1-0.3,0-0.6-0.3-0.7C55.4,257.9,55.3,257.9,55.2,257.9z"/>
			<path class="st23" d="M62.1,253.9v1c0,0.1,0,0.2-0.1,0.2l-7.9,4.6v-0.9l3-3.4l1.7-0.5v0.9L62.1,253.9z"/>
			<polygon class="st24" points="54.3,254.2 56,253.3 58.8,254.9 57.1,255.9 			"/>
			<polygon class="st15" points="54.3,254.2 53.5,255.7 56.3,257.3 57.1,255.9 			"/>
			<polygon class="st24" points="54.3,254.2 53.5,255.7 53.7,255.8 54.4,254.3 			"/>
			<polygon class="st24" points="57.1,255.9 56.3,257.3 56.2,257.2 56.9,255.8 			"/>
			<polygon class="st24" points="53.5,255.7 51.3,257.1 54.1,258.7 56.3,257.3 			"/>
			<polygon class="st15" points="51.3,257.2 51.3,258 54.1,259.7 54.1,258.8 			"/>
			<polygon class="st15" points="57.1,256 56.6,257 58.7,255.8 58.7,255 			"/>
			<polygon class="st25" points="51.3,258.1 51.3,258 51.3,257.1 54.1,258.7 54.1,259.7 54,259.6 54,258.8 51.3,257.3 			"/>
			<polygon class="st1" points="51.3,257.8 51.2,257.9 54.1,259.5 54.4,259.4 54.2,259.3 54.1,259.4 51.3,257.8 			"/>
			<polygon class="st3" points="51.2,257.9 51.2,258.2 54.1,259.9 54.1,259.5 			"/>
			<polygon class="st1" points="54.1,259.9 54.3,259.7 54.4,259.4 54.1,259.5 			"/>
			<polygon class="st11" points="51.9,257.6 51.5,257.4 51.5,257.9 51.9,258.1 			"/>
			<polygon class="st17" points="51.5,257.4 51.4,257.4 51.4,257.9 51.5,257.9 			"/>
			<polygon class="st11" points="53.5,259.1 53.8,259.3 53.8,258.8 53.5,258.6 			"/>
			<polygon class="st17" points="53.8,259.3 53.9,259.3 53.9,258.8 53.8,258.8 			"/>
			<polygon class="st12" points="51.9,257.7 51.9,257.8 53.4,258.6 53.4,258.5 			"/>
			<polygon class="st12" points="51.9,257.9 51.9,258 53.4,258.8 53.4,258.7 			"/>
			<polygon class="st12" points="51.9,258 51.9,258.1 53.4,259 53.4,258.8 			"/>
			<polygon class="st23" points="58.8,256 58.5,256.1 58.5,255 58.8,254.9 			"/>
			<path class="st15" d="M56.2,258.9c-0.1,0.4-0.5,0.7-1,0.8c-0.3,0-0.6-0.2-0.6-0.5c0-0.1,0-0.2,0-0.2c0.1-0.4,0.5-0.8,1-0.8
				c0.3,0,0.6,0.2,0.6,0.6C56.2,258.7,56.2,258.8,56.2,258.9z"/>
			<path class="st3" d="M55.8,258.9c-0.1,0.2-0.3,0.4-0.6,0.4c-0.2,0-0.3-0.1-0.3-0.3c0,0,0-0.1,0-0.1c0.1-0.2,0.3-0.4,0.5-0.4
				c0.2,0,0.3,0.1,0.3,0.3C55.9,258.8,55.9,258.8,55.8,258.9z"/>
			<path class="st18" d="M55.8,258.9c-0.1,0.2-0.3,0.4-0.5,0.4c-0.1,0-0.3-0.1-0.3-0.2c0,0,0-0.1,0-0.1c0.1-0.2,0.2-0.4,0.5-0.4
				C55.7,258.5,55.8,258.6,55.8,258.9C55.8,258.8,55.8,258.8,55.8,258.9z"/>
			<path class="st1" d="M55.7,258.8c0-0.1,0-0.2,0-0.2c0,0-0.1,0-0.1,0c-0.2,0-0.4,0.2-0.5,0.4c0,0.1,0,0.2,0,0.2c0,0,0.1,0,0.1,0
				C55.4,259.1,55.6,259,55.7,258.8z"/>
			<path class="st18" d="M55.6,258.9c0,0.1-0.1,0.2-0.2,0.2c-0.1,0-0.1,0-0.1-0.1c0,0,0,0,0,0c0-0.1,0.1-0.2,0.2-0.2
				C55.5,258.7,55.6,258.7,55.6,258.9C55.6,258.8,55.6,258.9,55.6,258.9z"/>
			<path class="st15" d="M61.2,256c-0.1,0.4-0.5,0.8-1,0.8c-0.3,0-0.6-0.2-0.6-0.5c0-0.1,0-0.1,0-0.2c0.1-0.4,0.5-0.7,1-0.8
				c0.3,0,0.6,0.2,0.6,0.5C61.2,255.9,61.2,256,61.2,256z"/>
			<path class="st3" d="M60.9,256c-0.1,0.2-0.3,0.4-0.5,0.4c-0.2,0-0.3-0.1-0.3-0.3c0,0,0-0.1,0-0.1c0.1-0.2,0.3-0.4,0.6-0.4
				c0.2,0,0.3,0.1,0.3,0.3C60.9,255.9,60.9,256,60.9,256z"/>
			<path class="st18" d="M60.8,256c-0.1,0.2-0.2,0.4-0.5,0.4c-0.2,0-0.3-0.1-0.3-0.3c0,0,0-0.1,0-0.1c0.1-0.2,0.3-0.4,0.5-0.4
				c0.1,0,0.3,0.1,0.3,0.2C60.8,256,60.8,256,60.8,256z"/>
			<path class="st1" d="M60.7,255.9c0-0.1,0-0.2,0-0.2c0,0-0.1,0-0.1,0c-0.2,0-0.4,0.2-0.5,0.4c0,0.1,0,0.2,0,0.2c0,0,0.1,0,0.1,0
				C60.5,256.3,60.7,256.2,60.7,255.9z"/>
			<path class="st18" d="M60.6,256c0,0.1-0.1,0.2-0.2,0.2c-0.1,0-0.1-0.1-0.1-0.1c0,0,0,0,0,0c0-0.1,0.1-0.2,0.2-0.2
				C60.6,255.9,60.6,255.9,60.6,256C60.6,256,60.6,256,60.6,256z"/>
			<polyline class="st23" points="57.5,254.2 59.3,253.2 61.1,254.2 58.8,255.6 58.8,254.9 57.5,254.2 			"/>
			<polyline class="st25" points="59.3,253.2 59.3,252.5 57,253.9 57.5,254.2 59.3,253.2 			"/>
			<polyline class="st24" points="59.3,253.2 59.3,252.5 61.7,253.9 61.1,254.2 59.3,253.2 			"/>
			<polygon class="st5" points="146.2,270.2 153.5,265.9 153.5,255.5 146.2,259.8 			"/>
			<polygon class="st5" points="156.7,264.1 159,262.8 159,252.3 156.7,253.7 			"/>
			<polygon class="st5" points="120.1,285.2 144.2,271.3 144.2,261 120.1,274.9 			"/>
			<polygon class="st11" points="85.8,309.7 86.4,309.4 28.3,263.3 23.1,260.4 22.6,260.7 27.7,263.6 			"/>
			<polygon class="st5" points="29.9,256.6 21.7,261.4 18.5,259.4 26.7,254.7 			"/>
			<path class="st12" d="M27.7,256c-0.5,0-0.9,0.3-1,0.8c-0.1,0.3,0,0.5,0.2,0.7l0,0l0.4,0.2v-0.2c0.4,0,0.8-0.3,0.9-0.8
				c0.1-0.3,0-0.6-0.3-0.7C27.8,256,27.8,256,27.7,256z"/>
			<path class="st12" d="M22.6,258.8c-0.5,0-0.9,0.3-1,0.8c-0.1,0.3,0,0.5,0.2,0.7l0,0l0.4,0.2v-0.2c0.4-0.1,0.8-0.3,0.9-0.8
				c0.1-0.3-0.1-0.6-0.4-0.7C22.8,258.8,22.7,258.8,22.6,258.8z"/>
			<path class="st26" d="M29.5,254.8v1c0,0.1,0,0.2-0.1,0.2l-7.9,4.6v-0.9l3-4l3.5-1.2L29.5,254.8z"/>
			<polygon class="st27" points="21.7,255.2 25,253.3 27.8,254.9 24.5,256.8 			"/>
			<polygon class="st15" points="21.7,255.2 21,256.6 23.8,258.2 24.5,256.8 			"/>
			<polygon class="st27" points="21.7,255.2 21,256.6 21.1,256.7 21.8,255.2 			"/>
			<polygon class="st27" points="24.5,256.8 23.8,258.2 23.6,258.2 24.4,256.7 			"/>
			<polygon class="st27" points="21,256.6 18.7,258.1 21.5,259.7 23.8,258.2 			"/>
			<polygon class="st28" points="25.8,253.7 26.7,253.2 29.5,254.8 28.5,255.3 27.8,254.9 			"/>
			<polygon class="st15" points="18.7,258.2 18.7,259 21.5,260.6 21.5,259.8 			"/>
			<polygon class="st15" points="24.6,256.9 24.1,257.9 28.3,255.5 27.7,255.1 			"/>
			<polygon class="st28" points="18.8,259 18.7,259 18.7,258.1 21.5,259.7 21.5,260.6 21.4,260.5 21.4,259.7 18.8,258.2 			"/>
			<polygon class="st1" points="18.7,258.7 18.6,258.8 21.5,260.5 21.8,260.3 21.7,260.2 21.5,260.3 18.7,258.8 			"/>
			<polygon class="st3" points="18.6,258.8 18.6,259.1 21.5,260.8 21.5,260.5 			"/>
			<polygon class="st1" points="21.5,260.8 21.8,260.7 21.8,260.3 21.5,260.5 			"/>
			<polygon class="st11" points="19.3,258.6 18.9,258.4 18.9,258.8 19.3,259.1 			"/>
			<polygon class="st17" points="18.9,258.4 18.8,258.3 18.8,258.8 18.9,258.8 			"/>
			<polygon class="st11" points="20.9,260 21.2,260.2 21.2,259.7 20.9,259.5 			"/>
			<polygon class="st17" points="21.2,260.2 21.4,260.3 21.4,259.8 21.2,259.7 			"/>
			<polygon class="st12" points="19.4,258.6 19.4,258.7 20.8,259.6 20.8,259.4 			"/>
			<polygon class="st12" points="19.4,258.8 19.4,258.9 20.8,259.7 20.8,259.6 			"/>
			<polygon class="st12" points="19.4,259 19.4,259.1 20.8,259.9 20.8,259.8 			"/>
			<rect x="26.1" y="255.9" class="st26" width="0.2" height="1"/>
			<path class="st15" d="M23.6,259.8c-0.1,0.4-0.5,0.8-1,0.8c-0.3,0-0.6-0.2-0.6-0.5c0-0.1,0-0.1,0-0.2c0.1-0.4,0.5-0.7,1-0.8
				c0.3,0,0.6,0.2,0.6,0.5C23.6,259.6,23.6,259.7,23.6,259.8z"/>
			<path class="st3" d="M23.3,259.8c-0.1,0.2-0.3,0.4-0.6,0.4c-0.2,0-0.3-0.1-0.3-0.3c0,0,0-0.1,0-0.1c0.1-0.2,0.3-0.4,0.6-0.4
				c0.2,0,0.3,0.1,0.3,0.3C23.3,259.7,23.3,259.7,23.3,259.8z"/>
			<path class="st18" d="M23.2,259.8c-0.1,0.2-0.2,0.4-0.5,0.4c-0.2,0-0.3-0.1-0.3-0.3c0,0,0-0.1,0-0.1c0.1-0.2,0.3-0.4,0.5-0.4
				c0.1,0,0.3,0.1,0.3,0.2C23.2,259.7,23.2,259.8,23.2,259.8z"/>
			<path class="st1" d="M23.1,259.7c0-0.1,0-0.2,0-0.2c0,0-0.1,0-0.1,0c-0.2,0-0.4,0.2-0.5,0.4c0,0.1,0,0.2,0,0.2c0,0,0.1,0,0.1,0
				C22.9,260.1,23.1,259.9,23.1,259.7z"/>
			<path class="st18" d="M23,259.8c0,0.1-0.1,0.2-0.2,0.2c-0.1,0-0.1,0-0.1-0.1c0,0,0,0,0-0.1c0-0.1,0.1-0.2,0.2-0.2
				C23,259.6,23,259.7,23,259.8C23,259.8,23,259.8,23,259.8z"/>
			<path class="st15" d="M28.6,257c-0.1,0.4-0.5,0.7-1,0.8c-0.3,0-0.6-0.2-0.6-0.5c0-0.1,0-0.2,0-0.2c0.1-0.4,0.5-0.8,1-0.8
				c0.3,0,0.6,0.2,0.6,0.6C28.7,256.8,28.7,256.9,28.6,257z"/>
			<path class="st3" d="M28.3,257c-0.1,0.2-0.3,0.4-0.6,0.4c-0.2,0-0.3-0.1-0.3-0.3c0,0,0-0.1,0-0.1c0.1-0.2,0.3-0.4,0.6-0.4
				c0.2,0,0.3,0.1,0.3,0.3C28.3,256.9,28.3,256.9,28.3,257z"/>
			<path class="st18" d="M28.2,257c-0.1,0.2-0.3,0.4-0.5,0.4c-0.1,0-0.3-0.1-0.3-0.2c0,0,0-0.1,0-0.1c0.1-0.2,0.2-0.4,0.5-0.4
				C28.1,256.6,28.3,256.7,28.2,257C28.3,256.9,28.3,256.9,28.2,257z"/>
			<path class="st1" d="M28.1,256.9c0-0.1,0-0.2,0-0.2c0,0-0.1,0-0.1,0c-0.2,0-0.4,0.2-0.5,0.4c0,0.1,0,0.2,0,0.2c0,0,0.1,0,0.1,0
				C27.9,257.2,28.1,257.1,28.1,256.9z"/>
			<path class="st18" d="M28,257c0,0.1-0.1,0.2-0.2,0.2c-0.1,0-0.1,0-0.1-0.1c0,0,0,0,0,0c0-0.1,0.1-0.2,0.2-0.2
				C28,256.8,28,256.8,28,257C28.1,256.9,28,257,28,257z"/>
			<polygon class="st5" points="44.2,284.5 52.4,289.3 55.7,287.4 47.4,282.7 			"/>
			<path class="st12" d="M46.5,283.9c0.5,0,0.9,0.3,1,0.8c0.1,0.3,0,0.5-0.2,0.7l0,0l-0.4,0.2v-0.2c-0.4-0.1-0.8-0.3-0.9-0.8
				c-0.1-0.3,0.1-0.6,0.4-0.7C46.4,283.9,46.4,283.9,46.5,283.9z"/>
			<path class="st12" d="M51.5,286.8c0.5,0,0.9,0.3,1,0.8c0.1,0.3,0,0.5-0.2,0.7l0,0l-0.4,0.2v-0.2c-0.4-0.1-0.8-0.3-0.9-0.8
				c-0.1-0.3,0.1-0.6,0.3-0.7C51.4,286.8,51.4,286.8,51.5,286.8z"/>
			<path class="st13" d="M44.6,282.8v1c0,0.1,0,0.2,0.1,0.2l7.9,4.6v-0.9l-3-4l-3.5-1.2L44.6,282.8z"/>
			<polygon class="st14" points="52.4,283.2 49.1,281.3 46.4,282.9 49.6,284.8 			"/>
			<polygon class="st15" points="52.4,283.2 53.2,284.6 50.4,286.2 49.6,284.8 			"/>
			<polygon class="st14" points="52.4,283.2 53.2,284.6 53.1,284.7 52.3,283.2 			"/>
			<polygon class="st14" points="49.6,284.8 50.4,286.2 50.5,286.2 49.8,284.7 			"/>
			<polygon class="st14" points="53.2,284.6 55.4,286 52.7,287.6 50.4,286.2 			"/>
			<polygon class="st16" points="48.4,281.7 47.4,281.1 44.6,282.7 45.6,283.3 46.4,282.9 			"/>
			<polygon class="st15" points="55.4,286.1 55.4,286.9 52.6,288.5 52.7,287.7 			"/>
			<polygon class="st15" points="49.6,284.8 50.1,285.9 45.8,283.5 46.4,283 			"/>
			<polygon class="st16" points="55.4,287 55.4,286.9 55.4,286 52.7,287.6 52.6,288.5 52.7,288.5 52.7,287.7 55.4,286.2 			"/>
			<polygon class="st1" points="55.4,286.7 55.6,286.8 52.6,288.4 52.4,288.3 52.5,288.2 52.6,288.3 55.4,286.7 			"/>
			<polygon class="st3" points="55.6,286.8 55.6,287.1 52.6,288.8 52.6,288.4 			"/>
			<polygon class="st1" points="52.6,288.8 52.4,288.6 52.4,288.3 52.6,288.4 			"/>
			<polygon class="st11" points="54.8,286.5 55.2,286.3 55.2,286.8 54.8,287 			"/>
			<polygon class="st17" points="55.2,286.3 55.3,286.2 55.3,286.8 55.2,286.8 			"/>
			<polygon class="st11" points="53.3,288 52.9,288.2 52.9,287.7 53.3,287.5 			"/>
			<polygon class="st17" points="52.9,288.2 52.8,288.2 52.8,287.7 52.9,287.7 			"/>
			<polygon class="st12" points="54.8,286.6 54.8,286.7 53.3,287.5 53.3,287.4 			"/>
			<polygon class="st12" points="54.8,286.8 54.8,286.9 53.3,287.7 53.3,287.6 			"/>
			<polygon class="st12" points="54.8,286.9 54.8,287 53.3,287.9 53.3,287.8 			"/>
			<rect x="47.9" y="283.9" class="st13" width="0.2" height="1"/>
			<path class="st15" d="M50.5,287.8c0.1,0.4,0.5,0.8,1,0.8c0.3,0,0.6-0.2,0.6-0.5c0-0.1,0-0.1,0-0.2c-0.1-0.4-0.5-0.8-1-0.8
				c-0.3,0-0.6,0.2-0.6,0.5C50.5,287.6,50.5,287.7,50.5,287.8z"/>
			<path class="st3" d="M50.9,287.8c0.1,0.2,0.3,0.4,0.6,0.4c0.2,0,0.3-0.1,0.3-0.3c0,0,0-0.1,0-0.1c-0.1-0.2-0.3-0.4-0.6-0.4
				c-0.2,0-0.3,0.1-0.3,0.3C50.8,287.7,50.9,287.7,50.9,287.8z"/>
			<path class="st18" d="M50.9,287.8c0.1,0.2,0.2,0.4,0.5,0.4c0.2,0,0.3-0.1,0.3-0.3c0,0,0-0.1,0-0.1c-0.1-0.2-0.3-0.4-0.5-0.4
				C51.1,287.4,50.9,287.5,50.9,287.8C50.9,287.7,50.9,287.7,50.9,287.8z"/>
			<path class="st1" d="M51,287.6c0-0.1,0-0.2,0-0.2c0,0,0.1,0,0.1,0c0.2,0,0.4,0.2,0.5,0.4c0,0.1,0,0.2,0,0.2c0,0-0.1,0-0.1,0
				C51.3,288,51.1,287.9,51,287.6z"/>
			<path class="st18" d="M51.1,287.8c0,0.1,0.1,0.2,0.2,0.2c0.1,0,0.1-0.1,0.1-0.1c0,0,0,0,0,0c0-0.1-0.1-0.2-0.2-0.2
				C51.2,287.6,51.1,287.6,51.1,287.8C51.1,287.7,51.1,287.7,51.1,287.8z"/>
			<path class="st15" d="M45.5,284.9c0.1,0.4,0.5,0.8,1,0.8c0.3,0,0.6-0.2,0.6-0.5c0-0.1,0-0.1,0-0.2c-0.1-0.4-0.5-0.7-1-0.8
				c-0.3,0-0.6,0.2-0.6,0.5C45.5,284.8,45.5,284.9,45.5,284.9z"/>
			<path class="st3" d="M45.8,284.9c0.1,0.2,0.3,0.4,0.6,0.4c0.2,0,0.3-0.1,0.3-0.3c0,0,0-0.1,0-0.1c-0.1-0.2-0.3-0.4-0.6-0.4
				c-0.2,0-0.3,0.1-0.3,0.3C45.8,284.8,45.8,284.9,45.8,284.9z"/>
			<path class="st18" d="M45.9,284.9c0.1,0.2,0.2,0.4,0.5,0.4c0.2,0,0.3-0.1,0.3-0.3c0,0,0-0.1,0-0.1c-0.1-0.2-0.3-0.4-0.5-0.4
				c-0.1,0-0.3,0.1-0.3,0.2C45.9,284.9,45.9,284.9,45.9,284.9z"/>
			<path class="st1" d="M45.9,284.8c0-0.1,0-0.2,0-0.2c0,0,0.1,0,0.1,0c0.2,0,0.4,0.2,0.5,0.4c0,0.1,0,0.2,0,0.2c0,0-0.1,0-0.1,0
				C46.2,285.2,46,285,45.9,284.8z"/>
			<path class="st18" d="M46.1,284.9c0,0.1,0.1,0.2,0.2,0.2c0.1,0,0.1,0,0.1-0.1c0,0,0,0,0-0.1c0-0.1-0.1-0.2-0.2-0.2
				C46.2,284.8,46.1,284.8,46.1,284.9C46.1,284.9,46.1,284.9,46.1,284.9z"/>
			<polygon class="st0" points="27.4,248 9.7,258.2 12.2,259.7 79.4,313.4 82,311.9 14.8,258.2 29.9,249.4 			"/>
		</g>
	</g>
</g>
</svg>
