<?xml version="1.0" encoding="utf-8"?>
<!-- Generator: Adobe Illustrator 22.1.0, SVG Export Plug-In . SVG Version: 6.00 Build 0)  -->
<svg version="1.1" id="Capa_1" xmlns="http://www.w3.org/2000/svg" xmlns:xlink="http://www.w3.org/1999/xlink" x="0px" y="0px"
	 viewBox="0 0 162 289.6" style="enable-background:new 0 0 162 289.6;" xml:space="preserve">
<style type="text/css">
	.st0{fill:#DADADA;}
	.st1{fill:#A6A6A6;}
	.st2{fill:#FF9047;}
	.st3{opacity:0.2;}
	.st4{opacity:0.5;enable-background:new    ;}
	.st5{fill:#FF832E;}
	.st6{fill:#C7C7C7;}
	.st7{fill:#212121;}
	.st8{opacity:0.2;enable-background:new    ;}
	.st9{fill:#D6D6D6;}
	.st10{fill:#CFCFCF;}
	.st11{fill:#BABABA;}
	.st12{fill:#808080;}
	.st13{opacity:0.1;enable-background:new    ;}
	.st14{opacity:0.1;fill:#FFFFFF;enable-background:new    ;}
	.st15{opacity:0.15;fill:#FFFFFF;enable-background:new    ;}
	.st16{opacity:0.2;fill:#FFFFFF;enable-background:new    ;}
	.st17{opacity:0.35;enable-background:new    ;}
</style>
<title>img__hacemos--Recurso 89</title>
<g>
	<g id="Capa_2_1_">
		<g id="Capa_13">
			
				<image style="overflow:visible;opacity:0.5;enable-background:new    ;" width="162" height="289" xlink:href="DD88EEE11F6A98A4.png"  transform="matrix(1 0 0 1 0 0.56)">
			</image>
			<polygon class="st0" points="23.5,145.1 59.1,124.7 59.1,201.3 23.5,221.6 			"/>
			<polygon class="st1" points="23.5,221.6 10.1,213.8 10.1,137.3 23.5,145.1 			"/>
			<polygon class="st2" points="22.8,149 22.8,205.7 13.1,200 13.1,143.3 			"/>
			<g class="st3">
				<polygon class="st4" points="14.4,144.1 14.4,200.7 18,202.8 18,146.2 				"/>
				<polygon class="st4" points="20.4,147.5 19,146.8 19,203.4 20.4,204.2 				"/>
			</g>
			<polygon class="st5" points="22.8,165.2 22.8,163.8 13.1,158.2 13.1,159.6 			"/>
			<polygon class="st5" points="13.1,151.4 22.8,157 22.8,155.7 13.1,150 			"/>
			<polygon class="st5" points="22.8,173.4 22.8,172 13.1,166.4 13.1,167.7 			"/>
			<polygon class="st5" points="22.8,197.7 22.8,196.3 13.1,190.7 13.1,192 			"/>
			<polygon class="st5" points="22.8,181.3 22.8,179.9 13.1,174.3 13.1,175.6 			"/>
			<polygon class="st5" points="22.8,189.5 22.8,188.1 13.1,182.5 13.1,183.9 			"/>
			<polygon class="st6" points="10.1,137.3 45.7,117 59.1,124.7 23.5,145.1 			"/>
			<polygon class="st1" points="72,193.8 5.7,155.5 5.7,232.2 72,270.2 			"/>
			<polygon class="st7" points="41.3,241.7 41.3,252.5 5.7,232.1 5.7,221.1 			"/>
			<polygon class="st8" points="41.3,241.7 41.3,252.5 5.7,232.1 5.7,221.1 			"/>
			<polygon class="st2" points="16.8,165.4 16.8,222.1 7.1,216.4 7.1,159.8 			"/>
			<g class="st3">
				<polygon class="st4" points="8.4,160.6 8.4,217.2 12,219.3 12,162.7 				"/>
				<polygon class="st4" points="14.4,164 13,163.2 13,219.9 14.4,220.7 				"/>
			</g>
			<polygon class="st5" points="16.8,181.7 16.8,180.3 7.1,174.6 7.1,176.1 			"/>
			<polygon class="st5" points="7.1,167.9 16.8,173.5 16.8,172.1 7.1,166.5 			"/>
			<polygon class="st5" points="16.8,189.9 16.8,188.5 7.1,182.9 7.1,184.2 			"/>
			<polygon class="st5" points="16.8,214.1 16.8,212.8 7.1,207.2 7.1,208.5 			"/>
			<polygon class="st5" points="16.8,197.7 16.8,196.4 7.1,190.8 7.1,192.1 			"/>
			<polygon class="st5" points="16.8,206 16.8,204.6 7.1,199 7.1,200.3 			"/>
			<polygon class="st1" points="43.2,192.6 7.6,172.3 7.6,248.8 43.2,269.1 			"/>
			<polygon class="st9" points="43.2,269.1 56.7,261.4 56.7,184.9 43.2,192.6 			"/>
			<polygon class="st6" points="56.7,184.9 21.6,164.3 7.6,172.3 43.2,192.6 			"/>
			<polygon class="st10" points="127.1,144.2 91.5,123.8 91.5,200.3 127.1,220.6 			"/>
			<polygon class="st11" points="127.1,220.6 140.6,212.9 140.6,136.4 127.1,144.2 			"/>
			<polygon class="st6" points="140.6,136.4 104.9,116.1 91.5,123.8 127.1,144.2 			"/>
			<polygon class="st2" points="128.8,147.3 128.8,204 138.5,198.3 138.5,141.6 			"/>
			<g class="st3">
				<polygon class="st4" points="137.2,142.4 137.2,199 133.6,201.1 133.6,144.5 				"/>
				<polygon class="st4" points="131.2,145.9 132.6,145.1 132.6,201.7 131.2,202.5 				"/>
			</g>
			<polygon class="st5" points="128.8,163.6 128.8,162.1 138.5,156.5 138.5,157.9 			"/>
			<polygon class="st5" points="138.5,149.7 128.8,155.3 128.8,154 138.5,148.4 			"/>
			<polygon class="st5" points="128.8,171.7 128.8,170.3 138.5,164.7 138.5,166 			"/>
			<polygon class="st5" points="128.8,196 128.8,194.6 138.5,189 138.5,190.4 			"/>
			<polygon class="st5" points="128.8,179.6 128.8,178.2 138.5,172.6 138.5,173.9 			"/>
			<polygon class="st5" points="128.8,187.8 128.8,186.4 138.5,180.8 138.5,182.2 			"/>
			<polygon class="st9" points="72,193.8 142.3,152.9 142.3,229.5 72,270.2 			"/>
			<polygon class="st7" points="106.7,239 106.7,249.8 142.3,229.5 142.3,218.4 			"/>
			<polygon class="st2" points="130.5,165.4 130.5,222.1 140.2,216.4 140.2,159.8 			"/>
			<g class="st3">
				<polygon class="st4" points="139,160.6 139,217.2 135.3,219.3 135.3,162.7 				"/>
				<polygon class="st4" points="132.9,164 134.3,163.2 134.3,219.9 132.9,220.7 				"/>
			</g>
			<polygon class="st5" points="130.5,181.7 130.5,180.3 140.2,174.6 140.2,176.1 			"/>
			<polygon class="st5" points="140.2,167.9 130.5,173.5 130.5,172.1 140.2,166.5 			"/>
			<polygon class="st5" points="130.5,189.9 130.5,188.5 140.2,182.9 140.2,184.2 			"/>
			<polygon class="st5" points="130.5,214.1 130.5,212.8 140.2,207.2 140.2,208.5 			"/>
			<polygon class="st5" points="130.5,197.7 130.5,196.4 140.2,190.8 140.2,192.1 			"/>
			<polygon class="st5" points="130.5,206 130.5,204.6 140.2,199 140.2,200.3 			"/>
			<polygon class="st6" points="142.3,152.9 76.2,114.8 5.7,155.5 72,193.8 			"/>
			<polygon class="st9" points="103.2,191 138.8,170.6 138.8,247.1 103.2,267.5 			"/>
			<polygon class="st1" points="103.2,267.5 89.7,259.7 89.7,183.2 103.2,191 			"/>
			<polygon class="st6" points="89.7,183.2 125.3,162.9 138.8,170.6 103.2,191 			"/>
			<polygon class="st0" points="38.3,92 63.5,77.7 63.5,131.7 38.3,146.1 			"/>
			<polygon class="st1" points="38.3,146.1 28.8,140.6 28.8,86.6 38.3,92 			"/>
			<polygon class="st2" points="39.6,95.8 39.6,135.1 30.2,129.7 30.2,90.4 			"/>
			<g class="st3">
				<polygon class="st4" points="31.1,91 31.1,130.2 34.8,132.3 34.8,93 				"/>
				<polygon class="st4" points="37.1,94.4 35.8,93.6 35.8,132.9 37.1,133.7 				"/>
			</g>
			<polygon class="st5" points="39.6,104 39.6,102.5 30.2,97.1 30.2,98.6 			"/>
			<polygon class="st5" points="39.6,112.1 39.6,110.7 30.2,105.3 30.2,106.7 			"/>
			<polygon class="st5" points="39.6,120 39.6,118.6 30.2,113.2 30.2,114.6 			"/>
			<polygon class="st5" points="39.6,128.2 39.6,126.8 30.2,121.4 30.2,122.8 			"/>
			<polygon class="st6" points="28.8,86.6 54,72.2 63.5,77.7 38.3,92 			"/>
			<polygon class="st1" points="72.6,126.5 25.7,99.4 25.7,153.6 72.6,180.5 			"/>
			<polygon class="st2" points="36.8,111.5 36.8,150.8 27.5,145.4 27.5,106.1 			"/>
			<g class="st3">
				<polygon class="st4" points="28.4,106.6 28.4,145.9 32,148 32,108.7 				"/>
				<polygon class="st4" points="34.4,110.1 33,109.3 33,148.6 34.4,149.4 				"/>
			</g>
			<polygon class="st5" points="36.8,119.6 36.8,118.2 27.5,112.8 27.5,114.3 			"/>
			<polygon class="st5" points="36.8,127.8 36.8,126.4 27.5,121 27.5,122.4 			"/>
			<polygon class="st5" points="36.8,135.6 36.8,134.3 27.5,128.9 27.5,130.3 			"/>
			<polygon class="st5" points="36.8,143.9 36.8,142.5 27.5,137.1 27.5,138.5 			"/>
			<polygon class="st1" points="52.3,125.6 27.1,111.3 27.1,165.4 52.3,179.7 			"/>
			<polygon class="st9" points="52.3,179.7 61.8,174.2 61.8,120.2 52.3,125.6 			"/>
			<polygon class="st6" points="61.8,120.2 37.4,105.3 27.1,111.3 52.3,125.6 			"/>
			<polygon class="st10" points="111.6,91.4 86.4,77 86.4,131.1 111.6,145.5 			"/>
			<polygon class="st9" points="111.6,145.5 121.1,140 121.1,85.9 111.6,91.4 			"/>
			<polygon class="st2" points="109.8,96.1 109.8,135.4 119.5,129.7 119.5,90.5 			"/>
			<g class="st3">
				<polygon class="st4" points="118.2,91.3 118.2,130.5 114.6,132.6 114.6,93.4 				"/>
				<polygon class="st4" points="112.2,94.7 113.6,93.9 113.6,133.2 112.2,134 				"/>
			</g>
			<polygon class="st5" points="109.8,104.3 109.8,102.8 119.5,97.2 119.5,98.6 			"/>
			<polygon class="st5" points="109.8,112.4 109.8,111 119.5,105.4 119.5,106.8 			"/>
			<polygon class="st5" points="109.8,120.3 109.8,118.9 119.5,113.3 119.5,114.6 			"/>
			<polygon class="st5" points="109.8,128.5 109.8,127.1 119.5,121.5 119.5,122.9 			"/>
			<polygon class="st6" points="121.1,85.9 95.9,71.5 86.4,77 111.6,91.4 			"/>
			<polygon class="st9" points="72.6,126.5 122.3,97.6 122.3,151.7 72.6,180.5 			"/>
			<polygon class="st2" points="110.8,112.2 110.8,151.5 120.6,145.8 120.6,106.6 			"/>
			<g class="st3">
				<polygon class="st4" points="119.3,107.3 119.3,146.6 115.6,148.7 115.6,109.4 				"/>
				<polygon class="st4" points="113.3,110.8 114.6,110 114.6,149.3 113.3,150.1 				"/>
			</g>
			<polygon class="st5" points="110.8,120.4 110.8,118.9 120.6,113.3 120.6,114.7 			"/>
			<polygon class="st5" points="110.8,128.5 110.8,127.1 120.6,121.5 120.6,122.9 			"/>
			<polygon class="st5" points="110.8,136.4 110.8,135 120.6,129.4 120.6,130.7 			"/>
			<polygon class="st5" points="110.8,144.6 110.8,143.2 120.6,137.6 120.6,139 			"/>
			<polygon class="st6" points="122.3,97.6 75.6,70.6 25.7,99.4 72.6,126.5 			"/>
			<polygon class="st9" points="94.6,124.5 119.8,110.1 119.8,164.2 94.6,178.5 			"/>
			<polygon class="st1" points="94.6,178.5 85.1,173.1 85.1,119.2 94.6,124.5 			"/>
			<polygon class="st6" points="84.9,119.1 109.4,104.1 119.8,110.1 94.6,124.5 			"/>
			<polygon class="st12" points="53.7,74.9 33.7,86.5 43.5,92.2 30.9,99.4 41.7,105.6 32.2,111.1 52.3,122.8 61.8,117.3 72.6,123.5 
				85.1,116.2 94.6,121.7 114.7,110.1 105.2,104.6 117.3,97.6 106.6,91.4 116,85.9 95.8,74.3 			"/>
			<polygon class="st1" points="95.9,74.2 95.9,77.1 113.5,87.4 116,85.9 			"/>
			<polygon class="st9" points="53.8,74.8 53.8,77.6 36.2,87.9 33.7,86.5 			"/>
			<polygon class="st1" points="73.3,59.3 50.3,46 50.3,100 73.3,113.2 			"/>
			<polygon class="st9" points="73.3,59.3 97.7,45.1 97.7,99.1 73.3,113.2 			"/>
			<polygon class="st6" points="97.7,45.1 74.8,31.8 50.3,46 73.3,59.3 			"/>
			<polygon class="st12" points="93.9,45.1 74.6,34 54.1,45.9 73.4,57.1 			"/>
			<polygon class="st2" points="106.2,196 135.6,178.9 135.6,235.5 106.2,252.5 			"/>
			<g class="st3">
				<polygon class="st4" points="120.9,244 124.6,241.9 124.6,185.3 120.9,187.4 				"/>
				<polygon class="st4" points="127.7,240.1 133,237 133,180.5 127.7,183.5 				"/>
				<polygon class="st4" points="109.3,250.8 118.3,245.5 118.3,189 109.3,194.2 				"/>
			</g>
			<polygon class="st5" points="106.2,221.1 135.6,204.2 135.6,202.8 106.2,219.8 			"/>
			<polygon class="st5" points="106.2,237.2 135.6,220.3 135.6,218.9 106.2,235.9 			"/>
			<polygon class="st5" points="106.2,204.8 135.6,187.8 135.6,186.5 106.2,203.4 			"/>
			<polygon class="st5" points="135.6,228.5 135.6,227.1 106.2,244.1 106.2,245.4 			"/>
			<polygon class="st5" points="135.6,196 135.6,194.6 106.2,211.5 106.2,213 			"/>
			<polygon class="st5" points="135.6,212 135.6,210.7 106.2,227.6 106.2,229 			"/>
			<polygon class="st2" points="117.9,120.3 96.4,132.7 96.4,172.2 117.9,159.8 			"/>
			<polygon class="st13" points="110.8,124.4 107.2,126.5 107.2,166 110.8,163.9 			"/>
			<polygon class="st13" points="96.4,172.2 104.6,167.5 104.6,128 96.4,132.7 			"/>
			<polygon class="st13" points="117.9,120.3 114,122.5 114,162 117.9,159.8 			"/>
			<polygon class="st5" points="117.9,143.3 96.4,155.8 96.4,157.1 117.9,144.7 			"/>
			<polygon class="st5" points="96.4,147.9 96.4,149.2 117.9,136.8 117.9,135.4 			"/>
			<polygon class="st5" points="96.4,139.6 96.4,141.1 117.9,128.7 117.9,127.2 			"/>
			<polygon class="st5" points="117.9,151.6 96.4,164 96.4,165.3 117.9,152.9 			"/>
			<polygon class="st2" points="28.7,120.3 50.2,132.7 50.2,172.2 28.7,159.8 			"/>
			<polygon class="st13" points="35.8,124.4 39.5,126.5 39.5,166 35.8,163.9 			"/>
			<polygon class="st13" points="50.2,172.2 42.1,167.5 42.1,128 50.2,132.7 			"/>
			<polygon class="st13" points="28.7,120.3 32.6,122.5 32.6,162 28.7,159.8 			"/>
			<polygon class="st5" points="28.7,143.3 50.2,155.8 50.2,157.1 28.7,144.7 			"/>
			<polygon class="st5" points="50.2,147.9 50.2,149.2 28.7,136.8 28.7,135.4 			"/>
			<polygon class="st5" points="50.2,139.6 50.2,141.1 28.7,128.7 28.7,127.2 			"/>
			<polygon class="st5" points="28.7,151.6 50.2,164 50.2,165.3 28.7,152.9 			"/>
			<polygon class="st2" points="39.5,196 10.1,178.9 10.1,235.5 39.5,252.5 			"/>
			<g class="st3">
				<polygon class="st4" points="24.8,244 21.1,241.9 21.1,185.3 24.8,187.4 				"/>
				<polygon class="st4" points="18,240.1 12.7,237 12.7,180.5 18,183.5 				"/>
				<polygon class="st4" points="36.4,250.8 27.4,245.5 27.4,189 36.4,194.2 				"/>
			</g>
			<polygon class="st5" points="39.5,221.1 10.1,204.2 10.1,202.8 39.5,219.8 			"/>
			<polygon class="st5" points="39.5,237.2 10.1,220.3 10.1,218.9 39.5,235.9 			"/>
			<polygon class="st5" points="39.5,204.8 10.1,187.8 10.1,186.5 39.5,203.4 			"/>
			<polygon class="st5" points="10.1,228.5 10.1,227.1 39.5,244.1 39.5,245.4 			"/>
			<polygon class="st5" points="10.1,196 10.1,194.6 39.5,211.5 39.5,213 			"/>
			<polygon class="st5" points="10.1,212 10.1,210.7 39.5,227.6 39.5,229 			"/>
			<polygon class="st2" points="101.3,196.5 101.3,253.2 91.5,247.5 91.5,190.9 			"/>
			<g class="st3">
				<polygon class="st4" points="92.8,191.7 92.8,248.3 96.4,250.4 96.4,193.8 				"/>
				<polygon class="st4" points="98.8,195.1 97.4,194.3 97.4,251 98.8,251.8 				"/>
			</g>
			<polygon class="st5" points="101.3,212.8 101.3,211.4 91.5,205.8 91.5,207.2 			"/>
			<polygon class="st5" points="91.5,199 101.3,204.6 101.3,203.3 91.5,197.6 			"/>
			<polygon class="st5" points="101.3,220.9 101.3,219.6 91.5,214 91.5,215.3 			"/>
			<polygon class="st5" points="101.3,245.2 101.3,243.9 91.5,238.3 91.5,239.6 			"/>
			<polygon class="st5" points="101.3,228.8 101.3,227.5 91.5,221.9 91.5,223.2 			"/>
			<polygon class="st5" points="101.3,237.1 101.3,235.7 91.5,230.1 91.5,231.4 			"/>
			<polygon class="st2" points="68.9,196.5 68.9,253.2 59.1,247.5 59.1,190.9 			"/>
			<g class="st3">
				<polygon class="st4" points="60.4,191.7 60.4,248.3 64.1,250.4 64.1,193.8 				"/>
				<polygon class="st4" points="66.4,195.1 65.1,194.3 65.1,251 66.4,251.8 				"/>
			</g>
			<polygon class="st5" points="68.9,212.8 68.9,211.4 59.1,205.8 59.1,207.2 			"/>
			<polygon class="st5" points="59.1,199 68.9,204.6 68.9,203.3 59.1,197.6 			"/>
			<polygon class="st5" points="68.9,220.9 68.9,219.6 59.1,214 59.1,215.3 			"/>
			<polygon class="st5" points="68.9,245.2 68.9,243.9 59.1,238.3 59.1,239.6 			"/>
			<polygon class="st5" points="68.9,228.8 68.9,227.5 59.1,221.9 59.1,223.2 			"/>
			<polygon class="st5" points="68.9,237.1 68.9,235.7 59.1,230.1 59.1,231.4 			"/>
			<polygon class="st2" points="45.1,196.5 45.1,253.2 54.8,247.5 54.8,190.9 			"/>
			<g class="st3">
				<polygon class="st4" points="53.6,191.6 53.6,248.3 49.9,250.4 49.9,193.7 				"/>
				<polygon class="st4" points="47.5,195.1 48.9,194.3 48.9,251 47.5,251.8 				"/>
			</g>
			<polygon class="st5" points="45.1,212.8 45.1,211.3 54.8,205.7 54.8,207.2 			"/>
			<polygon class="st5" points="54.8,198.9 45.1,204.6 45.1,203.2 54.8,197.6 			"/>
			<polygon class="st5" points="45.1,220.9 45.1,219.5 54.8,213.9 54.8,215.3 			"/>
			<polygon class="st5" points="45.1,245.2 45.1,243.9 54.8,238.2 54.8,239.6 			"/>
			<polygon class="st5" points="45.1,228.8 45.1,227.4 54.8,221.8 54.8,223.2 			"/>
			<polygon class="st5" points="45.1,237 45.1,235.7 54.8,230 54.8,231.4 			"/>
			<polygon class="st2" points="75.7,196.5 75.7,253.2 85.4,247.5 85.4,190.9 			"/>
			<g class="st3">
				<polygon class="st4" points="84.1,191.6 84.1,248.3 80.5,250.4 80.5,193.7 				"/>
				<polygon class="st4" points="78.1,195.1 79.5,194.3 79.5,251 78.1,251.8 				"/>
			</g>
			<polygon class="st5" points="75.7,212.8 75.7,211.3 85.4,205.7 85.4,207.2 			"/>
			<polygon class="st5" points="85.4,198.9 75.7,204.6 75.7,203.2 85.4,197.6 			"/>
			<polygon class="st5" points="75.7,220.9 75.7,219.5 85.4,213.9 85.4,215.3 			"/>
			<polygon class="st5" points="75.7,245.2 75.7,243.9 85.4,238.2 85.4,239.6 			"/>
			<polygon class="st5" points="75.7,228.8 75.7,227.4 85.4,221.8 85.4,223.2 			"/>
			<polygon class="st5" points="75.7,237 75.7,235.7 85.4,230 85.4,231.4 			"/>
			<polygon class="st2" points="74.1,134.2 74.1,173.5 83.8,167.8 83.8,128.5 			"/>
			<g class="st3">
				<polygon class="st4" points="82.5,129.3 82.5,168.5 78.9,170.6 78.9,131.4 				"/>
				<polygon class="st4" points="76.5,132.8 77.9,132 77.9,171.2 76.5,172 				"/>
			</g>
			<polygon class="st5" points="74.1,142.3 74.1,140.8 83.8,135.2 83.8,136.7 			"/>
			<polygon class="st5" points="74.1,150.4 74.1,149.1 83.8,143.4 83.8,144.8 			"/>
			<polygon class="st5" points="74.1,158.3 74.1,157 83.8,151.3 83.8,152.7 			"/>
			<polygon class="st5" points="74.1,166.5 74.1,165.2 83.8,159.6 83.8,160.9 			"/>
			<polygon class="st2" points="75.2,65.5 75.2,104.9 85,99.2 85,59.9 			"/>
			<g class="st3">
				<polygon class="st4" points="83.7,60.7 83.7,99.9 80,102 80,62.8 				"/>
				<polygon class="st4" points="77.7,64.2 79,63.4 79,102.6 77.7,103.4 				"/>
			</g>
			<polygon class="st5" points="75.2,73.7 75.2,72.2 85,66.6 85,68.1 			"/>
			<polygon class="st5" points="75.2,81.8 75.2,80.5 85,74.8 85,76.2 			"/>
			<polygon class="st5" points="75.2,89.7 75.2,88.4 85,82.7 85,84.1 			"/>
			<polygon class="st5" points="75.2,97.9 75.2,96.6 85,91 85,92.3 			"/>
			<polygon class="st2" points="86.4,59 86.4,98.4 96.1,92.7 96.1,53.4 			"/>
			<g class="st3">
				<polygon class="st4" points="94.8,54.2 94.8,93.4 91.2,95.5 91.2,56.3 				"/>
				<polygon class="st4" points="88.8,57.7 90.2,56.9 90.2,96.1 88.8,96.9 				"/>
			</g>
			<polygon class="st5" points="86.4,67.2 86.4,65.7 96.1,60.1 96.1,61.6 			"/>
			<polygon class="st5" points="86.4,75.3 86.4,74 96.1,68.3 96.1,69.7 			"/>
			<polygon class="st5" points="86.4,83.2 86.4,81.8 96.1,76.2 96.1,77.6 			"/>
			<polygon class="st5" points="86.4,91.4 86.4,90.1 96.1,84.4 96.1,85.8 			"/>
			<polygon class="st2" points="72.2,65.5 72.2,104.9 62.5,99.2 62.5,59.9 			"/>
			<g class="st3">
				<polygon class="st4" points="63.8,60.7 63.8,99.9 67.4,102 67.4,62.8 				"/>
				<polygon class="st4" points="69.8,64.2 68.4,63.4 68.4,102.6 69.8,103.4 				"/>
			</g>
			<polygon class="st5" points="72.2,73.7 72.2,72.2 62.5,66.6 62.5,68.1 			"/>
			<polygon class="st5" points="72.2,81.8 72.2,80.5 62.5,74.8 62.5,76.2 			"/>
			<polygon class="st5" points="72.2,89.7 72.2,88.4 62.5,82.7 62.5,84.1 			"/>
			<polygon class="st5" points="72.2,97.9 72.2,96.6 62.5,91 62.5,92.3 			"/>
			<polygon class="st2" points="61.1,59 61.1,98.4 51.3,92.7 51.3,53.4 			"/>
			<g class="st3">
				<polygon class="st4" points="52.6,54.2 52.6,93.4 56.2,95.5 56.2,56.3 				"/>
				<polygon class="st4" points="58.6,57.7 57.2,56.9 57.2,96.1 58.6,96.9 				"/>
			</g>
			<polygon class="st5" points="61.1,67.2 61.1,65.7 51.3,60.1 51.3,61.6 			"/>
			<polygon class="st5" points="61.1,75.3 61.1,74 51.3,68.3 51.3,69.7 			"/>
			<polygon class="st5" points="61.1,83.2 61.1,81.8 51.3,76.2 51.3,77.6 			"/>
			<polygon class="st5" points="61.1,91.4 61.1,90.1 51.3,84.4 51.3,85.8 			"/>
			<polygon class="st2" points="71.7,133.9 71.7,173.3 62.3,167.8 62.3,128.5 			"/>
			<g class="st3">
				<polygon class="st4" points="63.2,129.1 63.2,168.3 66.9,170.4 66.9,131.2 				"/>
				<polygon class="st4" points="69.2,132.5 67.9,131.7 67.9,171 69.2,171.8 				"/>
			</g>
			<polygon class="st5" points="71.7,142.1 71.7,140.6 62.3,135.2 62.3,136.7 			"/>
			<polygon class="st5" points="71.7,150.2 71.7,148.8 62.3,143.4 62.3,144.8 			"/>
			<polygon class="st5" points="71.7,158.1 71.7,156.7 62.3,151.3 62.3,152.7 			"/>
			<polygon class="st5" points="71.7,166.3 71.7,164.9 62.3,159.5 62.3,160.9 			"/>
			<polygon class="st9" points="43.5,92.2 43.5,95 33.3,100.9 30.9,99.4 			"/>
			<polygon class="st9" points="41.7,105.6 41.7,108.5 34.6,112.6 32.2,111.1 			"/>
			<polygon class="st1" points="106.6,91.4 106.6,94.2 114.9,99 117.3,97.5 			"/>
			<polygon class="st1" points="105.2,104.5 105.2,107.4 112.3,111.5 114.8,110 			"/>
			<polygon class="st9" points="74.6,34 74.6,36.9 56.6,47.3 54.1,45.9 			"/>
			<polygon class="st1" points="74.7,34 74.7,36.9 91.4,46.6 93.9,45.1 			"/>
			<polygon class="st6" points="74.7,45 84.1,39.5 74.7,34 65.2,39.5 			"/>
			<polygon class="st9" points="84.1,39.5 84.1,43.1 74.7,48.5 74.7,45 			"/>
			<polygon class="st1" points="74.7,45 65.2,39.5 65.2,43.1 74.7,48.5 			"/>
			<polygon class="st6" points="73.4,55 77,52.9 73.4,50.8 69.8,52.9 			"/>
			<polygon class="st9" points="77,52.9 77,54.2 73.4,56.3 73.4,55 			"/>
			<polygon class="st1" points="73.4,55 69.8,52.9 69.8,54.2 73.4,56.3 			"/>
			<polygon class="st6" points="78.3,52 81.9,49.9 78.3,47.8 74.7,49.9 			"/>
			<polygon class="st9" points="81.9,49.9 81.9,51.2 78.3,53.3 78.3,52 			"/>
			<polygon class="st1" points="78.3,52 74.7,49.9 74.7,51.2 78.3,53.3 			"/>
			<polygon class="st7" points="66,43.6 66,41.4 67.2,42 67.2,44.2 			"/>
			<polygon class="st2" points="67.6,42.2 67.6,43.5 74.3,47.3 74.3,46.1 			"/>
			<polygon class="st13" points="68,43.7 69.3,44.5 69.3,43.2 68,42.5 			"/>
			<polygon class="st13" points="70.2,43.8 69.7,43.5 69.7,44.7 70.2,45 			"/>
			<polygon class="st13" points="73.8,45.8 73.3,45.5 73.3,46.8 73.8,47.1 			"/>
			<polygon class="st13" points="72.6,45.1 70.9,44.2 70.9,45.4 72.6,46.4 			"/>
			<path class="st14" d="M89.2,13.1c0,2.7-2.2,4.9-4.9,4.9c-2.7,0-4.9-2.2-4.9-4.9s2.2-4.9,4.9-4.9c0,0,0,0,0,0
				C87,8.2,89.2,10.4,89.2,13.1C89.2,13.1,89.2,13.1,89.2,13.1z"/>
			<path class="st15" d="M91.4,13.1c0,3.9-3.2,7.1-7.1,7.1c-3.9,0-7.1-3.2-7.2-7.1c0-3.9,3.2-7.1,7.1-7.2c0,0,0,0,0,0
				C88.2,6,91.4,9.2,91.4,13.1z"/>
			<path class="st16" d="M87,13.1c0,1.5-1.2,2.7-2.7,2.7c-1.5,0-2.7-1.2-2.7-2.7c0-1.5,1.2-2.7,2.7-2.7c0,0,0,0,0,0
				C85.8,10.4,87,11.6,87,13.1z"/>
			<polygon class="st6" points="84.3,45.4 85,45 85,24.8 84.3,25.2 			"/>
			<polygon class="st11" points="84.3,45.4 83.6,45 83.6,24.8 84.3,25.2 			"/>
			<polygon class="st6" points="84.3,50.3 85,49.9 85,29.8 84.3,30.2 			"/>
			<polygon class="st11" points="84.3,50.3 83.6,49.9 83.6,29.8 84.3,30.2 			"/>
			<polygon class="st6" points="80,47.9 80.7,47.5 80.7,27.3 80,27.7 			"/>
			<polygon class="st11" points="80,47.9 79.3,47.5 79.3,27.3 80,27.7 			"/>
			<polygon class="st6" points="88.6,47.8 89.3,47.4 89.3,27.3 88.6,27.7 			"/>
			<polygon class="st11" points="88.6,47.8 87.9,47.4 87.9,27.2 88.6,27.7 			"/>
			<polygon class="st11" points="79.3,26.1 84.3,29 84.3,30.2 79.3,27.3 			"/>
			<polygon class="st6" points="89.3,27.3 89.3,26.1 84.3,29 84.3,30.2 			"/>
			<path class="st10" d="M84.3,23.2l-5,2.9l5,2.9l5-2.9L84.3,23.2z M84.3,28.2l-3.6-2.1l3.6-2.1l3.6,2.1L84.3,28.2z"/>
			<polygon class="st11" points="84.3,24 84.3,25.2 86.8,26.7 87.9,26.1 			"/>
			<polygon class="st11" points="84.3,25.2 81.8,26.7 80.7,26.1 84.3,24 			"/>
			<polygon class="st10" points="80.7,33.1 80,33.5 83.6,35.6 83.6,34.8 			"/>
			<polygon class="st11" points="83.6,35.6 83.6,36.4 80,34.4 80,33.5 			"/>
			<polygon class="st10" points="87.9,33.1 88.6,33.5 85,35.6 85,34.8 			"/>
			<polygon class="st11" points="85,35.6 85,36.5 88.6,34.4 88.6,33.5 			"/>
			<polygon class="st10" points="80.7,32.3 83.6,30.6 83.6,31.4 80.7,33.1 			"/>
			<polygon class="st11" points="80.7,33.1 81.4,33.5 83.6,32.3 83.6,31.4 			"/>
			<polygon class="st11" points="87.9,33.1 85,31.4 85,32.3 87.2,33.5 			"/>
			<polygon class="st10" points="85,31.4 85,30.6 87.9,32.3 87.9,33.1 			"/>
			<polygon class="st10" points="80.7,40.1 80,40.5 83.6,42.6 83.6,41.8 			"/>
			<polygon class="st11" points="83.6,42.6 83.6,43.5 80,41.4 80,40.5 			"/>
			<polygon class="st10" points="87.9,40.1 88.6,40.5 85,42.7 85,41.8 			"/>
			<polygon class="st11" points="85,42.7 85,43.5 88.6,41.4 88.6,40.5 			"/>
			<polygon class="st10" points="80.7,39.3 83.6,37.6 83.6,38.5 80.7,40.1 			"/>
			<polygon class="st11" points="80.7,40.1 81.4,40.5 83.6,39.3 83.6,38.5 			"/>
			<polygon class="st11" points="87.9,40.1 85,38.5 85,39.3 87.2,40.6 			"/>
			<polygon class="st10" points="85,38.5 85,37.6 87.9,39.3 87.9,40.1 			"/>
			<polygon class="st11" points="84.3,29 84.3,14.2 83.6,28.6 			"/>
			<polygon class="st6" points="84.3,29 85,28.6 84.3,14.2 			"/>
			<polygon class="st11" points="79.3,26.1 84.3,14.2 80,26.5 			"/>
			<polygon class="st6" points="84.3,14.2 89.3,26.1 88.6,26.5 			"/>
			<polygon class="st6" points="80,26.5 80.7,26.1 84.3,14.2 			"/>
			<polygon class="st11" points="84.3,14.2 88.6,26.5 87.9,26.1 			"/>
			<path class="st6" d="M85.3,13.1c0,0.6-0.4,1-1,1s-1-0.4-1-1s0.4-1,1-1S85.3,12.6,85.3,13.1z"/>
			<polygon class="st7" points="7.6,237.8 43.3,258.3 56.8,250.6 72,259.4 89.7,249.2 103.2,257 138.8,236.4 138.8,247.1 
				103.2,267.5 89.7,259.7 72,270.2 56.7,261.4 43.2,269.1 7.6,248.8 			"/>
			<polygon class="st8" points="43.3,258.3 43.3,269.1 7.6,248.8 7.6,237.8 			"/>
			<polygon class="st8" points="56.8,250.6 56.8,261.4 72,270.2 72,259.4 			"/>
			<polygon class="st8" points="89.7,249.2 89.7,259.7 103.2,267.5 103.2,257 			"/>
			<polygon class="st17" points="106.2,257.1 115.3,251.9 115.3,257.6 106.2,262.9 			"/>
			<polygon class="st17" points="135.6,240.1 135.6,245.9 126.5,251.2 126.5,245.4 			"/>
			<polygon class="st17" points="116.3,260 116.3,251.3 125.5,246 125.5,254.7 			"/>
			<polygon class="st17" points="39.4,258.3 30.4,253.1 30.4,258.9 39.5,264.1 			"/>
			<polygon class="st17" points="10.1,241.4 10.1,247.1 19.2,252.4 19.2,246.6 			"/>
			<polygon class="st17" points="29.4,261.2 29.4,252.5 20.2,247.2 20.2,255.9 			"/>
		</g>
	</g>
</g>
</svg>
