<?xml version="1.0" encoding="utf-8"?>
<!-- Generator: Adobe Illustrator 22.1.0, SVG Export Plug-In . SVG Version: 6.00 Build 0)  -->
<svg version="1.1" id="Capa_1" xmlns="http://www.w3.org/2000/svg" xmlns:xlink="http://www.w3.org/1999/xlink" x="0px" y="0px"
	 viewBox="0 0 244 213" style="enable-background:new 0 0 244 213;" xml:space="preserve">
<style type="text/css">
	.st0{opacity:0.1;enable-background:new    ;}
	.st1{fill:#1B1B1B;}
	.st2{fill:#CFCFCF;}
	.st3{fill:#FFFFFF;}
	.st4{fill:#D5D5D5;}
	.st5{fill:#212121;}
	.st6{fill:#C7C7C7;}
	.st7{fill:#BABABA;}
	.st8{fill:#B1B1B1;}
	.st9{fill:#949494;}
	.st10{fill:#E47330;}
	.st11{fill:#E68057;}
	.st12{fill:#E7927B;}
	.st13{fill:#FF8C41;}
	.st14{font-family:'SourceSansPro-Regular';}
	.st15{font-size:0.95px;}
	.st16{fill:#DDDDDD;}
	.st17{fill:#A3A3A3;}
	.st18{fill:#A5A5A5;}
	.st19{fill:#E7E7E7;}
	.st20{fill:#808080;}
	.st21{opacity:0.2;}
	.st22{fill:#E6805E;}
	.st23{opacity:0.2;enable-background:new    ;}
	.st24{font-size:4.61px;}
	.st25{opacity:0.1;fill:#FFFFFF;enable-background:new    ;}
	.st26{opacity:0.15;fill:#FFFFFF;enable-background:new    ;}
	.st27{opacity:0.2;fill:#FFFFFF;enable-background:new    ;}
</style>
<title>img__hacemos--Recurso 90</title>
<g>
	<g id="Capa_2_1_">
		<g id="Capa_13">
			
				<image style="overflow:visible;opacity:0.5;enable-background:new    ;" width="244" height="204" xlink:href="B1D01707336226DE.png"  transform="matrix(1 0 0 1 0 9)">
			</image>
			<polygon class="st0" points="210.1,154.8 200.5,160.2 197,158.1 206.7,152.8 			"/>
			<path class="st1" d="M207.8,153.9c-0.5,0-1,0.4-1.1,0.9c-0.1,0.3,0,0.6,0.3,0.8l0,0l0.5,0.3v-0.2c0.5-0.1,0.9-0.4,1-0.9
				c0.1-0.3-0.1-0.7-0.4-0.8C207.9,153.9,207.8,153.9,207.8,153.9z"/>
			<path class="st1" d="M201.8,157.2c-0.5,0-1,0.4-1.1,0.9c-0.1,0.3,0,0.6,0.3,0.8l0,0l0.5,0.3V159c0.5-0.1,0.9-0.4,1-0.9
				c0.1-0.3-0.1-0.7-0.4-0.8C202,157.2,201.9,157.2,201.8,157.2z"/>
			<path class="st2" d="M209.9,150.3v3.3c0,0.1-0.1,0.2-0.1,0.2l-9.3,5.4V157l3.6-4.7l4.2-1.5L209.9,150.3z"/>
			<polygon class="st3" points="199,152.9 206.6,148.4 209.9,150.3 202.2,154.8 			"/>
			<polygon class="st4" points="198.1,154.6 197.2,155.2 200.5,157.1 201.4,156.5 			"/>
			<polygon class="st5" points="197.2,155.3 197.2,156.9 200.5,158.8 200.5,157.2 			"/>
			<polygon class="st6" points="197.3,157 197.2,156.9 197.2,155.2 200.5,157.1 200.5,158.8 200.4,158.7 200.4,157.1 197.3,155.3 
							"/>
			<polygon class="st7" points="197.2,156.8 197.1,156.9 200.5,158.9 200.8,158.7 200.7,158.6 200.5,158.8 197.2,156.9 			"/>
			<polygon class="st6" points="197.1,156.9 197.1,157.3 200.5,159.3 200.5,158.9 			"/>
			<polygon class="st7" points="200.5,159.3 200.8,159.1 200.8,158.7 200.5,158.9 			"/>
			<polygon class="st3" points="197.9,155.8 197.4,155.5 197.4,156.1 197.9,156.3 			"/>
			<polygon class="st8" points="197.4,155.5 197.3,155.4 197.3,156 197.4,156.1 			"/>
			<polygon class="st3" points="199.8,157.4 200.2,157.7 200.2,157.1 199.8,156.8 			"/>
			<polygon class="st8" points="200.2,157.7 200.3,157.8 200.3,157.2 200.2,157.1 			"/>
			<polygon class="st1" points="198,155.8 198,155.9 199.7,156.9 199.7,156.8 			"/>
			<polygon class="st1" points="198,156 198,156.1 199.7,157.1 199.7,157 			"/>
			<polygon class="st1" points="198,156.2 198,156.3 199.7,157.3 199.7,157.2 			"/>
			<polygon class="st1" points="198,156.4 198,156.5 199.7,157.5 199.7,157.4 			"/>
			<polygon class="st1" points="198,156.6 198,156.7 199.7,157.7 199.7,157.6 			"/>
			<polygon class="st1" points="198,156.8 198,156.9 199.7,157.9 199.7,157.8 			"/>
			<polygon class="st1" points="198,157 198,157.1 199.7,158.1 199.7,158 			"/>
			<polygon class="st5" points="204.1,154.1 202.3,155.1 201.7,156.4 204.1,155 			"/>
			<path class="st5" d="M202.9,158.4c-0.2,0.5-0.6,0.9-1.1,0.9c-0.4,0-0.7-0.3-0.7-0.6c0-0.1,0-0.2,0-0.3c0.2-0.5,0.6-0.9,1.1-0.9
				c0.4,0,0.7,0.3,0.7,0.6C203,158.2,203,158.3,202.9,158.4z"/>
			<path class="st6" d="M202.6,158.4c-0.1,0.3-0.3,0.5-0.6,0.5c-0.2,0-0.4-0.1-0.4-0.4c0-0.1,0-0.1,0-0.2c0.1-0.3,0.3-0.5,0.6-0.5
				c0.2,0,0.4,0.2,0.4,0.4C202.6,158.3,202.6,158.3,202.6,158.4z"/>
			<path class="st9" d="M202.5,158.4c-0.1,0.2-0.3,0.4-0.6,0.4c-0.2,0-0.3-0.1-0.3-0.3c0,0,0-0.1,0-0.1c0.1-0.2,0.3-0.4,0.6-0.4
				c0.2,0,0.3,0.1,0.3,0.3C202.5,158.3,202.5,158.3,202.5,158.4z"/>
			<path class="st7" d="M202.4,158.3c0-0.1,0-0.2,0-0.3c-0.1,0-0.1,0-0.2,0c-0.3,0-0.5,0.2-0.6,0.4c0,0.1,0,0.2,0,0.3
				c0.1,0,0.1,0,0.2,0C202.1,158.7,202.3,158.5,202.4,158.3z"/>
			<path class="st9" d="M202.3,158.4c0,0.1-0.1,0.2-0.2,0.2c-0.1,0-0.1-0.1-0.1-0.2c0,0,0,0,0,0c0-0.1,0.1-0.2,0.2-0.2
				C202.2,158.2,202.3,158.2,202.3,158.4C202.3,158.3,202.3,158.4,202.3,158.4z"/>
			<path class="st5" d="M208.9,155.1c-0.2,0.5-0.6,0.9-1.1,0.9c-0.4,0-0.7-0.3-0.7-0.6c0-0.1,0-0.2,0-0.3c0.2-0.5,0.6-0.9,1.1-0.9
				c0.4,0,0.7,0.3,0.7,0.6C208.9,154.9,208.9,155,208.9,155.1z"/>
			<path class="st6" d="M208.5,155.1c-0.1,0.3-0.3,0.5-0.6,0.5c-0.2,0-0.4-0.1-0.4-0.4c0-0.1,0-0.1,0-0.2c0.1-0.3,0.3-0.5,0.6-0.5
				c0.2,0,0.4,0.2,0.4,0.4C208.5,155,208.5,155,208.5,155.1z"/>
			<path class="st9" d="M208.4,155.1c-0.1,0.2-0.3,0.4-0.6,0.4c-0.2,0-0.3-0.1-0.3-0.3c0,0,0-0.1,0-0.1c0.1-0.2,0.3-0.4,0.6-0.4
				c0.2,0,0.3,0.1,0.3,0.3C208.5,155,208.4,155,208.4,155.1z"/>
			<path class="st7" d="M208.3,154.9c0-0.1,0-0.2,0-0.3c-0.1,0-0.1,0-0.2,0c-0.3,0-0.5,0.2-0.6,0.4c0,0.1,0,0.2,0,0.3
				c0.1,0,0.1,0,0.2,0C208,155.4,208.2,155.2,208.3,154.9z"/>
			<path class="st9" d="M208.2,155.1c0,0.1-0.1,0.2-0.2,0.2c-0.1,0-0.1-0.1-0.1-0.2c0,0,0,0,0,0c0-0.1,0.1-0.2,0.2-0.2
				C208.1,154.9,208.2,154.9,208.2,155.1C208.2,155,208.2,155,208.2,155.1z"/>
			<polygon class="st5" points="199.1,153 198.2,154.7 201.2,156.4 202.1,154.7 			"/>
			<polygon class="st4" points="199,152.9 198.1,154.6 198.2,154.7 199.1,153 			"/>
			<polygon class="st4" points="202.2,154.8 201.4,156.5 201.2,156.4 202.1,154.7 			"/>
			<polygon class="st10" points="200.5,157.7 200.5,158.4 209.9,152.9 209.9,152.2 			"/>
			<polygon class="st10" points="202.7,153.8 199.7,152.2 199.7,152.6 202.7,154.3 			"/>
			<polygon class="st11" points="202.7,153.8 203.4,153.4 203.4,153.9 202.7,154.3 			"/>
			<polygon class="st12" points="203.4,153.4 200.5,151.7 199.7,152.2 202.7,153.8 			"/>
			<polygon class="st4" points="202,152.6 201.6,152.4 200.9,152.8 201.2,153 			"/>
			<polygon class="st2" points="201.2,153 201.2,153.5 200.9,153.3 200.9,152.8 			"/>
			<polygon class="st13" points="209.4,151.4 209.3,151.6 209.4,151.3 209.2,151.2 209.1,151.4 209.1,151.2 208.9,151.3 
				208.9,151.6 208.7,151.5 208.6,151.8 208.7,151.9 208.5,152 208.5,152.3 208.7,152.2 208.6,152.4 208.7,152.6 208.9,152.3 
				208.9,152.6 209.1,152.4 209.1,152.2 209.2,152.3 209.4,152 209.3,151.8 209.4,151.7 			"/>
			<text transform="matrix(0.75 -0.43 0 1 204.7596 154.7601)" class="st10 st14 st15">AMBULANCE</text>
			<polygon class="st16" points="222.7,159.7 224.3,158.8 224.3,147.1 222.7,148.2 			"/>
			<polygon class="st17" points="222.7,159.7 221.2,158.8 221.2,148.9 222.7,148.2 			"/>
			<polygon class="st18" points="58.2,151.4 5.9,121.2 5.9,163 58.2,193.8 			"/>
			<polygon class="st16" points="58.2,193.8 139.7,146.8 139.7,104.3 58.2,151.4 			"/>
			<polygon class="st19" points="139.7,104.3 87.3,74.4 5.9,121.2 58.2,151.4 			"/>
			<polygon class="st19" points="87.3,74.4 138.4,44.9 224.3,94.5 173.4,124.3 139.7,104.3 116.7,104.3 			"/>
			<polygon class="st16" points="224.3,94.5 224.3,136.9 173.4,166.3 173.4,123.9 191.7,113.3 			"/>
			<polygon class="st17" points="173.4,123.9 139.7,104.3 139.7,146.8 173.4,166.3 			"/>
			<polygon class="st20" points="223.5,124.7 223.5,132.9 208.2,141.7 208.2,133.5 			"/>
			<g class="st21">
				<polygon points="210,140.7 213.7,138.5 213.7,130.3 210,132.5 				"/>
				<polygon points="217.9,136.1 221.6,134 221.6,125.8 217.9,127.9 				"/>
				<polygon points="215.1,137.7 216.6,136.8 216.6,128.7 215.1,129.6 				"/>
			</g>
			<polygon class="st20" points="223.5,124.7 222.7,125.1 222.7,132.4 208.2,140.7 208.2,141.7 223.5,132.9 			"/>
			<polygon class="st20" points="192.5,155.2 192.5,142.7 205.2,135.3 205.1,147.9 			"/>
			<polygon class="st22" points="224.3,146.3 205.2,135.3 192.5,142.7 211.5,153.7 			"/>
			<polygon class="st16" points="224.3,146.3 224.3,147.6 211.5,155.1 211.5,153.7 			"/>
			<polygon class="st17" points="192.5,142.7 192.5,144.1 211.5,155.1 211.5,153.7 			"/>
			<polygon class="st16" points="213,153.7 213,165.3 211.5,166.2 211.5,154.7 			"/>
			<polygon class="st17" points="210,152.8 210,165.3 211.5,166.2 211.5,153.7 			"/>
			<polygon class="st20" points="175.1,142.7 181.4,139 181.4,142.7 175.1,146.3 			"/>
			<polygon class="st20" points="180.7,139.4 180.7,142.4 175.1,145.6 175.1,146.3 181.4,142.7 181.4,139 			"/>
			<polygon class="st20" points="183.4,137.8 189.7,134.2 189.7,137.8 183.4,141.5 			"/>
			<polygon class="st20" points="189.1,134.6 189.1,137.5 183.4,140.8 183.4,141.5 189.7,137.8 189.7,134.2 			"/>
			<polygon class="st20" points="191.7,133.1 198,129.4 198,133.1 191.7,136.7 			"/>
			<polygon class="st20" points="197.4,129.8 197.4,132.7 191.7,136 191.7,136.7 198,133.1 198,129.4 			"/>
			<polygon class="st20" points="200,128.4 206.3,124.7 206.3,128.4 200,132 			"/>
			<polygon class="st20" points="205.6,125.1 205.6,128 200,131.3 200,132 206.3,128.4 206.3,124.7 			"/>
			<polygon class="st20" points="208.3,123.5 214.6,119.8 214.6,123.5 208.3,127.2 			"/>
			<polygon class="st20" points="214,120.2 214,123.2 208.3,126.4 208.3,127.2 214.6,123.5 214.6,119.8 			"/>
			<polygon class="st20" points="216.6,118.6 222.9,115 222.9,118.6 216.6,122.3 			"/>
			<polygon class="st20" points="222.3,115.3 222.3,118.3 216.6,121.6 216.6,122.3 222.9,118.6 222.9,115 			"/>
			<polygon class="st20" points="175.1,136.7 181.4,133.1 181.4,136.7 175.1,140.4 			"/>
			<polygon class="st20" points="180.7,133.4 180.7,136.4 175.1,139.7 175.1,140.4 181.4,136.7 181.4,133.1 			"/>
			<polygon class="st20" points="183.4,131.9 189.7,128.2 189.7,131.9 183.4,135.5 			"/>
			<polygon class="st20" points="189.1,128.6 189.1,131.6 183.4,134.8 183.4,135.5 189.7,131.9 189.7,128.2 			"/>
			<polygon class="st20" points="191.7,127.1 198,123.4 198,127.1 191.7,130.7 			"/>
			<polygon class="st20" points="197.4,123.8 197.4,126.8 191.7,130 191.7,130.7 198,127.1 198,123.4 			"/>
			<polygon class="st20" points="200,122.4 206.3,118.7 206.3,122.4 200,126 			"/>
			<polygon class="st20" points="205.6,119.1 205.6,122.1 200,125.3 200,126 206.3,122.4 206.3,118.7 			"/>
			<polygon class="st20" points="208.3,117.6 214.6,113.9 214.6,117.6 208.3,121.2 			"/>
			<polygon class="st20" points="214,114.3 214,117.2 208.3,120.5 208.3,121.2 214.6,117.6 214.6,113.9 			"/>
			<polygon class="st20" points="216.6,112.7 222.9,109 222.9,112.7 216.6,116.3 			"/>
			<polygon class="st20" points="222.3,109.4 222.3,112.4 216.6,115.6 216.6,116.3 222.9,112.7 222.9,109 			"/>
			<polygon class="st20" points="175.1,130.8 181.4,127.1 181.4,130.8 175.1,134.4 			"/>
			<polygon class="st20" points="180.7,127.5 180.7,130.5 175.1,133.7 175.1,134.4 181.4,130.8 181.4,127.1 			"/>
			<polygon class="st20" points="183.4,126 189.7,122.3 189.7,126 183.4,129.6 			"/>
			<polygon class="st20" points="189.1,122.7 189.1,125.6 183.4,128.9 183.4,129.6 189.7,126 189.7,122.3 			"/>
			<polygon class="st20" points="191.7,121.2 198,117.5 198,121.2 191.7,124.8 			"/>
			<polygon class="st20" points="197.4,117.9 197.4,120.8 191.7,124.1 191.7,124.8 198,121.2 198,117.5 			"/>
			<polygon class="st20" points="200,116.5 206.3,112.8 206.3,116.5 200,120.1 			"/>
			<polygon class="st20" points="205.6,113.2 205.6,116.1 200,119.4 200,120.1 206.3,116.5 206.3,112.8 			"/>
			<polygon class="st20" points="172.1,130.9 165.8,127.2 165.8,130.9 172.1,134.5 			"/>
			<polygon class="st23" points="166.5,127.6 166.5,130.6 172.1,133.8 172.1,134.5 165.8,130.9 165.8,127.2 			"/>
			<polygon class="st20" points="163.8,126.1 157.5,122.4 157.5,126.1 163.8,129.7 			"/>
			<polygon class="st23" points="158.1,122.8 158.1,125.7 163.8,129 163.8,129.7 157.5,126.1 157.5,122.4 			"/>
			<polygon class="st20" points="155.5,121.3 149.2,117.6 149.2,121.3 155.5,124.9 			"/>
			<polygon class="st23" points="149.8,118 149.8,120.9 155.5,124.2 155.5,124.9 149.2,121.3 149.2,117.6 			"/>
			<polygon class="st20" points="147.2,116.6 140.9,112.9 140.9,116.6 147.2,120.2 			"/>
			<polygon class="st23" points="141.6,113.3 141.6,116.2 147.2,119.5 147.2,120.2 140.9,116.6 140.9,112.9 			"/>
			<polygon class="st20" points="172.1,136.9 165.8,133.2 165.8,136.9 172.1,140.5 			"/>
			<polygon class="st23" points="166.5,133.6 166.5,136.6 172.1,139.8 172.1,140.5 165.8,136.9 165.8,133.2 			"/>
			<polygon class="st20" points="163.8,132 157.5,128.4 157.5,132 163.8,135.7 			"/>
			<polygon class="st23" points="158.1,128.8 158.1,131.7 163.8,135 163.8,135.7 157.5,132 157.5,128.4 			"/>
			<polygon class="st20" points="155.5,127.2 149.2,123.6 149.2,127.2 155.5,130.9 			"/>
			<polygon class="st23" points="149.8,124 149.8,126.9 155.5,130.2 155.5,130.9 149.2,127.2 149.2,123.6 			"/>
			<polygon class="st20" points="147.2,122.6 140.9,118.9 140.9,122.6 147.2,126.2 			"/>
			<polygon class="st23" points="141.6,119.3 141.6,122.2 147.2,125.5 147.2,126.2 140.9,122.6 140.9,118.9 			"/>
			<polygon class="st20" points="172.1,142.9 165.8,139.2 165.8,142.9 172.1,146.5 			"/>
			<polygon class="st23" points="166.5,139.6 166.5,142.5 172.1,145.8 172.1,146.5 165.8,142.9 165.8,139.2 			"/>
			<polygon class="st20" points="163.8,138 157.5,134.3 157.5,138 163.8,141.6 			"/>
			<polygon class="st23" points="158.1,134.7 158.1,137.7 163.8,140.9 163.8,141.6 157.5,138 157.5,134.3 			"/>
			<polygon class="st20" points="155.5,133.2 149.2,129.5 149.2,133.2 155.5,136.8 			"/>
			<polygon class="st23" points="149.8,129.9 149.8,132.9 155.5,136.1 155.5,136.8 149.2,133.2 149.2,129.5 			"/>
			<polygon class="st20" points="147.2,128.5 140.9,124.8 140.9,128.5 147.2,132.2 			"/>
			<polygon class="st23" points="141.6,125.2 141.6,128.2 147.2,131.4 147.2,132.2 140.9,128.5 140.9,124.8 			"/>
			<polygon class="st20" points="55.8,157.6 49.4,153.9 49.4,157.6 55.8,161.2 			"/>
			<polygon class="st20" points="50.1,154.3 50.1,157.3 55.8,160.5 55.8,161.2 49.4,157.6 49.4,153.9 			"/>
			<polygon class="st20" points="47.4,152.8 41.1,149.1 41.1,152.8 47.4,156.4 			"/>
			<polygon class="st20" points="41.8,149.5 41.8,152.4 47.4,155.7 47.4,156.4 41.1,152.8 41.1,149.1 			"/>
			<polygon class="st20" points="39.1,148 32.8,144.3 32.8,148 39.1,151.6 			"/>
			<polygon class="st20" points="33.4,144.7 33.4,147.6 39.1,150.9 39.1,151.6 32.8,148 32.8,144.3 			"/>
			<polygon class="st20" points="30.9,143.3 24.6,139.6 24.6,143.3 30.9,146.9 			"/>
			<polygon class="st20" points="25.2,140 25.2,142.9 30.9,146.2 30.9,146.9 24.6,143.3 24.6,139.6 			"/>
			<polygon class="st20" points="55.8,163.6 49.4,159.9 49.4,163.6 55.8,167.2 			"/>
			<polygon class="st20" points="50.1,160.3 50.1,163.2 55.8,166.5 55.8,167.2 49.4,163.6 49.4,159.9 			"/>
			<polygon class="st20" points="47.4,158.7 41.1,155.1 41.1,158.7 47.4,162.4 			"/>
			<polygon class="st20" points="41.8,155.4 41.8,158.4 47.4,161.7 47.4,162.4 41.1,158.7 41.1,155.1 			"/>
			<polygon class="st20" points="39.1,153.9 32.8,150.3 32.8,153.9 39.1,157.6 			"/>
			<polygon class="st20" points="33.4,150.6 33.4,153.6 39.1,156.8 39.1,157.6 32.8,153.9 32.8,150.3 			"/>
			<polygon class="st20" points="30.9,149.2 24.6,145.6 24.6,149.2 30.9,152.9 			"/>
			<polygon class="st20" points="25.2,146 25.2,148.9 30.9,152.2 30.9,152.9 24.6,149.2 24.6,145.6 			"/>
			<polygon class="st20" points="55.8,169.6 49.4,165.9 49.4,169.6 55.8,173.2 			"/>
			<polygon class="st20" points="50.1,166.2 50.1,169.2 55.8,172.5 55.8,173.2 49.4,169.6 49.4,165.9 			"/>
			<polygon class="st20" points="47.4,164.7 41.1,161 41.1,164.7 47.4,168.3 			"/>
			<polygon class="st20" points="41.8,161.4 41.8,164.4 47.4,167.6 47.4,168.3 41.1,164.7 41.1,161 			"/>
			<polygon class="st20" points="39.1,159.9 32.8,156.2 32.8,159.9 39.1,163.5 			"/>
			<polygon class="st20" points="33.4,156.6 33.4,159.6 39.1,162.8 39.1,163.5 32.8,159.9 32.8,156.2 			"/>
			<polygon class="st20" points="30.9,155.2 24.6,151.5 24.6,155.2 30.9,158.8 			"/>
			<polygon class="st20" points="25.2,151.9 25.2,154.9 30.9,158.1 30.9,158.8 24.6,155.2 24.6,151.5 			"/>
			<polygon class="st20" points="22.5,138.4 16.2,134.8 16.2,138.4 22.5,142.1 			"/>
			<polygon class="st20" points="16.9,135.1 16.9,138.1 22.5,141.3 22.5,142.1 16.2,138.4 16.2,134.8 			"/>
			<polygon class="st20" points="14.2,133.6 7.9,130 7.9,133.6 14.2,137.2 			"/>
			<polygon class="st20" points="8.6,130.3 8.6,133.3 14.2,136.5 14.2,137.2 7.9,133.6 7.9,130 			"/>
			<polygon class="st20" points="22.5,144.4 16.2,140.7 16.2,144.4 22.5,148 			"/>
			<polygon class="st20" points="16.9,141.1 16.9,144.1 22.5,147.3 22.5,148 16.2,144.4 16.2,140.7 			"/>
			<polygon class="st20" points="14.2,139.6 7.9,135.9 7.9,139.6 14.2,143.2 			"/>
			<polygon class="st20" points="8.6,136.3 8.6,139.3 14.2,142.5 14.2,143.2 7.9,139.6 7.9,135.9 			"/>
			<polygon class="st20" points="22.5,150.4 16.2,146.7 16.2,150.4 22.5,154 			"/>
			<polygon class="st20" points="16.9,147.1 16.9,150.1 22.5,153.3 22.5,154 16.2,150.4 16.2,146.7 			"/>
			<polygon class="st20" points="14.2,145.6 7.9,141.9 7.9,145.6 14.2,149.2 			"/>
			<polygon class="st20" points="8.6,142.3 8.6,145.3 14.2,148.5 14.2,149.2 7.9,145.6 7.9,141.9 			"/>
			<polygon class="st20" points="55.8,175.5 49.4,171.9 49.4,175.5 55.8,179.2 			"/>
			<polygon class="st20" points="50.1,172.2 50.1,175.2 55.8,178.5 55.8,179.2 49.4,175.5 49.4,171.9 			"/>
			<polygon class="st20" points="47.4,170.7 41.1,167 41.1,170.7 47.4,174.3 			"/>
			<polygon class="st20" points="41.8,167.4 41.8,170.4 47.4,173.6 47.4,174.3 41.1,170.7 41.1,167 			"/>
			<polygon class="st20" points="39.1,165.9 32.8,162.2 32.8,165.9 39.1,169.5 			"/>
			<polygon class="st20" points="33.4,162.6 33.4,165.6 39.1,168.8 39.1,169.5 32.8,165.9 32.8,162.2 			"/>
			<polygon class="st20" points="30.9,161.2 24.6,157.5 24.6,161.2 30.9,164.8 			"/>
			<polygon class="st20" points="25.2,157.9 25.2,160.9 30.9,164.1 30.9,164.8 24.6,161.2 24.6,157.5 			"/>
			<polygon class="st20" points="55.8,181.5 49.4,177.8 49.4,181.5 55.8,185.1 			"/>
			<polygon class="st20" points="50.1,178.2 50.1,181.2 55.8,184.4 55.8,185.1 49.4,181.5 49.4,177.8 			"/>
			<polygon class="st20" points="47.4,176.7 41.1,173 41.1,176.7 47.4,180.3 			"/>
			<polygon class="st20" points="41.8,173.4 41.8,176.4 47.4,179.6 47.4,180.3 41.1,176.7 41.1,173 			"/>
			<polygon class="st20" points="22.5,156.4 16.2,152.7 16.2,156.4 22.5,160 			"/>
			<polygon class="st20" points="16.9,153.1 16.9,156.1 22.5,159.3 22.5,160 16.2,156.4 16.2,152.7 			"/>
			<polygon class="st20" points="14.2,151.6 7.9,147.9 7.9,151.6 14.2,155.2 			"/>
			<polygon class="st20" points="8.6,148.3 8.6,151.2 14.2,154.5 14.2,155.2 7.9,151.6 7.9,147.9 			"/>
			<polygon class="st20" points="22.5,162.4 16.2,158.7 16.2,162.4 22.5,166 			"/>
			<polygon class="st20" points="16.9,159.1 16.9,162 22.5,165.3 22.5,166 16.2,162.4 16.2,158.7 			"/>
			<polygon class="st20" points="14.2,157.6 7.9,153.9 7.9,157.6 14.2,161.2 			"/>
			<polygon class="st20" points="8.6,154.3 8.6,157.2 14.2,160.5 14.2,161.2 7.9,157.6 7.9,153.9 			"/>
			<polygon class="st20" points="208.3,111.6 214.6,107.9 214.6,111.6 208.3,115.2 			"/>
			<polygon class="st20" points="214,108.3 214,111.3 208.3,114.5 208.3,115.2 214.6,111.6 214.6,107.9 			"/>
			<polygon class="st20" points="216.6,106.7 222.9,103.1 222.9,106.7 216.6,110.4 			"/>
			<polygon class="st20" points="222.3,103.4 222.3,106.4 216.6,109.7 216.6,110.4 222.9,106.7 222.9,103.1 			"/>
			<polygon class="st20" points="90.4,152.5 96.7,148.8 96.7,152.5 90.4,156.1 			"/>
			<polygon class="st23" points="96.1,149.2 96.1,152.2 90.4,155.4 90.4,156.1 96.7,152.5 96.7,148.8 			"/>
			<polygon class="st20" points="98.8,147.7 105.1,144 105.1,147.7 98.8,151.3 			"/>
			<polygon class="st23" points="104.4,144.4 104.4,147.3 98.8,150.6 98.8,151.3 105.1,147.7 105.1,144 			"/>
			<polygon class="st20" points="107.1,142.9 113.4,139.2 113.4,142.9 107.1,146.5 			"/>
			<polygon class="st23" points="112.7,139.6 112.7,142.6 107.1,145.8 107.1,146.5 113.4,142.9 113.4,139.2 			"/>
			<polygon class="st20" points="115.3,138.2 121.6,134.5 121.6,138.2 115.3,141.8 			"/>
			<polygon class="st23" points="121,134.9 121,137.9 115.3,141.1 115.3,141.8 121.6,138.2 121.6,134.5 			"/>
			<polygon class="st20" points="123.7,133.3 130,129.7 130,133.3 123.7,137 			"/>
			<polygon class="st23" points="129.3,130.1 129.3,133 123.7,136.3 123.7,137 130,133.3 130,129.7 			"/>
			<polygon class="st20" points="132,128.5 138.3,124.8 138.3,128.5 132,132.1 			"/>
			<polygon class="st23" points="137.6,125.2 137.6,128.1 132,131.4 132,132.1 138.3,128.5 138.3,124.8 			"/>
			<polygon class="st20" points="90.4,146.6 96.7,142.9 96.7,146.6 90.4,150.2 			"/>
			<polygon class="st23" points="96.1,143.3 96.1,146.2 90.4,149.5 90.4,150.2 96.7,146.6 96.7,142.9 			"/>
			<polygon class="st20" points="98.8,141.7 105.1,138.1 105.1,141.7 98.8,145.3 			"/>
			<polygon class="st23" points="104.4,138.4 104.4,141.4 98.8,144.6 98.8,145.3 105.1,141.7 105.1,138.1 			"/>
			<polygon class="st20" points="107.1,136.9 113.4,133.2 113.4,136.9 107.1,140.6 			"/>
			<polygon class="st23" points="112.7,133.6 112.7,136.6 107.1,139.8 107.1,140.6 113.4,136.9 113.4,133.2 			"/>
			<polygon class="st20" points="115.3,132.2 121.6,128.6 121.6,132.2 115.3,135.9 			"/>
			<polygon class="st23" points="121,128.9 121,131.9 115.3,135.2 115.3,135.9 121.6,132.2 121.6,128.6 			"/>
			<polygon class="st20" points="123.7,127.4 130,123.7 130,127.4 123.7,131 			"/>
			<polygon class="st23" points="129.3,124.1 129.3,127.1 123.7,130.3 123.7,131 130,127.4 130,123.7 			"/>
			<polygon class="st20" points="132,122.5 138.3,118.8 138.3,122.5 132,126.1 			"/>
			<polygon class="st23" points="137.6,119.2 137.6,122.2 132,125.4 132,126.1 138.3,122.5 138.3,118.8 			"/>
			<polygon class="st20" points="90.4,140.6 96.7,136.9 96.7,140.6 90.4,144.2 			"/>
			<polygon class="st23" points="96.1,137.3 96.1,140.3 90.4,143.5 90.4,144.2 96.7,140.6 96.7,136.9 			"/>
			<polygon class="st20" points="98.8,135.8 105.1,132.1 105.1,135.8 98.8,139.4 			"/>
			<polygon class="st23" points="104.4,132.5 104.4,135.5 98.8,138.7 98.8,139.4 105.1,135.8 105.1,132.1 			"/>
			<polygon class="st20" points="107.1,131 113.4,127.3 113.4,131 107.1,134.6 			"/>
			<polygon class="st23" points="112.7,127.7 112.7,130.7 107.1,133.9 107.1,134.6 113.4,131 113.4,127.3 			"/>
			<polygon class="st20" points="115.3,126.3 121.6,122.6 121.6,126.3 115.3,129.9 			"/>
			<polygon class="st23" points="121,123 121,126 115.3,129.2 115.3,129.9 121.6,126.3 121.6,122.6 			"/>
			<polygon class="st20" points="123.7,121.5 130,117.8 130,121.5 123.7,125.1 			"/>
			<polygon class="st23" points="129.3,118.2 129.3,121.1 123.7,124.4 123.7,125.1 130,121.5 130,117.8 			"/>
			<polygon class="st20" points="132,116.6 138.3,112.9 138.3,116.6 132,120.2 			"/>
			<polygon class="st23" points="137.6,113.3 137.6,116.2 132,119.5 132,120.2 138.3,116.6 138.3,112.9 			"/>
			<polygon class="st20" points="65.5,166.8 71.8,163.2 71.8,166.8 65.5,170.5 			"/>
			<polygon class="st23" points="71.2,163.5 71.2,166.5 65.5,169.8 65.5,170.5 71.8,166.8 71.8,163.2 			"/>
			<polygon class="st20" points="73.9,162 80.2,158.3 80.2,162 73.9,165.6 			"/>
			<polygon class="st23" points="79.5,158.7 79.5,161.7 73.9,164.9 73.9,165.6 80.2,162 80.2,158.3 			"/>
			<polygon class="st20" points="82.2,157.2 88.5,153.5 88.5,157.2 82.2,160.8 			"/>
			<polygon class="st23" points="87.8,153.9 87.8,156.9 82.2,160.1 82.2,160.8 88.5,157.2 88.5,153.5 			"/>
			<polygon class="st20" points="65.5,160.9 71.8,157.2 71.8,160.9 65.5,164.5 			"/>
			<polygon class="st23" points="71.2,157.6 71.2,160.6 65.5,163.8 65.5,164.5 71.8,160.9 71.8,157.2 			"/>
			<polygon class="st20" points="73.9,156.1 80.2,152.4 80.2,156.1 73.9,159.7 			"/>
			<polygon class="st23" points="79.5,152.8 79.5,155.7 73.9,159 73.9,159.7 80.2,156.1 80.2,152.4 			"/>
			<polygon class="st20" points="82.2,151.2 88.5,147.6 88.5,151.2 82.2,154.9 			"/>
			<polygon class="st23" points="87.8,148 87.8,150.9 82.2,154.2 82.2,154.9 88.5,151.2 88.5,147.6 			"/>
			<polygon class="st20" points="65.5,154.9 71.8,151.3 71.8,154.9 65.5,158.6 			"/>
			<polygon class="st23" points="71.2,151.6 71.2,154.6 65.5,157.8 65.5,158.6 71.8,154.9 71.8,151.3 			"/>
			<polygon class="st20" points="73.9,150.1 80.2,146.4 80.2,150.1 73.9,153.7 			"/>
			<polygon class="st23" points="79.5,146.8 79.5,149.8 73.9,153 73.9,153.7 80.2,150.1 80.2,146.4 			"/>
			<polygon class="st20" points="82.2,145.3 88.5,141.6 88.5,145.3 82.2,148.9 			"/>
			<polygon class="st23" points="87.8,142 87.8,145 82.2,148.2 82.2,148.9 88.5,145.3 88.5,141.6 			"/>
			<polygon class="st20" points="90.4,164.5 96.7,160.8 96.7,164.5 90.4,168.1 			"/>
			<polygon class="st23" points="96.1,161.2 96.1,164.2 90.4,167.4 90.4,168.1 96.7,164.5 96.7,160.8 			"/>
			<polygon class="st20" points="98.8,159.7 105.1,156 105.1,159.7 98.8,163.3 			"/>
			<polygon class="st23" points="104.4,156.4 104.4,159.3 98.8,162.6 98.8,163.3 105.1,159.7 105.1,156 			"/>
			<polygon class="st20" points="107.1,154.9 113.4,151.2 113.4,154.9 107.1,158.5 			"/>
			<polygon class="st23" points="112.7,151.6 112.7,154.5 107.1,157.8 107.1,158.5 113.4,154.9 113.4,151.2 			"/>
			<polygon class="st20" points="115.3,150.2 121.6,146.5 121.6,150.2 115.3,153.8 			"/>
			<polygon class="st23" points="121,146.9 121,149.8 115.3,153.1 115.3,153.8 121.6,150.2 121.6,146.5 			"/>
			<polygon class="st20" points="123.7,145.3 130,141.7 130,145.3 123.7,149 			"/>
			<polygon class="st23" points="129.3,142.1 129.3,145 123.7,148.3 123.7,149 130,145.3 130,141.7 			"/>
			<polygon class="st20" points="132,140.5 138.3,136.8 138.3,140.5 132,144.1 			"/>
			<polygon class="st23" points="137.6,137.2 137.6,140.1 132,143.4 132,144.1 138.3,140.5 138.3,136.8 			"/>
			<polygon class="st20" points="90.4,158.6 96.7,154.9 96.7,158.6 90.4,162.2 			"/>
			<polygon class="st23" points="96.1,155.3 96.1,158.2 90.4,161.5 90.4,162.2 96.7,158.6 96.7,154.9 			"/>
			<polygon class="st20" points="98.8,153.7 105.1,150 105.1,153.7 98.8,157.3 			"/>
			<polygon class="st23" points="104.4,150.4 104.4,153.4 98.8,156.6 98.8,157.3 105.1,153.7 105.1,150 			"/>
			<polygon class="st20" points="107.1,148.9 113.4,145.2 113.4,148.9 107.1,152.5 			"/>
			<polygon class="st23" points="112.7,145.6 112.7,148.6 107.1,151.8 107.1,152.5 113.4,148.9 113.4,145.2 			"/>
			<polygon class="st20" points="115.3,144.2 121.6,140.6 121.6,144.2 115.3,147.8 			"/>
			<polygon class="st23" points="121,140.9 121,143.9 115.3,147.1 115.3,147.8 121.6,144.2 121.6,140.6 			"/>
			<polygon class="st20" points="123.7,139.4 130,135.7 130,139.4 123.7,143 			"/>
			<polygon class="st23" points="129.3,136.1 129.3,139.1 123.7,142.3 123.7,143 130,139.4 130,135.7 			"/>
			<polygon class="st20" points="132,134.5 138.3,130.8 138.3,134.5 132,138.1 			"/>
			<polygon class="st23" points="137.6,131.2 137.6,134.2 132,137.4 132,138.1 138.3,134.5 138.3,130.8 			"/>
			<polygon class="st20" points="65.5,178.8 71.8,175.2 71.8,178.8 65.5,182.5 			"/>
			<polygon class="st23" points="71.2,175.5 71.2,178.5 65.5,181.8 65.5,182.5 71.8,178.8 71.8,175.2 			"/>
			<polygon class="st20" points="73.9,174 80.2,170.3 80.2,174 73.9,177.6 			"/>
			<polygon class="st23" points="79.5,170.7 79.5,173.7 73.9,176.9 73.9,177.6 80.2,174 80.2,170.3 			"/>
			<polygon class="st20" points="82.2,169.2 88.5,165.5 88.5,169.2 82.2,172.8 			"/>
			<polygon class="st23" points="87.8,165.9 87.8,168.9 82.2,172.1 82.2,172.8 88.5,169.2 88.5,165.5 			"/>
			<polygon class="st20" points="65.5,172.9 71.8,169.2 71.8,172.9 65.5,176.5 			"/>
			<polygon class="st23" points="71.2,169.6 71.2,172.6 65.5,175.8 65.5,176.5 71.8,172.9 71.8,169.2 			"/>
			<polygon class="st20" points="73.9,168.1 80.2,164.4 80.2,168.1 73.9,171.7 			"/>
			<polygon class="st23" points="79.5,164.8 79.5,167.7 73.9,171 73.9,171.7 80.2,168.1 80.2,164.4 			"/>
			<polygon class="st20" points="82.2,163.2 88.5,159.6 88.5,163.2 82.2,166.9 			"/>
			<polygon class="st23" points="87.8,160 87.8,162.9 82.2,166.2 82.2,166.9 88.5,163.2 88.5,159.6 			"/>
			<polygon class="st20" points="140.9,134.9 140.9,143 173.4,161.8 189.8,152.3 189.8,144.3 173.4,153.7 			"/>
			<polygon class="st20" points="141.8,135.4 141.8,142.6 173.4,160.9 188.9,151.9 188.9,144.7 189.8,144.3 189.8,152.3 
				173.4,161.8 140.9,143 140.9,134.9 			"/>
			<polygon class="st23" points="173.4,153.7 173.4,161.8 140.9,143 140.9,134.9 			"/>
			<polygon class="st23" points="140.2,160.7 140.4,160.7 140.4,159.9 			"/>
			<polygon class="st23" points="143.2,144.3 152.3,149.6 152.3,141.5 143.2,136.2 			"/>
			<polygon class="st23" points="154.3,150.8 158.1,152.9 158.1,144.8 154.3,142.7 			"/>
			<polygon class="st23" points="159.6,145.7 159.6,153.8 166.6,157.9 166.6,149.7 			"/>
			<polygon class="st23" points="184.2,147.4 184.2,155.5 186.6,154.2 186.6,146.1 			"/>
			<polygon class="st23" points="175.4,152.5 175.4,160.6 182.4,156.6 182.4,148.5 			"/>
			<polygon class="st23" points="171.3,152.5 169,151.1 169,159.3 171.3,160.6 			"/>
			<text transform="matrix(0.75 -0.43 0 1 187.8597 144.2394)" class="st10 st14 st24">EME</text>
			<text transform="matrix(0.75 -0.43 0 1 194.0392 140.6965)" class="st10 st14 st24">R</text>
			<text transform="matrix(0.75 -0.43 0 1 195.9072 139.6255)" class="st10 st14 st24">GEN</text>
			<text transform="matrix(0.75 -0.43 0 1 202.1172 136.0651)" class="st10 st14 st24">C</text>
			<text transform="matrix(0.75 -0.43 0 1 204.1276 134.9125)" class="st10 st14 st24">Y   UNIT</text>
			<polygon class="st20" points="24.5,174 24.5,163.5 39.1,171.9 39.1,182.6 			"/>
			<polygon class="st20" points="13.4,121.2 58.2,147.1 139.7,100.1 173.3,119.6 216.9,94.5 138.2,49.1 			"/>
			<polygon class="st16" points="138.2,49.1 138.2,51.9 15.9,122.6 13.4,121.2 			"/>
			<polygon class="st17" points="138.2,49.1 138.2,51.9 214.4,95.9 216.9,94.5 			"/>
			<polygon class="st16" points="191.7,102.7 206.3,94.2 206.3,105 191.7,113.3 			"/>
			<polygon class="st19" points="206.3,94.2 202.4,92 187.9,100.4 191.7,102.7 			"/>
			<polygon class="st17" points="191.7,102.7 187.9,100.4 187.9,111.2 191.7,113.3 			"/>
			<polygon class="st22" points="204,101 201.2,102.5 201.2,98.9 198.7,100.3 198.7,104 195.9,105.6 195.9,109 198.7,107.4 
				198.7,111 201.2,109.6 201.2,105.9 204,104.3 			"/>
			<circle class="st25" cx="136.5" cy="22.8" r="5.8"/>
			<path class="st26" d="M144.9,22.8c0,4.7-3.8,8.5-8.4,8.5c-4.7,0-8.5-3.8-8.5-8.5c0-4.7,3.8-8.5,8.4-8.5c0,0,0,0,0,0
				C141.2,14.3,144.9,18.1,144.9,22.8C144.9,22.8,144.9,22.8,144.9,22.8z"/>
			<path class="st27" d="M139.7,22.8c0,1.8-1.4,3.2-3.2,3.2c-1.8,0-3.2-1.4-3.2-3.2c0-1.8,1.4-3.2,3.2-3.2c0,0,0,0,0,0
				C138.3,19.6,139.7,21,139.7,22.8z"/>
			<polygon class="st6" points="136.5,61 137.3,60.5 137.3,36.7 136.5,37.1 			"/>
			<polygon class="st7" points="136.5,61 135.6,60.5 135.6,36.7 136.5,37.1 			"/>
			<polygon class="st6" points="136.5,66.9 137.3,66.4 137.3,42.5 136.5,43 			"/>
			<polygon class="st7" points="136.5,66.9 135.6,66.4 135.6,42.5 136.5,43 			"/>
			<polygon class="st6" points="131.4,64 132.2,63.5 132.2,39.6 131.4,40.1 			"/>
			<polygon class="st7" points="131.4,64 130.6,63.5 130.6,39.6 131.4,40.1 			"/>
			<polygon class="st6" points="141.6,63.9 142.5,63.4 142.5,39.6 141.6,40 			"/>
			<polygon class="st7" points="141.6,63.9 140.8,63.5 140.8,39.5 141.6,40 			"/>
			<polygon class="st7" points="130.6,38.2 136.5,41.6 136.5,43.1 130.6,39.6 			"/>
			<polygon class="st6" points="142.5,39.6 142.5,38.1 136.5,41.6 136.5,43 			"/>
			<path class="st2" d="M136.5,34.7l-5.9,3.5l5.9,3.4l6-3.5L136.5,34.7z M136.5,40.6l-4.3-2.5l4.3-2.5l4.2,2.5L136.5,40.6z"/>
			<polygon class="st7" points="136.5,35.7 136.5,37.1 139.5,38.9 140.7,38.1 			"/>
			<polygon class="st7" points="136.5,37.1 133.5,38.9 132.2,38.1 136.5,35.7 			"/>
			<polygon class="st2" points="132.2,46.5 131.4,47 135.6,49.4 135.6,48.4 			"/>
			<polygon class="st7" points="135.7,49.4 135.7,50.4 131.4,48 131.4,47 			"/>
			<polygon class="st2" points="140.8,46.5 141.6,47 137.3,49.5 137.3,48.5 			"/>
			<polygon class="st7" points="137.3,49.5 137.3,50.5 141.6,48 141.6,47 			"/>
			<polygon class="st2" points="132.2,45.5 135.7,43.5 135.7,44.5 132.2,46.5 			"/>
			<polygon class="st7" points="132.2,46.5 133.1,47 135.6,45.5 135.6,44.5 			"/>
			<polygon class="st7" points="140.8,46.5 137.3,44.5 137.3,45.5 139.9,47 			"/>
			<polygon class="st2" points="137.3,44.5 137.3,43.5 140.8,45.5 140.8,46.5 			"/>
			<polygon class="st2" points="132.2,54.8 131.4,55.3 135.6,57.8 135.6,56.8 			"/>
			<polygon class="st7" points="135.7,57.8 135.7,58.8 131.4,56.3 131.4,55.3 			"/>
			<polygon class="st2" points="140.8,54.8 141.6,55.3 137.3,57.8 137.3,56.8 			"/>
			<polygon class="st7" points="137.3,57.8 137.3,58.8 141.6,56.3 141.6,55.3 			"/>
			<polygon class="st2" points="132.2,53.8 135.7,51.9 135.7,52.8 132.2,54.8 			"/>
			<polygon class="st7" points="132.2,54.8 133.1,55.3 135.6,53.8 135.6,52.8 			"/>
			<polygon class="st7" points="140.8,54.8 137.3,52.8 137.3,53.8 139.9,55.3 			"/>
			<polygon class="st2" points="137.3,52.8 137.3,51.8 140.8,53.8 140.8,54.8 			"/>
			<polygon class="st7" points="136.5,41.6 136.5,24 135.7,41.1 			"/>
			<polygon class="st6" points="136.5,41.6 137.3,41.1 136.5,24 			"/>
			<polygon class="st7" points="130.6,38.2 136.5,24 131.4,38.6 			"/>
			<polygon class="st6" points="136.5,24 142.5,38.1 141.6,38.6 			"/>
			<polygon class="st6" points="131.4,38.6 132.2,38.1 136.5,24 			"/>
			<polygon class="st7" points="136.5,24 141.6,38.6 140.7,38.1 			"/>
			<circle class="st6" cx="136.5" cy="22.8" r="1.2"/>
			<polygon class="st19" points="136.9,56.7 160.6,70.4 177.7,60.4 153.9,46.8 			"/>
			<polygon class="st17" points="136.9,56.7 136.9,71 160.6,84.7 160.6,70.4 			"/>
			<polygon class="st16" points="160.6,84.7 177.7,74.8 177.7,60.4 160.6,70.4 			"/>
			<polygon class="st20" points="143.9,75.1 143.9,68.9 139.1,66.2 139.1,72.3 			"/>
			<polygon class="st20" points="144.7,69.4 144.7,73.6 160.6,82.8 176.6,73.6 176.6,69.3 160.6,78.6 			"/>
			<polygon class="st20" points="137.7,59.1 137.7,63.3 160.6,76.4 176.6,67 176.6,62.8 160.6,72.2 			"/>
			<polygon class="st23" points="159.3,77.8 158.1,77.1 158.1,81.4 159.3,82 			"/>
			<polygon class="st23" points="156.6,76.2 148.8,71.8 148.8,76 156.6,80.5 			"/>
			<polygon class="st23" points="146.9,70.7 145.6,69.9 145.6,74.1 146.9,74.9 			"/>
			<polygon class="st23" points="173.5,71.1 171.3,72.4 171.3,76.7 173.5,75.4 			"/>
			<polygon class="st23" points="175.7,69.9 174.5,70.5 174.5,74.8 175.7,74.1 			"/>
			<polygon class="st23" points="170.2,73 162.4,77.5 162.4,81.8 170.2,77.3 			"/>
			<polygon class="st23" points="156.6,69.9 148.8,65.4 148.8,69.6 156.6,74.1 			"/>
			<polygon class="st23" points="146.9,64.4 145.6,63.6 145.6,67.8 146.9,68.6 			"/>
			<polygon class="st23" points="143.9,62.7 141.2,61.1 141.2,65.3 143.9,66.9 			"/>
			<polygon class="st23" points="138.2,63.6 140.4,64.8 140.4,60.7 138.2,59.4 			"/>
			<polygon class="st23" points="173.5,64.6 171.3,65.9 171.3,70.2 173.5,68.9 			"/>
			<polygon class="st23" points="175.7,63.3 174.5,64 174.5,68.2 175.7,67.6 			"/>
			<polygon class="st23" points="170.2,66.5 162.4,71.1 162.4,75.3 170.2,70.8 			"/>
			<polygon class="st23" points="159.3,71.4 158.1,70.8 158.1,74.9 159.3,75.6 			"/>
			<polygon class="st23" points="160.6,72.2 160.6,76.4 137.7,63.3 137.7,59.1 			"/>
			<polygon class="st23" points="160.6,78.6 160.6,82.8 144.7,73.6 144.7,69.4 			"/>
		</g>
	</g>
</g>
</svg>
